<?xml version="1.0" encoding="UTF-8"?> <!-- Generator: Adobe Illustrator 22.0.0, SVG Export Plug-In . SVG Version: 6.00 Build 0) --> <svg xmlns="http://www.w3.org/2000/svg" xmlns:xlink="http://www.w3.org/1999/xlink" id="Слой_1" x="0px" y="0px" viewBox="0 0 300 300" style="enable-background:new 0 0 300 300;" xml:space="preserve"> <style type="text/css"> .st0{fill:#EC623C;} .st1{fill:#65C8F3;} .st2{fill:#7163A9;} .st3{fill:#FFFFFF;} .st4{fill:#F7A533;} .st5{fill:#EF765B;} .st6{fill:#F28E20;} .st7{fill:#6CA32E;} .st8{fill:#D0513A;} .st9{fill:#A2BC25;} .st10{fill:#501215;} .st11{fill:#7F2D2F;} .st12{fill:#F39A81;} .st13{fill:#179DD7;} .st14{fill:#B63627;} .st15{fill:#8F1915;} .st16{fill:#F18A74;} .st17{fill:#ED6D56;} .st18{fill:#E84228;} .st19{fill:#EF7C6B;} </style> <g> <g> <g> <path class="st0" d="M140.5763397,36.852047c-0.9791412,9.7455635,2.7308655,19.7899132,10.8053589,26.5540733 c8.086853,6.7744675,18.6426086,8.6595612,28.0761108,5.975174c-3.3098602-7.5643082-6.5241547-15.1859665-8.8251343-23.1095886 c-2.2963257-7.9039879-3.666626-16.1627712-3.2322998-24.3625031c-3.3949738,0.2940502-6.2875214-0.9827366-6.8686981-3.2341366 c-0.0225983-0.0928841-0.0425262-0.1888046-0.0594025-0.2821827c-5.2075195,2.2307034-9.9470825,5.5613251-13.7901611,9.7327099 C144.2714996,30.7446442,142.217392,33.6886139,140.5763397,36.852047z"></path> </g> </g> <g> <g> <path class="st1" d="M170.6326752,46.2717056c2.3009796,7.9236221,5.515274,15.5452805,8.8251343,23.1095886 c5.6923523-1.6238174,10.9735413-4.9073944,15.0591125-9.7844162c4.9592896-5.9200096,7.3009033-13.161232,7.1430969-20.3197441 c-1.7960815-5.0389137-4.7319336-9.6695614-8.5550842-13.4112053c-4.7826538-4.6774082-10.9284821-7.9293442-17.4686584-9.298027 c-0.5857086,2.1244698-3.0222321,4.1564808-6.2822266,5.0020447c-0.6605072,0.1704407-1.3178253,0.2802067-1.9536743,0.3392563 C166.9660492,30.1089344,168.3363495,38.3677177,170.6326752,46.2717056z"></path> </g> </g> <g> <g> <path class="st2" d="M140.5763397,36.852047c1.6410522-3.1634331,3.6951599-6.1074028,6.1057739-8.7264538 c3.8430786-4.1713848,8.5826416-7.5020065,13.7901611-9.7327099c-0.4283295-2.6040783,2.3484497-5.4709864,6.3816071-6.514185 c0.5369568-0.1365366,1.0713196-0.2383909,1.5889893-0.3013268c0.1139221-0.7603788,0.3331146-1.5012627,0.6418457-2.2041454 c-8.0662994,0.522624-15.913208,4.2139053-21.5122528,10.8976116 C143.4765167,25.1602211,141.1676941,30.9496956,140.5763397,36.852047z"></path> </g> </g> <g> <g> <path class="st3" d="M160.4722748,18.3928833c0.0168762,0.0933781,0.0368042,0.1892986,0.0594025,0.2821827 c0.5811768,2.2514,3.4737244,3.5281868,6.8686981,3.2341366c0.635849-0.0590496,1.2931671-0.1688156,1.9536743-0.3392563 c3.2599945-0.8455639,5.6965179-2.8775749,6.2822266-5.0020447c0.1710663-0.6014509,0.1892242-1.2096834,0.0368042-1.7970085 c-0.6027374-2.3327703-3.6799164-3.6163387-7.2302094-3.1935215c-0.5176697,0.0629358-1.0520325,0.1647902-1.5889893,0.3013268 C162.8207245,12.9218969,160.0439453,15.788805,160.4722748,18.3928833z"></path> </g> </g> <g> <g> <path class="st4" d="M201.6600189,39.2771339c-0.1859131-8.5186443-3.9058685-16.9178486-10.9496613-22.818573 c-6.2801819-5.2609901-14.0503845-7.5703106-21.6256409-7.0853348c-0.3087311,0.7028828-0.5279236,1.4437666-0.6418457,2.2041454 c3.550293-0.4228172,6.6274719,0.8607512,7.2302094,3.1935215c0.15242,0.5873251,0.1342621,1.1955576-0.0368042,1.7970085 c6.5401764,1.3686829,12.6860046,4.6206188,17.4686584,9.298027 C196.9280853,29.6075726,199.8639374,34.2382202,201.6600189,39.2771339z"></path> </g> </g> </g> <g> <g> <path class="st0" d="M65.9697037,30.6575527c-1.1769867,0.3173599-2.3988152,0.4675999-3.6242523,0.4271965l0.135479-4.1075306 c3.1744499,0.1052456,6.4352837-1.7789268,7.9315987-4.5797901l3.6250992,1.9355927 C72.3750381,27.446867,69.3581696,29.7441082,65.9697037,30.6575527z"></path> </g> <g> <path class="st4" d="M95.220314,29.6125164c-4.5158005-0.1152039-8.9536819-1.7228432-12.4957886-4.5270977l2.5508881-3.2224102 c2.8488312,2.255497,6.4177704,3.5486698,10.0497894,3.6411304L95.220314,29.6125164z"></path> </g> <g> <path class="st4" d="M48.9852448,23.3781853l-1.8520355-3.6689606c2.4551811-1.2392101,4.0554008-4.1267424,3.8046494-6.8652372 l4.0926971-0.3742914C55.4350777,16.8912659,52.949173,21.3768311,48.9852448,23.3781853z"></path> </g> <g> <path class="st1" d="M69.0242157,13.6190586c-1.1770554,0.3173599-2.3988876,0.4675999-3.624321,0.4271965l0.1354752-4.1074591 c3.1744537,0.1051741,6.4352875-1.7789974,7.9316025-4.5798621l3.6251678,1.9355936 C75.4295502,10.4083729,72.4126892,12.705615,69.0242157,13.6190586z"></path> </g> </g> <g> <g> <path class="st2" d="M229.4834595,177.2369385c1.1059265,0.5126648,2.1390228,1.1822815,3.0523224,2.0002289l-2.741806,3.0613556 c-2.3656769-2.1193848-6.0751953-2.7694244-9.0209961-1.5835419l-1.5355225-3.8118591 C222.5117188,175.5841675,226.2994843,175.7608948,229.4834595,177.2369385z"></path> </g> <g> <path class="st0" d="M265.0532532,184.223175c0.495636,1.1137695,0.8330383,2.2976685,0.9827271,3.5146179l-4.07901,0.5015869 c-0.387146-3.1525574-2.7530212-6.0826111-5.7517395-7.127655l1.3515015-3.8809357 C260.8903198,178.3916779,263.6265564,181.0168762,265.0532532,184.223175z"></path> </g> <g> <path class="st4" d="M251.490448,199.7461395l-4.073761,0.5435333c-0.3636322-2.726059-2.5649414-5.1861877-5.2337952-5.8493042 l0.9914246-3.9883728C247.4832916,191.5228882,250.902771,195.3447723,251.490448,199.7461395z"></path> </g> <g> <path class="st1" d="M248.8582611,177.6131439c-0.0870819,1.2158966-0.3467407,2.4192963-0.7875671,3.5634308 l-3.8348236-1.4777374c1.1425171-2.9636078,0.4344788-6.6624451-1.719162-8.9960632l3.0193329-2.7878113 C247.9306335,170.5084534,249.1089478,174.1127167,248.8582611,177.6131439z"></path> </g> </g> <g> <g> <g> <g> <path class="st3" d="M134.0408173,237.5130005l0.2694092,8.4309082l22.3598633-0.7137604l-0.338623-10.6373901 C148.8346252,235.512558,141.4917603,236.8355408,134.0408173,237.5130005z"></path> </g> <g> <path class="st5" d="M156.3142395,234.050354c-0.272934-8.5715485-0.2415771-18.9985962,0.1681824-24.1909943 c0.7810669-0.3720398,1.730545-0.7817841,2.8030548-1.2154846c-4.3900757-6.082962-8.2339172-12.8045959-13.0384064-18.6541138 c-5.9943848,2.9837341-9.0446625,5.9625397-10.5137024,9.8195953 c-0.9170532,2.4080658-1.9006348,6.2222443-1.9619446,21.0888062 c-0.0296021,7.1580963,0.1729889,13.5954285,0.1815948,13.8660889l0.0877991,2.7487488 c7.450943-0.6774597,14.793808-2.0004425,22.2906494-2.9202423L156.3142395,234.050354z"></path> </g> <g> <path class="st4" d="M194.4665527,200.6102142l-7.6412964,2.0314331l-5.3261261,1.4135437 c-1.5527496,0.41745-3.1166687,0.8459778-4.6749268,1.2967072c-2.6603088,0.7681427-5.3094482,1.5750732-7.8305969,2.393158 c-4.4078064,1.4248352-8.448288,2.8661957-11.5760651,4.1295013 c-5.2704468-7.3017578-9.8842163-15.3660126-15.6499634-22.3896179 c3.806778-1.8866425,8.5930328-3.7844391,14.6204071-5.8381348c1.2410431-0.4229584,2.4765778-0.8348389,3.6787109-1.2187958 c0.5454254-0.1781464,1.0852966-0.3506317,1.6194916-0.5231171c3.2502441-1.0352173,6.2221832-1.9089661,8.4928741-2.5657349 c0.194809-0.0556488,0.3784637-0.1112518,0.5621033-0.1613922c2.2651062-0.6455231,3.7177124-1.0295715,3.8624268-1.0685577 l3.8957672-1.035141l3.3114166-0.8793335l5.7713928-1.5304413l0.3561401,1.3578796l0.5064392,1.9088898l1.9312286,7.2573395 L194.4665527,200.6102142z"></path> </g> </g> <g> <g> <path class="st3" d="M158.2501221,259.5630798l19.2763214,11.3557434l4.349884-7.3836365 c-6.1370697-4.3598328-11.914032-9.0796967-18.0461731-13.444397L158.2501221,259.5630798z"></path> </g> <g> <path class="st5" d="M198.3954468,216.1427002c-7.2959747-1.6256409-14.683548-2.8858337-22.0882263-3.4872131 c-1.2058563,10.7523956-4.5167847,23.9228668-12.3792267,37.269165l-0.0978394,0.1661377 c6.1321411,4.3647003,11.9091034,9.0845642,18.0461731,13.444397l1.3279877-2.254303 C192.66008,245.2298737,196.8083038,229.3638306,198.3954468,216.1427002z"></path> </g> <g> <path class="st4" d="M201.8332825,205.8361664c-0.0723267,4.4801178-0.3672943,9.4277802-1.0017242,14.7261353 c-8.754425-1.953537-17.6201782-3.4673004-26.5081024-4.1852264c0.4842072-4.3188019,0.6845245-8.3147278,0.7123566-11.8821869 c0.027832-3.2112579-0.0890045-6.0774536-0.2671356-8.5206909c-0.4118042-5.7991638-1.163208-9.2385559-1.190979-9.349884 l-2.320755-10.1735992l-0.072403-0.3172302l-0.59552-2.5989838l10.8748627-2.4821625h0.0055847l5.9717102-1.3636017 l9.322052-2.1315308l2.5823212,11.3144989l0.4062805,1.7698212 C199.94664,181.5041046,202.0670929,191.1823578,201.8332825,205.8361664z"></path> </g> </g> <g> <path class="st6" d="M201.8351898,205.8361664c-5.6099854-0.3451233-10.5965576-1.5138397-15.0099335-3.194519 c-1.6028442-0.6122589-3.1277618-1.285675-4.5747833-2.0203552c-2.7548828-1.3857727-5.24263-2.9718628-7.4799652-4.6470947 c-6.1442108-4.6137085-10.4017487-9.9676514-13.0843201-14.0693054c3.2502441-1.0352173,6.2221832-1.9089661,8.4928741-2.5657349 c0.194809-0.0556488,0.3784637-0.1112518,0.5621033-0.1613922c2.2651062-0.6455231,3.7177124-1.0295715,3.8624268-1.0685577 l3.8957672-1.035141l9.9453888,0.8569946l3.1723328,0.2727203l7.7303772,0.667923l0.4062195,1.7698212 C199.9484863,181.5041046,202.068924,191.1823578,201.8351898,205.8361664z"></path> </g> <g> <path class="st6" d="M174.6644897,205.8882141c-0.006012,0-0.0119476,0-0.0179443-0.0002747 c-0.3073273-0.0098267-0.5484009-0.266861-0.5385895-0.5739746l0.4350433-13.6132202 c0.0098267-0.3074036,0.2652283-0.5492554,0.5739746-0.5386658c0.3073273,0.0098267,0.5483398,0.266861,0.5385742,0.5739746 l-0.4351044,13.6132202C175.2109833,205.6506805,174.9636841,205.8882141,174.6644897,205.8882141z"></path> </g> <g> <path class="st6" d="M195.2022095,218.951416c-0.0258636,0-0.0519257-0.0016327-0.0782623-0.0054474 c-0.3043671-0.0426636-0.5163422-0.3239288-0.4736786-0.6284943c0.8413239-5.9967194,1.1891327-12.105896,1.0340118-18.1577759 c-0.0079041-0.3073273,0.234787-0.5627441,0.5418396-0.5706482c0.298645-0.0298767,0.5628204,0.2344971,0.5706482,0.5418396 c0.1571045,6.1132507-0.1942444,12.2838745-1.0443268,18.3414764 C195.7135925,218.7503204,195.4749908,218.951416,195.2022095,218.951416z"></path> </g> <g> <g> <g> <path class="st4" d="M156.7977295,244.7111359l-22.3913116,0.666153c0,0-8.1384125-0.0796814-11.5888367,12.2772522 l33.3339233,3.4874878L156.7977295,244.7111359z"></path> </g> <g> <polygon class="st3" points="156.1515045,261.1420288 156.3682709,255.6305695 123.3819504,255.8583679 122.8175812,257.654541 "></polygon> </g> </g> <g> <path class="st3" d="M131.2593079,256.5464172c0.1369629-2.88414-0.9361115-5.7656097-2.9547729-7.8356171 c-0.2478638-0.2541351-0.6876297,0.0876617-0.4377975,0.3438568c1.9177933,1.9665222,2.9696121,4.6846008,2.8390884,7.4322815 C130.6889343,256.8430176,131.2422943,256.9055176,131.2593079,256.5464172z"></path> </g> <g> <path class="st3" d="M149.2373047,257.490448c1.3253174-3.4238586,3.8295898-6.3426819,7.0264282-8.1536865 c0.30896-0.1750336,0.0916138-0.6878357-0.2197418-0.5114594c-3.3306122,1.8867798-5.9434509,4.8930511-7.3262634,8.4653778 C148.5886078,257.6242981,149.1076202,257.82547,149.2373047,257.490448z"></path> </g> </g> <g> <g> <path class="st4" d="M177.5253906,270.9181824c0,0-1.8309937,6.7174683-6.9345398,15.6387939c0,0,0,0-0.0055084,0.0055847 c-3.5674591,6.222168-16.5181885,7.2573242-18.0319519,6.5671692 c-1.8254852-0.8348389-6.1052856-13.3068848-2.0814667-19.7238159c4.0181885-6.4225769,7.7804565-13.841217,7.7804565-13.841217 L177.5253906,270.9181824z"></path> </g> <g> <path class="st3" d="M170.5853424,286.562561c-3.5674591,6.222168-16.5181885,7.2573242-18.0319519,6.5671692 c-1.8254852-0.8348389-6.1052856-13.3068848-2.0814667-19.7238159c0,0-0.4563599,12.9841614,3.7900391,16.2454224 C158.4526978,292.8737488,170.2903748,286.7128601,170.5853424,286.562561z"></path> </g> <g> <path class="st3" d="M169.5345917,284.8934631c-3.2447357-4.1907349-7.9885406-7.1640015-13.1499329-8.3428955 c-1.4575348-0.3329163-2.9472198-0.5205078-4.4415588-0.5604858c-0.3583221-0.009613-0.3580475,0.5469055,0,0.5565186 c5.1978455,0.1391602,10.2959442,2.165863,14.214386,5.5775757c1.0956879,0.9539185,2.0943146,2.0142822,2.9835358,3.1628723 C169.3600616,285.5697937,169.751297,285.1734009,169.5345917,284.8934631z"></path> </g> </g> </g> <g> <g> <g> <path class="st5" d="M164.3124542,129.2230835l1.4332428-14.9858551l-15.4277496-1.9279633l-2.7332001,14.6150284 c-1.7207184,12.5226212,3.5659027,24.744133,13.2763672,32.1538162 c2.5713806-5.0028839,5.7655945-9.6322632,9.088028-14.3829956 C165.725647,140.8638458,163.5036926,135.1086884,164.3124542,129.2230835z"></path> </g> <g> <path class="st7" d="M184.9552002,150.243103l-7.8193665,18.6887207l-6.4002533-2.6769714l-2.9441071-1.2299652 c-2.198349-0.9182434-4.2853851-2.0202026-6.2443542-3.2724152c-0.4675293-0.2949677-0.9349976-0.6010895-1.385849-0.9183197 c-0.5063782-0.3505554-1.0017395-0.7124176-1.4915161-1.0852203 c3.0888367-5.9995422,6.9178619-11.5538025,10.9082794-17.2583771c0.4897003,0.445282,1.007309,0.8682404,1.5415955,1.2689362 c0.4396973,0.3338928,0.8959961,0.6455383,1.3691101,0.9460907c0.9794769,0.6178284,2.0202026,1.1631927,3.1221771,1.6250763 l7.5244598,3.1500854L184.9552002,150.243103z"></path> </g> </g> <g> <path class="st3" d="M172.488739,144.7055817c-4.3410492,5.1981201-8.0253296,10.9360352-10.9416199,17.0468903 c-0.4675293-0.2949677-0.9349976-0.6010895-1.385849-0.9183197c2.9385986-6.1164398,6.6117249-11.8488464,10.9583588-17.0746613 C171.5593262,144.0933838,172.015625,144.4050293,172.488739,144.7055817z"></path> </g> <g> <g> <path class="st5" d="M145.0044708,98.0293198c0,0,0.7440643,0.6676407,1.7198181,1.5428696 c0.9801178,0.8806686,2.1967926,1.969429,3.1461945,2.8171844c0.6908722,0.617485,1.1499176,1.4639664,1.2970581,2.3783264 l-1.1673126,10.3622742l15.4488678,1.7403641l0.7520447-6.6755905c1.3937531-1.0499039,4.5540161-3.1909714,7.2681427-3.3316116 c0.7650299-0.0413895,1.4648743-0.3746414,1.9755707-0.9450836c0.5101929-0.565567,0.7643433-1.2973404,0.7272491-2.0570145 c-0.0413208-0.7651138-0.3745728-1.4648895-0.9401398-1.9750824c-0.5656433-0.5101166-1.2968445-0.7691345-2.0570831-0.7272491 c-1.678772,0.0954285-3.4894714,0.5782852-5.3874207,1.4437714c-0.2074585,0.0992355-0.4320068,0.1328583-0.659668,0.1072159 c-0.6249695-0.0704193-1.1124878-0.5767288-1.1642609-1.2055817c-0.0570068-0.7570648,0.0743713-1.487915,0.1134338-1.6601257 l3.9839172-8.8429947c0.2873535-0.6348648,0.3078308-1.3389435,0.061676-1.9848251 c-0.2460938-0.6458817-0.7276764-1.1613007-1.3582306-1.4432755c-1.2976227-0.5877457-2.8349915-0.0054398-3.427536,1.2916183 l-3.3123932,8.6474838c0.096344-2.4666214,0.5524292-8.4481506,0.6747589-11.3632278 c0.0103149-0.7444916-0.293335-1.445961-0.8255768-1.9473953c-0.5279083-0.4961319-1.2500153-0.7491455-1.9779663-0.6888962 c-1.311615,0.1024246-2.3594055,1.2599106-2.3856812,2.6257629l-0.1322174,11.1571274l-1.5067749-9.6296616 c-0.1459351-0.664032-0.5515137-1.2444305-1.1329041-1.6141357c-0.5862732-0.3701935-1.2789764-0.4923859-1.9586182-0.3383331 c-1.3888855,0.3095856-2.2712402,1.6966324-1.9670258,3.0898285c0.5664063,2.8111725,1.3874664,6.975563,1.7659912,9.0590668 l-4.1128235-3.6865463c-0.5118103-0.4648438-1.1769104-0.7016144-1.8682098-0.6617737 c-0.6907349,0.0349655-1.323822,0.3414459-1.7837982,0.8538284 C143.8552551,95.4272919,143.9399414,97.0704575,145.0044708,98.0293198z"></path> </g> </g> <g> <path class="st8" d="M152.618866,99.6177521c-0.2171326,0-0.4233856-0.1279907-0.513092-0.3405304 c-0.1195831-0.2831039,0.0133514-0.6095047,0.2964478-0.7290878c3.5969238-1.5180054,7.7989502-1.7275085,11.5298004-0.5750351 c0.2934723,0.0907669,0.4581909,0.4024734,0.3674316,0.6962433c-0.0910339,0.2937698-0.4036102,0.4565048-0.6962433,0.3674393 c-3.4829865-1.0759048-7.4086914-0.8807373-10.7683411,0.5369644 C152.7642365,99.6036224,152.6908417,99.6177521,152.618866,99.6177521z"></path> </g> <g> <path class="st8" d="M161.496048,106.9519958c-0.1407776,0-0.2815552-0.0529709-0.3896942-0.1592789l-5.4442139-5.3417206 c-0.2195282-0.2152252-0.2228546-0.5676956-0.0076294-0.7870102c0.2152252-0.2201004,0.5679779-0.2228546,0.7870178-0.0076294 l5.4442139,5.3417969c0.2196045,0.2152176,0.2228394,0.567688,0.0076294,0.7870026 C161.7843781,106.8962708,161.6403503,106.9519958,161.496048,106.9519958z"></path> </g> </g> <g> <g> <g> <path class="st9" d="M203.0595703,191.9115143c-0.1279755,0.5732727-0.2615509,1.1242218-0.4007111,1.6529083 c-0.2337189,0.9182587-0.4786224,1.7641754-0.7290802,2.5322418l-0.4618835,1.41362l-1.4859924-0.0723419 c-0.9349976-0.0444946-23.0074615-1.3022766-36.3032532-15.6443787l-0.9962311-1.0742035l1.4359283-2.3875122 l0.8681641-1.4414368l5.7991638-9.6504974c-0.0166779-0.2670593-0.0333405-0.6010284-0.0500946-0.9850616 c-0.1057281-2.8884583-0.0778961-8.7989197,1.7030029-12.3886414c1.5639191-3.1555176,6.7620392-4.0626678,9.7172394-4.3187866 c0.3227997-0.027771,0.6455994-0.049942,0.9795532-0.0666809c3.9458618-0.222641,8.3314056,0.2671356,12.015686,1.658493 c2.6825562,1.0128937,4.9922333,2.5044098,6.4949036,4.5524597c2.1427002,2.916275,3.1722717,7.8750916,3.4560699,13.4627686 C205.5028076,176.7735138,204.5065918,185.5613403,203.0595703,191.9115143z"></path> </g> </g> </g> <g> <g> <path class="st5" d="M218.92659,124.3416824c-1.2243652,8.4817123-3.8401794,14.113945-7.4521332,17.7704086 c-4.6415253,4.6971893-10.9304657,6.1220245-18.0152283,6.1164398h-0.0055847 c-1.9256287,0-3.9013367-0.1502991-5.9104614-0.4396973c-1.3190308-0.1893005-2.6046448-0.4341125-3.8568573-0.7346649 c-0.3562012-0.0834198-0.7068329-0.1724854-1.0573883-0.2671356c-0.128067-0.0333405-0.2560577-0.0722656-0.3840332-0.1057434 c-0.1669922-0.0445709-0.3338928-0.0890656-0.4953003-0.1390839h-0.0055847 c-1.1186371-0.3284454-2.2039337-0.6901703-3.2558136-1.0852203c-0.6511078-0.2393799-1.2911224-0.5010071-1.9144745-0.7792358 c-9.1829681-4.0460052-14.9153595-11.5259857-12.4999542-28.2555923 c0.7569275-5.237114,2.8606873-9.9342957,5.8993835-13.7799835c0.3227997-0.41745,0.6622772-0.8237381,1.0073242-1.2132874 c6.0106354-6.8065414,15.0878601-10.5409088,24.5769348-9.1718063 c7.2684174,1.0463104,13.4571228,4.9031601,17.6868439,10.3405914c1.6529999,2.1315308,3.0053558,4.5023727,4.0015869,7.0457764 C219.0155945,114.1458969,219.672348,119.1769714,218.92659,124.3416824z"></path> </g> <g> <ellipse transform="matrix(0.4019172 -0.915676 0.915676 0.4019172 1.0664694 263.8648071)" class="st8" cx="202.524231" cy="131.1160126" rx="5.1352801" ry="5.2755404"></ellipse> </g> <g> <g> <path class="st5" d="M179.9221497,150.8052063c0,0,1.2522125,2.2038574,6.750824,2.9941864 c0.317215,0.0445099,0.6233368,0.0834961,0.9183044,0.1113281h0.0166779 c3.5229492,0.3561401,5.3205261-0.3951263,6.027359-0.818161c0.250412-0.150238,0.3617401-0.2559814,0.3617401-0.2559814 l-0.3562317-3.0276031l-0.1891479-1.5805817c-1.9256439,0-3.9013519-0.150238-5.9104767-0.439621 c-1.3190308-0.1892395-2.6046448-0.4341278-3.856842-0.7346802c-0.3562164-0.0834808-0.7068481-0.1725616-1.0574799-0.2671356 c-0.1279755-0.0334015-0.2559662-0.0723267-0.3839569-0.1057434c-0.1669769-0.0500793-0.3339691-0.094574-0.5008698-0.1447296 v0.0055847l-1.19104,2.7827148L179.9221497,150.8052063z"></path> </g> <g> <path class="st8" d="M179.9221497,150.8052063c7.4019928,2.7437286,13.5295258-2.5768127,13.5295258-2.5768127h-0.0111694 c-1.9256287,0-3.8957672-0.150238-5.8993073-0.439621c-2.0091248-0.2893982-3.9514923-0.7068481-5.7936401-1.2467041h-0.0055084 L179.9221497,150.8052063z"></path> </g> </g> <g> <path class="st3" d="M192.1074982,121.6133652c-0.6746979,3.7054062,1.6510162,6.037117,4.9347382,6.6351089 c3.2837067,0.5979156,6.282074-0.7644043,6.9567719-4.4698181c0.6746979-3.7054062-1.4403687-7.1938934-4.7240906-7.7918854 C195.9911957,115.3888474,192.782196,117.9079514,192.1074982,121.6133652z"></path> </g> <g> <path class="st10" d="M203.9994965,124.3352585c-0.0328369,0-0.0665283-0.0030365-0.100296-0.0089722 c-0.3024597-0.0551682-0.5029907-0.3449097-0.4478149-0.6473618c0.3018799-1.6582108,0.0157471-3.3177719-0.806015-4.6729584 c-0.8084106-1.3335037-2.0408325-2.2114944-3.4701996-2.4715652c-1.9693451-0.3600998-4.0072174,0.5369568-5.317627,2.338913 c-0.18013,0.248703-0.5279846,0.3043671-0.7774811,0.122551c-0.2483521-0.1806793-0.3035126-0.5287704-0.1225433-0.7774734 c1.5636292-2.1500397,4.0207825-3.2152786,6.4171295-2.7791824c1.7470703,0.3182831,3.2465668,1.3799896,4.2226563,2.9898148 c0.9628296,1.5880737,1.3000336,3.5232391,0.9492645,5.4493713 C204.4976196,124.1471558,204.2633972,124.3352585,203.9994965,124.3352585z"></path> </g> <g> <g> <path class="st10" d="M192.3325348,121.6309509c-0.4768524,2.6021729,1.0566254,5.0671692,3.4290161,5.499588 c2.3613892,0.4308701,4.6685181-1.3335037,5.1462097-3.9411087c0.0872345-0.4878769,0.1076508-0.9796982,0.0572205-1.4481506 c-0.3518372,0.5284195-0.9898071,0.8186569-1.6476135,0.7012634c-0.8931122-0.162674-1.4781647-1.0174942-1.3162842-1.9050827 c0.1618347-0.8875885,1.0119934-1.4790115,1.8995819-1.3171234c0.0329742,0.0047379,0.0605316,0.0086899,0.0920258,0.0245132 c-0.6205902-0.8037491-1.4895325-1.3677597-2.5140076-1.5550156 C195.1062775,117.2573395,192.8047333,119.0225677,192.3325348,121.6309509z"></path> </g> </g> <g> <path class="st3" d="M180.7041473,119.5369263c-0.6746979,3.7054062-3.6730652,5.0677338-6.9567871,4.4698105 c-3.2837219-0.5979156-5.6094208-2.9297028-4.9347229-6.6351089s3.8836975-6.2245102,7.1674042-5.6265259 C179.2638397,112.3430252,181.3788452,115.8315125,180.7041473,119.5369263z"></path> </g> <g> <path class="st10" d="M168.8132019,117.9282227c-0.0329132,0-0.0666046-0.0030365-0.100296-0.0089645 c-0.3024597-0.0551682-0.5029907-0.3449097-0.4478302-0.6473694c0.7285309-4.0012207,4.2316437-6.7260132,7.8146362-6.0743408 c2.3947296,0.4360962,4.320282,2.2994995,5.0257721,4.8631744c0.0815125,0.2962418-0.0926666,0.6027222-0.3891907,0.6843109 c-0.2964478,0.0809402-0.6027222-0.0929565-0.6842346-0.3891983c-0.5907898-2.1473541-2.1816101-3.7044907-4.1517487-4.0631714 c-2.9751129-0.5434647-5.9013519,1.781044-6.5201111,5.1786957 C169.3113098,117.7401276,169.0770264,117.9282227,168.8132019,117.9282227z"></path> </g> <g> <g> <path class="st10" d="M169.0037079,117.3827133c-0.4721222,2.6084595,1.0621948,5.0679474,3.4290161,5.4995956 c2.3668823,0.4316483,4.6740112-1.3326569,5.1462097-3.9411163c0.092804-0.4870911,0.1068573-0.9742584,0.0619354-1.4418564 c-0.3510437,0.5229034-0.9890137,0.8131409-1.6522675,0.6949005c-0.8876648-0.1618271-1.4727325-1.016716-1.3108368-1.9043045 c0.1618958-0.8875198,1.0064697-1.4797211,1.8995667-1.3170471c0.0267029,0.0094604,0.0597534,0.014267,0.0865326,0.0236588 c-0.6159363-0.7973862-1.4894562-1.367691-2.5140228-1.5550156 C171.78302,113.0099564,169.4813995,114.7751083,169.0037079,117.3827133z"></path> </g> </g> <g> <g> <path class="st5" d="M222.4384003,135.1219025c-2.1148682,1.9924622-5.2593689,2.9441833-8.0476685,2.3040924 c-0.0055695,0-0.0055695,0-0.0055695,0c-0.5899506-0.1335602-1.163147-0.345047-1.7030029-0.6288605l2.0592041-16.4235458 c0.7902527-1.307869,2.1316071-2.2763367,3.6231232-2.6101532c0.2170563-0.050148,0.439621-0.0890656,0.6566925-0.1113892 c0.0055695,0.0055771,0.0055695,0,0.0111542,0c1.3022919-0.1279907,2.6435547,0.194809,3.734375,0.9183197 c0.1613922,0.1057358,0.317215,0.2225647,0.4619446,0.3394623c0.0890656,0.072403,0.1724854,0.1447372,0.2559814,0.2282257 c1.6974945,1.5527496,2.4265747,4.0404968,2.515564,6.3835068 C226.1338348,129.0389404,224.9928894,132.7064972,222.4384003,135.1219025z"></path> </g> </g> <g> <g> <path class="st10" d="M180.1534119,130.3420715c0.0271912,0.7285309,0.2732849,3.7378998,2.5519409,5.4016266 c0.9792786,0.7208252,2.3388519,1.1880035,4.2187195,1.1178589c2.8196411-0.1052399,4.3555298-1.3321686,5.1774292-2.7384949 c1.1941528-2.0272064,0.9207153-4.4284973,0.9207153-4.4284973s-0.0167389,0.0006409-0.0554504,0.0076294 c-0.6426239,0.0907745-6.7045441,0.9186096-12.8139954,0.4728241 C180.152771,130.1750183,180.1494598,130.2364044,180.1534119,130.3420715z"></path> </g> <g> <path class="st0" d="M182.7053528,135.7436981c0.9792786,0.7208252,2.3388519,1.1880035,4.2187195,1.1178589 c2.8196411-0.1052399,4.3555298-1.3321686,5.1774292-2.7384949c-1.0345917-0.4124298-2.2015381-0.6417847-3.4323425-0.6403656 C186.2632904,133.4833984,184.1186066,134.3654022,182.7053528,135.7436981z"></path> </g> <g> <path class="st3" d="M180.1534119,130.3420715c1.4128265,1.1446381,3.6116791,1.7141571,6.0843048,1.7109833 c2.8848572-0.0019073,5.4064941-0.7810822,6.7290497-2.3508606c-0.6426239,0.0907745-6.7045441,0.9186096-12.8139954,0.4728241 C180.152771,130.1750183,180.1494598,130.2364044,180.1534119,130.3420715z"></path> </g> </g> <g> <path class="st8" d="M215.4588623,134.7597656c-0.0195618,0-0.0391083-0.0010681-0.0591888-0.0029755 c-0.3057709-0.0326233-0.5272064-0.3065491-0.4948578-0.6122589c0.5290527-4.9933472,3.2096252-9.8164063,7.1703796-12.9017868 c0.2421265-0.1888733,0.5921173-0.1456451,0.7812805,0.0969772c0.1888123,0.2427063,0.1453705,0.5924149-0.0970459,0.7812881 c-3.7273102,2.9033585-6.249939,7.4421158-6.7474976,12.1409225 C215.9814911,134.5475769,215.7401428,134.7597656,215.4588623,134.7597656z"></path> </g> <g> <path class="st8" d="M184.2477264,128.5106659c-0.0736694,0-0.1486664-0.0149689-0.2203674-0.0459137 c-0.8821564-0.3809967-1.7789307-0.8440781-2.3642883-1.644928c-0.6252441-0.8548889-0.8236542-2.2410889,0.0402679-3.1264877 c0.4719849-0.4837112,1.0978699-0.6456757,1.6497345-0.7888489c0.2106323-0.0546722,0.4220428-0.1084213,0.621521-0.182663 c0.932373-0.3472366,1.6383514-1.2820816,1.7171936-2.2734375c0.0247192-0.3065491,0.2899475-0.5320892,0.5989075-0.5108948 c0.3065491,0.024437,0.5351257,0.2927094,0.5108948,0.5989761c-0.1138611,1.4304886-1.0937805,2.7277603-2.4383698,3.2283478 c-0.2440491,0.0910492-0.4916077,0.1551819-0.7307892,0.2171249c-0.4510651,0.1168365-0.8771973,0.2274475-1.1323395,0.4888611 c-0.4152527,0.4255753-0.2912903,1.209549,0.0613861,1.6919098c0.4498138,0.6152954,1.2204285,0.9835129,1.9071198,1.2802429 c0.2824097,0.1219864,0.4123077,0.4494476,0.2902374,0.7315598 C184.6680756,128.3847961,184.4629517,128.5106659,184.2477264,128.5106659z"></path> </g> <g> <g> <path class="st10" d="M176.770874,108.7434235c-1.7520905,0.038147-5.7002716,0.4986801-5.7448273,0.0584183 c-0.1277161-1.2618866,4.0527802-2.7353134,5.9245911-2.6867905c1.5600281,0.0404739,2.6321106,1.1738052,2.5445251,1.9739456 C179.4075775,108.8891449,178.0896149,108.7146759,176.770874,108.7434235z"></path> </g> </g> <g> <path class="st8" d="M209.4931641,105.3803864c-5.1090546,5.0644073-13.0898285,7.0512848-19.9742737,4.9086609 c-1.5081787-0.4675293-3.0276031-1.1687164-3.9848328-2.4264984c-0.9628143-1.2578583-1.1798859-3.1945877-0.1279907-4.380043 c-2.7660522,1.3412781-5.83255,2.1983566-8.8935699,1.9478836c-2.4042664-0.1947327-4.8029327-1.1519699-6.5393372-2.7882156 c0.3227997-0.41745,0.6622772-0.8237381,1.0073242-1.2132874c1.7475586,1.6974869,4.1907959,2.6881332,6.6451263,2.8884506 c3.0609436,0.2503967,6.127533-0.6066055,8.8935089-1.9478836c-1.0518188,1.1854553-0.8347626,3.1221771,0.128067,4.3799667 c0.9572296,1.257782,2.4765778,1.9590454,3.9847565,2.4264984c6.3835907,1.9868774,13.7076569,0.4230347,18.811142-3.851265 L209.4931641,105.3803864z"></path> </g> <g> <path class="st8" d="M214.7247009,120.3680115c-0.4285431-0.1447372-8.5317841-3.0220261-5.2315369-14.9876251 l-0.0500793-0.0557327c0.4007111-0.3338928,0.790329-0.6901016,1.163208-1.0573959 C207.3059692,116.2440872,214.3628998,120.1731949,214.7247009,120.3680115z"></path> </g> <g> <path class="st10" d="M228.5603485,112.9826889c-0.9517365,1.9534683-2.3486633,3.6509476-3.9403381,5.142395 c-0.3673096,0.3506317-0.7457581,0.6845856-1.135376,1.01297c-0.0834961-0.0834885-0.1669159-0.1558228-0.2559814-0.2282257 c-0.1447296-0.1168976-0.3005524-0.2337265-0.4619446-0.3394623c-1.0908203-0.7235107-2.4320831-1.0463104-3.734375-0.9183197 c-0.0055847,0-0.0055847,0.0055771-0.0111542,0c-0.2170715,0.0223236-0.4396362,0.0612411-0.6566925,0.1113892 c-1.1186371,0.2503967-2.1538544,0.8570099-2.9330292,1.6974182c-0.1947327,0.2114792-0.372879,0.4341125-0.5341949,0.6734238 c-0.0557404,0.0778427-0.1058197,0.1558228-0.155899,0.2393112c0,0-0.0055847,0-0.0166626-0.0055771 c-0.3618011-0.1948166-7.4187317-4.1239243-4.1184082-16.1007538c-0.372879,0.3672943-0.7624969,0.7235031-1.163208,1.0573959 c-5.1034851,4.2742996-12.4275513,5.8381424-18.811142,3.851265c-1.5081787-0.467453-3.0275269-1.1687164-3.9847565-2.4264984 c-0.9628296-1.2577896-1.1798859-3.1945114-0.128067-4.3799667c-2.765976,1.3412781-5.8325653,2.1982803-8.8935089,1.9478836 c-3.0610046-0.250473-6.1052704-1.7252426-7.8026886-4.279808c-2.2929993-3.4449768-1.5360718-8.3091431,1.1631317-11.4592285 c0.4396362-0.5231857,0.9405823-1.0017319,1.4915314-1.4135361c3.4171448-2.5768814,8.1811371-2.8829422,12.2160645-1.3858414 c0.5176086,0.1891556,1.0185394,0.4062881,1.5026703,0.6567535c-0.884903-2.2874908-0.2615509-4.9754791,1.2800446-6.8844452 c0.194809-0.2393799,0.4006958-0.4674606,0.6233368-0.6790085c1.9812927-1.9144745,4.8641663-2.7214737,7.6134644-2.5545654 c3.9014282,0.2393799,7.635788,2.4042511,9.7840729,5.665657c2.3930817-2.8440247,6.8342896-3.4616547,10.2069397-1.8978043 c3.3726501,1.5694199,5.6711731,4.9532318,6.5449219,8.5651932c0.8793945,3.6174698,0.4730988,7.4353256-0.4618835,11.0306854 c3.0220184-0.3896179,6.0440369,1.6695862,7.2684174,4.4578781 C230.280014,106.9330673,229.8959656,110.244545,228.5603485,112.9826889z"></path> </g> <g> <path class="st11" d="M196.0125275,107.0361938c-1.4068298,0-2.7237396-0.3203278-3.8300171-0.9546204 c-2.3865204-1.3691101-3.5683746-4.259964-2.6903229-6.5815048c0.5584412-1.4769592,1.935379-2.5886765,3.4808655-2.9329453 c-1.6030426-1.5351715-2.6340942-3.0968933-3.1387024-4.7477646c-0.7837677-2.5650177-0.109848-5.2963791,1.6769257-6.7967224 c2.2813416-1.9160995,5.7023773-1.4171371,7.9035645,0.0660477c1.7445984,1.1755676,2.980835,2.8612518,3.9971313,4.6496429 c0.1772308-1.1786041,0.4687958-2.1957397,0.8899841-3.1216125c0.7943573-1.7470703,2.0671844-3.0894775,3.584137-3.7802811 c2.51091-1.1424408,5.8520508-0.3880615,7.9453735,1.7948914c1.8209534,1.8992844,2.7666779,4.7425995,2.5951843,7.8005753 c-0.1337128,2.3772736-0.8842773,4.8624039-2.3617401,7.8203583c-0.1369629,0.274765-0.470993,0.3875732-0.7465363,0.2491989 c-0.2749786-0.1372452-0.3866425-0.471489-0.2491913-0.7464676c1.4073792-2.8180313,2.1212921-5.164856,2.2460327-7.3855972 c0.1543427-2.7509308-0.6790771-5.2904434-2.2870789-6.9679413c-1.7772217-1.8525314-4.5870667-2.5055389-6.680954-1.5519104 c-1.272049,0.5793457-2.348938,1.7256012-3.0321198,3.2280655c-0.5688171,1.2502975-0.8774872,2.7071991-0.9714966,4.5844498 c-0.0125122,0.2526627-0.1937561,0.46492-0.44104,0.5168304c-0.2456665,0.0541077-0.4983978-0.0690079-0.6122589-0.295105 c-1.1174469-2.2286606-2.4356842-4.4825287-4.4977264-5.872261c-1.8549805-1.2505798-4.7058716-1.6986847-6.5654602-0.1366806 c-1.4269409,1.1981735-1.9728851,3.5088348-1.328064,5.6189651c0.5369568,1.7573853,1.7742615,3.4278183,3.7824707,5.1072922 c0.1866913,0.1562424,0.2503204,0.4157562,0.1568146,0.6405106c-0.0937347,0.2252502-0.3223114,0.3646851-0.5649414,0.3404617 c-1.5750732-0.138588-3.1865234,0.8483887-3.7398071,2.3115082c-0.6785889,1.7938309,0.3097992,4.1365585,2.2028046,5.2224884 c1.6832123,0.9649429,3.973465,1.070961,6.2822876,0.2902374c2.1367645-0.7228699,4.0457916-2.0528412,5.8917542-3.3387451 c0.2527313-0.1760864,0.5991974-0.1132965,0.7747955,0.1383057c0.1758118,0.2522354,0.1138611,0.5992584-0.138382,0.7747879 c-1.9100952,1.3307495-3.8851624,2.7066345-6.1716614,3.480011 C198.237854,106.8454819,197.098175,107.0361938,196.0125275,107.0361938z"></path> </g> <g> <path class="st11" d="M179.3777008,101.2518005c-1.9949188,0-3.9466248-0.6394501-5.4363708-1.8389587 c-2.2745056-1.8304901-3.3357086-4.8705292-2.6408081-7.5646591c0.7369232-2.8563843,3.4316254-4.9705429,6.2675934-4.8863449 c0.3073425,0.0076218,0.5503235,0.262825,0.5424042,0.5701599c-0.0076141,0.307045-0.2624817,0.5606232-0.5701599,0.5423965 c-2.2840271-0.0472488-4.5610046,1.7229156-5.1620941,4.0520172c-0.5785675,2.2425003,0.3513336,4.8822479,2.2609253,6.4195328 c1.8323975,1.4750595,4.4806213,1.9721069,6.9111481,1.2986832c0.2967377-0.0817947,0.6027374,0.0916138,0.6850891,0.3877792 c0.082077,0.2962418-0.0916138,0.6030807-0.3877869,0.6850815 C181.0366974,101.1422501,180.2035675,101.2518005,179.3777008,101.2518005z"></path> </g> <g> <path class="st11" d="M221.4803009,115.833847c-0.1179504,0-0.236969-0.0372238-0.3377533-0.1144257 c-0.2440491-0.1866913-0.2908173-0.5359039-0.104126-0.780159c0.932373-1.2196426,1.8965302-2.4805374,2.5593719-3.8653946 c0.5010681-1.0470123,1.0383301-2.6394653,0.7518921-4.2783966c-0.2407227-1.3772278-1.079361-2.6620636-2.2432709-3.4370651 c-0.2559814-0.1704407-0.3252716-0.5160599-0.1549072-0.7718277c0.1703796-0.2564697,0.5157776-0.3249817,0.771759-0.1548996 c1.4128265,0.9408493,2.4305267,2.5003891,2.7226715,4.1719513c0.2668457,1.5269012-0.0250092,3.2389374-0.8442993,4.9506912 c-0.7122803,1.4888992-1.7120361,2.7965546-2.6789398,4.0610504 C221.8132019,115.7585526,221.6477051,115.833847,221.4803009,115.833847z"></path> </g> <g> <g> <path class="st10" d="M199.4722595,112.8770218c1.6261444,0.6533661,5.1585693,2.4760132,5.3554993,2.079689 c0.5643005-1.1358719-2.828476-3.9883041-4.5973053-4.6026764c-1.4741364-0.5120316-2.8768616,0.1706467-3.0769806,0.9503098 C196.9534454,112.0840073,198.2482452,112.3853378,199.4722595,112.8770218z"></path> </g> </g> <g> <path class="st8" d="M176.5735168,145.2346191c-0.0750122,0-0.1510925-0.0151825-0.2241974-0.0475311 c-11.0479889-4.8678436-15.0037994-13.7638092-12.8262787-28.8445358 c0.7445526-5.1518555,2.8240356-10.0088196,6.0135345-14.045639c0.190506-0.240799,0.5407715-0.2817612,0.7818451-0.0915451 c0.2410126,0.1904984,0.2820435,0.5404968,0.0915375,0.7817841c-3.0682831,3.883049-5.0686493,8.5562897-5.7852325,13.5146103 c-2.093811,14.5018692,1.6604004,23.034584,12.1735535,27.6667862c0.2812653,0.1239624,0.4086914,0.4524841,0.28479,0.7337494 C176.9911804,145.1104584,176.7873993,145.2346191,176.5735168,145.2346191z"></path> </g> </g> <g> <path class="st3" d="M203.0595703,191.9115143c-0.1279755,0.5732727-0.2615509,1.1242218-0.4007111,1.6529083 c-2.2372742-0.1001587-4.4690399-0.317276-6.6840515-0.6511688c-11.7041168-1.7698822-22.8738861-6.8788757-31.8564606-14.5814056 l0.8681641-1.4414368c1.8088074,1.5694275,3.7121887,3.0331726,5.7045746,4.3799591 C180.246933,187.7207031,191.5558472,191.4606628,203.0595703,191.9115143z"></path> </g> <g> <g> <g> <path class="st5" d="M219.1429443,121.1805878l-5.0068512,16.9501343 c-0.9844971,4.2527466-3.4682159,7.8842773-6.8834534,10.3373413c3.114975,4.9584503,5.226944,10.2440948,6.863266,15.6456451 c8.2300262-4.7010651,14.2651672-12.6495514,16.4701691-22.1750946l3.76474-17.5245285L219.1429443,121.1805878z"></path> </g> <g> <path class="st7" d="M217.7189026,164.3737793c-0.9405823,0.5398712-1.9089813,1.0406647-2.8996277,1.5026855 c-0.5064545,0.244812-1.0240631,0.4786224-1.5471802,0.690094c-1.82547,0.7791748-3.7176971,1.4247742-5.6711578,1.9367218 l-2.4989014,0.6511841l-2.4765778,0.6455994c-5.4151154,1.4191895-10.9527893-1.8254852-12.3663788-7.2350159 c-1.1965485-4.5803528,0.9349823-9.2442017,4.891983-11.4258118c0.723587-0.4062958,1.508255-0.7235718,2.3486633-0.9406433 l4.9754944-1.3022766c1.3356934-0.345047,2.6157227-0.8180847,3.8234253-1.4080353 c0.5064545-0.2393036,1.0017395-0.5008698,1.4803619-0.784668c0.5844269-0.3395386,1.1576233-0.7124176,1.703064-1.1075439 C213.2220154,151.5510406,215.7542572,157.8900452,217.7189026,164.3737793z"></path> </g> </g> <g> <path class="st3" d="M214.8192749,165.8764648c-0.5064545,0.244812-1.0240631,0.4786224-1.5471802,0.690094 c-1.2410431-6.6952209-3.6119537-13.1566467-6.9734497-19.0782776c0.5064545-0.2393036,1.0017395-0.5008698,1.4803619-0.784668 C211.1516571,152.6641693,213.5225677,159.1533356,214.8192749,165.8764648z"></path> </g> <g> <g> <path class="st5" d="M244.1954041,112.0357666c0,0-0.9218445,0.3867188-2.1306915,0.8935928 c-1.2146912,0.5105438-2.7210999,1.1401825-3.8960419,1.6296768c-0.8550873,0.3567734-1.5663147,1.0059738-2.005249,1.8215179 l-2.2951813,10.1720581l-15.1653442-3.4218826l1.4785919-6.5531006 c-0.9724274-1.4488525-3.2558136-4.5078201-5.7737274-5.5307465c-0.7091675-0.2899551-1.2610321-0.834259-1.556427-1.5406723 c-0.296524-0.7015457-0.2966614-1.4761887-0.0125122-2.1817551c0.2899628-0.7091751,0.8342743-1.2610397,1.5358887-1.5575638 c0.7015991-0.2964478,1.4773254-0.3013229,2.1817474-0.0124969c1.554657,0.6406479,3.1069183,1.6906281,4.6161652,3.1305847 c0.1633759,0.1618195,0.3644714,0.2672119,0.588028,0.3176422c0.6133881,0.1383743,1.2399902-0.1800461,1.4951935-0.7571335 c0.3021088-0.6964493,0.4175873-1.4300613,0.4372253-1.6055145l-0.8638611-9.6604538 c-0.0632782-0.693985,0.1483307-1.3658524,0.5926208-1.8953323c0.4442902-0.5294724,1.0682831-0.8584213,1.7563934-0.9180374 c1.4186249-0.1296844,2.6800232,0.9245377,2.8144989,2.3442154l0.2935638,9.2555084 c0.7177887-2.3618774,2.2483673-8.1621552,3.0887756-10.9561691c0.2343597-0.7067719,0.7512665-1.2697983,1.4184723-1.5690002 c0.6614227-0.2956085,1.4265289-0.2978668,2.0945282-0.0021896c1.2054443,0.5268631,1.8157959,1.963913,1.3927612,3.2628098 l-3.533844,10.5836411l4.5812073-8.6031189c0.3556519-0.5794144,0.9291992-0.9948196,1.5996552-1.1533203 c0.6752014-0.1575165,1.3696747-0.0457687,1.9612427,0.3225174c1.2106018,0.7479477,1.5892792,2.3476715,0.8450623,3.5641403 c-1.4569092,2.4699402-3.598175,6.1348038-4.6390533,7.9789963l5.0943756-2.1340027 c0.63591-0.2713089,1.3418274-0.2769623,1.981842-0.0125732c0.6410828,0.2595825,1.1387024,0.7566299,1.4052124,1.3915634 C246.1343231,109.9544525,245.5154877,111.4790268,244.1954041,112.0357666z"></path> </g> </g> <g> <g> <g> <path class="st8" d="M214.134903,138.6895752c-0.0521393,0-0.1053925-0.0076294-0.1578674-0.0231018 c-0.2948303-0.0870209-0.4633026-0.3967438-0.3760681-0.6913605l5.0033875-16.9353714l0.9785767-4.3490982 c-0.9361267-1.3676987-3.0788879-4.1903839-5.3852386-5.1292572c-0.8505859-0.3483734-1.5114288-1.0027237-1.8619995-1.8429947 c-0.3494873-0.8299561-0.3546448-1.7552643-0.0138397-2.6033707c0.3451233-0.8429489,0.9956665-1.5030289,1.832901-1.8619919 c0.846756-0.3562775,1.7734833-0.3611526,2.6131744-0.0141296c0.2842407,0.1174011,0.4195709,0.4426651,0.3021851,0.7266159 c-0.1168976,0.2842331-0.4424591,0.4204178-0.7266846,0.3021774c-0.5635986-0.2328796-1.1861725-0.2293472-1.7535706,0.009819 c-0.5635986,0.2415695-1.0041351,0.6883316-1.2367401,1.2560196c-0.2290649,0.5706558-0.2263794,1.1951294,0.0092468,1.7546997 c0.2364197,0.5668411,0.6820526,1.0075989,1.2560272,1.2426682c2.7074127,1.1022491,5.1139984,4.3795471,6.023056,5.7374191 c0.0847626,0.1266479,0.1138611,0.2828903,0.0803833,0.4315796l-1.0353546,4.6026001 c-0.0038147,0.0166016-0.0135651,0.0497284-0.0187225,0.0657654l-4.9993591,16.922081 C214.5969238,138.532486,214.3751221,138.6895752,214.134903,138.6895752z"></path> </g> </g> </g> <g> <path class="st8" d="M236.6637421,111.0700531c-0.1325989,0-0.2660217-0.0472565-0.3723297-0.1431732 c-2.7084656-2.441124-6.352356-3.9129333-9.996521-4.0382385c-0.3073273-0.0105972-0.5478363-0.2682037-0.5372467-0.5752487 c0.0105896-0.3074036,0.2617035-0.5525055,0.5753174-0.5372467c3.9022675,0.1342087,7.8035431,1.7100601,10.7036438,4.324028 c0.2282257,0.2057571,0.2467346,0.5576553,0.0407562,0.7859497 C236.9675293,111.0081024,236.8159485,111.0700531,236.6637421,111.0700531z"></path> </g> <g> <path class="st8" d="M225.8725586,115.0878754c-0.2084351,0-0.4084015-0.1176758-0.5032501-0.3184891 c-0.1315308-0.2780151-0.0128021-0.609787,0.2649384-0.7410278l6.8948364-3.2610474 c0.2780151-0.1312332,0.6100616-0.0127106,0.7410889,0.2649536c0.1315155,0.2780151,0.0127106,0.6098557-0.2650146,0.7410965 l-6.8947601,3.2609711C226.0334778,115.0707855,225.9524536,115.0878754,225.8725586,115.0878754z"></path> </g> </g> </g> <g> <g> <g> <path class="st12" d="M74.4765549,137.9895935l-9.2993011-6.2172394l-12.4347572,18.5986633l9.299511,6.2175903 c0.1596336,0.1066589,2.5278625,1.6854095,5.9859085,3.776535c3.4684982-6.6343994,7.1006699-13.1051483,10.5724106-19.7362366 C77.1989441,139.7671661,75.8127441,138.881485,74.4765549,137.9895935z"></path> </g> <g> <path class="st1" d="M111.3673325,127.5646591l-1.5939407-11.0720749l-22.1443634,3.1881485l1.5940704,11.0721512 c0.6362839,4.4195251,1.259201,10.9426727,1.3949585,16.474411c-3.5276871-1.6730499-7.8403397-4.02948-12.0177307-6.5983887 c-3.4717407,6.6310883-7.1039124,13.1018372-10.5724106,19.7362366c2.2516861,1.361618,4.96418,2.9398804,7.8339157,4.47229 c9.2785339,4.9540863,15.9865341,7.2832489,21.434845,7.2832489c2.1792145,0,4.1575394-0.3726654,6.0171432-1.0994263 c4.3449249-1.6979065,7.4668884-5.2868347,8.5654678-9.8465729 C114.4572296,150.4752045,111.9050751,131.299881,111.3673325,127.5646591z"></path> </g> </g> <g> <g> <path class="st1" d="M139.6074524,146.4411316c0.6179047-9.3675232-7.8505249-15.8143921-16.2159653-20.8856659 c-6.0162811-3.6469955-12.0023346-6.429985-12.2542114-6.5466766l-10.1499481-4.7023392l-9.4046173,20.2999649 l10.1499481,4.7023468c5.58181,2.5858459,11.6959991,6.1562042,14.8244629,8.5558014 c-1.4124756,4.8510895-4.5643921,13.620285-7.7447052,21.7976227c7.3670197,1.1303558,14.7339706,2.978363,22.1009903,4.9035797 C134.8351746,164.3482208,139.2519379,151.8315277,139.6074524,146.4411316z"></path> </g> <g> <path class="st12" d="M108.8124161,169.6621857c-0.5870438,1.5095978-1.1750717,2.9989166-1.7532883,4.4397125 l-4.1662292,10.3812103l20.7616348,8.3336639l4.1669998-10.3807831c0.9236908-2.3011322,1.9882202-4.9947052,3.0918732-7.870224 C123.5463867,172.6405487,116.1794357,170.7925415,108.8124161,169.6621857z"></path> </g> </g> <g> <path class="st13" d="M103.3412857,171.3862305c-0.2472916,0-0.4728241-0.1657867-0.5383759-0.4160461 c-0.0774155-0.2973022,0.1005859-0.6013794,0.3981705-0.6791382c4.2381287-1.1065674,7.7790298-5.2328186,9.0209274-10.5123138 c1.1484451-4.8830872,0.4820786-9.9623413-0.1622467-14.8744659c-0.0399094-0.3046417,0.1747437-0.5839996,0.4796753-0.6241913 c0.3024597-0.0391388,0.583725,0.1747437,0.6241989,0.479599c0.6266708,4.7776489,1.3370361,10.1930389,0.1421204,15.2739868 c-1.33535,5.6759644-5.1912079,10.1250763-9.8236923,11.3346252 C103.4350204,171.3805084,103.387764,171.3862305,103.3412857,171.3862305z"></path> </g> <g> <path class="st13" d="M92.6490097,152.8458405c-0.2296295,0-0.4442902-0.1431885-0.5250244-0.3719635l-1.8516846-5.2619171 c-0.1019211-0.2899475,0.050293-0.6078796,0.3402481-0.7097931c0.2908096-0.1029968,0.6078796,0.0502777,0.7098083,0.3402405 l1.8516769,5.2618408c0.1019287,0.2899475-0.050293,0.607666-0.3402405,0.7097931 C92.7726898,152.8355255,92.7104645,152.8458405,92.6490097,152.8458405z"></path> </g> <g> <path class="st13" d="M116.9580383,148.0204468c-0.2483521,0-0.4747314-0.1674042-0.5388718-0.4190674 c-0.0760727-0.2978058,0.1038361-0.6008301,0.4017029-0.6766815l5.0414581-1.2866821 c0.2980728-0.0766296,0.6008148,0.1040497,0.6766739,0.4016266c0.0760727,0.2978668-0.1038284,0.6008148-0.4016953,0.6766815 l-5.0414581,1.2866821C117.0499344,148.0150146,117.0034637,148.0204468,116.9580383,148.0204468z"></path> </g> <g> <g> <path class="st0" d="M103.0557098,183.8218994l20.6056747,8.7874756c0,0,7.6067581,2.8943176,6.312233,15.6585236 l-32.3094254-8.9114532L103.0557098,183.8218994z"></path> </g> <g> <polygon class="st3" points="97.6641922,199.3564453 99.472641,194.1456146 130.1033173,206.3896484 129.9736176,208.2678986 "></polygon> </g> </g> <g> <path class="st3" d="M122.5176697,204.1569672c0.9244614-2.7354584,2.9746323-5.0269775,5.6092987-6.2180023 c0.3234253-0.146286,0.6082153,0.3323975,0.2821808,0.4798126c-2.5029297,1.1315613-4.4737778,3.2787018-5.3544388,5.8846893 C122.9405594,204.641098,122.4025345,204.4975739,122.5176697,204.1569672z"></path> </g> <g> <path class="st3" d="M105.4338989,198.4783936c0.0148315-3.6713715-1.2521362-7.302536-3.5682373-10.1548157 c-0.2238388-0.2756958,0.1655731-0.6738586,0.3911743-0.3960571c2.412941,2.9715881,3.7492065,6.7238312,3.7337341,10.5543976 C105.98909,198.8396912,105.4324875,198.8376312,105.4338989,198.4783936z"></path> </g> <g> <g> <path class="st0" d="M65.6714096,131.9634094l-12.1471329,18.8218079c0,0-4.1396675,7.007431-16.5007515,3.5719147 l14.2494965-30.3358459L65.6714096,131.9634094z"></path> </g> <g> <polygon class="st3" points="51.2730217,124.021286 56.1027145,126.6853333 38.8527412,154.8027649 37.0235252,154.357132 "></polygon> </g> </g> <g> <path class="st3" d="M50.8237839,131.8275909c3.6159897,0.6357727,7.4091949,0.0014038,10.6121788-1.798645 c0.3095932-0.1739655,0.6361351,0.2771759,0.3241425,0.4524841c-3.3369789,1.8754272-7.2612152,2.5575409-11.0339355,1.8941345 C50.3738441,132.3136292,50.4699783,131.7653656,50.8237839,131.8275909z"></path> </g> <g> <path class="st3" d="M42.3366432,147.7042236c2.5395851,1.3739777,4.4511642,3.7823181,5.1793327,6.5805054 c0.0894241,0.3434906-0.430584,0.5432434-0.5206451,0.1969299c-0.6917915-2.6583252-2.4744606-4.963974-4.8939018-6.2729797 C41.7879524,148.039093,42.0204811,147.5331421,42.3366432,147.7042236z"></path> </g> </g> <g> <g> <path class="st14" d="M63.0626717,70.1151123c-2.7159615,3.7344437-5.7991524,7.1960907-8.3425522,11.0529404 c-2.5434036,3.851265-4.5692635,8.2033997-4.8196678,12.8115921c-0.2504692,4.6136932,1.5249252,9.5112686,5.3038635,12.1659927 c3.7788696,2.6491394,9.6114349,2.3820038,12.5388718-1.1909714c2.5322418,4.2519836,7.1905136,7.1571045,12.1214981,7.5689697 c4.9309158,0.4062881,10.0066299-1.6974869,13.2011414-5.4708405c3.6453629,3.5674591,9.0327225,5.264946,14.063797,4.4356232 c2.3541718-0.3839645,4.669426-1.3301163,6.355751-3.0164413c1.6919022-1.6863251,2.6658096-4.1740646,2.1871872-6.5115662 c1.7253189,3.4673004,6.7619781,4.3187943,10.062294,2.2929993c3.3002548-2.0202103,4.8919907-6.105278,4.8753281-9.9732208 c-0.0111694-3.8234329-1.358017-7.5133057-2.816124-11.0529327c-3.2724915,4.3298874-7.7693558,6.4948273-12.9952393,7.5021439 c-0.6734314,0.1335678-1.3524399,0.2448883-2.0425339,0.3339615c-1.11306,0.150238-2.248436,0.2615585-3.4115753,0.3339615 h-0.0055771c-0.172554,0.0110855-0.345047,0.0166626-0.5176086,0.0277557c-0.1335678,0-0.2671432,0.0111618-0.3951263,0.0167389 c-0.3617935,0.0110931-0.7235107,0.0222549-1.0908127,0.0222549c-1.2911911,0.0167389-2.5990601-0.0334167-3.9236679-0.1391525 c-2.0257874-0.1669083-3.9848328-0.4619522-5.8603897-0.890419h-0.0055771 c-6.9066315-1.5750732-12.7225266-4.3632965-16.2009125-9.9732895c-0.9461517-1.5249252-1.7196655-3.2613297-2.2985153-5.2370453 c-2.6880646-0.1669769-5.3093719-1.7475662-6.8342972-4.0237579c-0.8598328-1.2860413-1.397644-2.7479553-1.6532669-4.2716141 c-1.7568893-0.0127792-3.5159683-0.0341873-5.2771683-0.064415 C64.5712814,67.9674759,63.8336487,69.0531235,63.0626717,70.1151123z"></path> </g> <g> <path class="st15" d="M79.2754517,107.7608337c-0.5641556,0-1.1081772-0.0707092-1.6280441-0.2133865 c-3.0661774-0.8413315-4.7871094-3.9821548-5.132515-6.7217102c-0.2856445-2.2660904,0.1393661-4.5444031,0.6755447-6.6615982 c-1.8136749,1.5231628-3.8324738,3.0394669-6.1450424,3.9118042c-2.6006165,0.9812546-6.3342094,1.229393-9.0111809-1.0168533 c-1.7277908-1.4492798-2.7579918-3.8444901-2.7558022-6.4070358c0.0018387-2.0832901,0.6434784-4.3211288,1.9062805-6.6519165 c1.6432381-3.0332565,4.0034142-5.6860657,6.8252563-7.671463c0.2513885-0.176651,0.5984192-0.116333,0.7752838,0.1347733 c0.1769485,0.2516708,0.1166153,0.5986938-0.1347656,0.7755661c-2.6822014,1.8870697-4.9251976,4.4083633-6.4869232,7.2913055 c-1.1739426,2.1667099-1.7701683,4.2265472-1.7720757,6.1227951c-0.0019073,2.2370605,0.8796806,4.3129349,2.3579865,5.5532074 c1.9033203,1.5959854,5.0055809,1.9218216,7.9030037,0.8282547c2.7237244-1.0274429,4.9857254-2.9864883,7.1733398-4.8811188 c0.1853485-0.1606216,0.4541092-0.180748,0.6608582-0.0502853c0.2073822,0.1307449,0.304924,0.3815613,0.2402267,0.617691 c-0.6774597,2.4770126-1.4456787,5.2844467-1.1076202,7.9657974c0.2992096,2.3723221,1.7516632,5.0819321,4.3226852,5.7874222 c2.1908646,0.601387,4.5297852-0.4586945,6.107048-1.4533005c3.4892654-2.200119,6.213562-5.5368881,7.6711731-9.3962784 c0.0853271-0.2258148,0.3119888-0.372879,0.5484009-0.358963c0.2413635,0.01194,0.4476089,0.1782074,0.5098419,0.4119415 c0.4565125,1.7057495,0.9282761,3.469696,1.7948914,5.0096664c0.9356232,1.6628799,2.2454681,2.8286285,3.6881714,3.2822418 c1.7285614,0.543457,3.8020401-0.0002823,5.0409622-1.3236847c1.2388611-1.3231964,1.6459198-3.4276047,0.9893799-5.1170425 c-0.1113968-0.286705,0.0307236-0.6090088,0.3171463-0.7204666c0.2864227-0.1121674,0.6087265,0.0304413,0.7203979,0.3171463 c0.818512,2.1071625,0.3304977,4.6311417-1.2144165,6.2812347c-1.5440674,1.6498032-4.0303268,2.3035965-6.1872177,1.6248016 c-1.7135925-0.5388718-3.2495346-1.8878479-4.324585-3.7985077c-0.6655121-1.1829834-1.1057129-2.4519958-1.4753418-3.724617 c-1.6353989,3.449852-4.2495804,6.414093-7.4853363,8.4538727 C82.7535629,107.1531677,80.9282227,107.7608337,79.2754517,107.7608337z"></path> </g> </g> <g> <g> <path class="st16" d="M126.0892944,83.2665253c0.7266998,1.1019669,1.8204651,1.9599609,3.1703491,2.3716202l3.4163818,1.0424271 c2.7116547,0.8271255,5.5830078-0.4332733,6.8679962-2.8512344c0.1737518-0.3261871,0.3156586-0.6754761,0.427475-1.0368347 l0.8271942-2.711731c0.2134552-0.0394821,0.4226074-0.106369,0.6210938-0.2053986 c0.403244-0.1934738,0.7589569-0.5089951,1.0093689-0.9205093c0.9132996-1.4913712,1.4038544-3.1974792,1.4198914-4.9468079 c0.0126343-1.3431168-1.0690613-2.4452896-2.4121704-2.4580078c-0.2763214-0.0012665-0.5456543,0.0413971-0.7915344,0.1253815 c-0.1924744-0.8598328-0.4986725-1.6903534-0.920639-2.4687424c-0.6445465-1.1882858-2.1304779-1.640419-3.3068848-0.9920654 c-0.0110321,0.0017014-0.0211334,0.0089035-0.0303802,0.0216904c-0.0541077-0.0928879-0.1201477-0.1895142-0.184433-0.2750549 c-0.7918091-1.0861435-2.3115082-1.3244629-3.4030914-0.5318069c-0.076355,0.0515671-0.1455078,0.1132278-0.2145844,0.1748962 c-0.7267456-0.5329361-1.7351379-0.6380463-2.5797729-0.1718597c-1.1836243,0.6381836-1.8768311,4.0893784-1.8768311,4.0893784 c-1.8090134,0.3540955-3.4380569,1.417778-3.973526,3.4804382 C122.9322205,79.698082,126.0892944,83.2665253,126.0892944,83.2665253z"></path> </g> <g> <path class="st17" d="M137.6390076,83.4063797c-0.3059845,0-0.5549011-0.2472839-0.5565948-0.5538406 c-0.0070648-1.3828812-0.6309814-2.7544556-1.6690216-3.6686096c-1.2348328-1.0872726-2.9642487-1.516098-4.5350189-1.8679962 c-0.0947876-0.018219-0.1893616-0.0394135-0.2839508-0.0635681c-0.2943268-0.0752945-0.4739532-0.3730927-0.403244-0.6684875 c0.0709229-0.2959595,0.3663177-0.4799576,0.6622772-0.4139175c0.0831299,0.0185089,0.1671143,0.0372238,0.2521667,0.0562973 c0.6385956,0.1197968,1.2676697,0.0632858,1.7940369-0.1652832c0.6190338-0.2684784,1.0997772-0.7994385,1.2546692-1.3856354 c0.1592865-0.6016617-0.038269-1.2731171-0.4801636-1.6337051c-0.425293-0.3468094-1.0739288-0.4465485-1.6459961-0.5342789 l-3.483551-0.5334244c-0.3038025-0.0464783-0.5125275-0.3304977-0.4657593-0.6343002 c0.0464783-0.3040771,0.3331757-0.5149231,0.6342316-0.4657593l3.4838257,0.5334244 c0.6775208,0.1038361,1.5204773,0.2331696,2.180542,0.7717514c0.7817841,0.6375504,1.1245117,1.7552643,0.8529816,2.7808075 c-0.2162781,0.8177338-0.7961884,1.5345993-1.5796661,1.9702072c0.892746,0.3274612,1.762619,0.7709732,2.4979248,1.4185486 c1.2731781,1.1209641,2.038147,2.8025589,2.0468445,4.4984894c0.0016174,0.3074036-0.2462311,0.557663-0.5538483,0.5592804 C137.6409149,83.4063797,137.6397858,83.4063797,137.6390076,83.4063797z"></path> </g> <g> <path class="st17" d="M134.1290436,73.0970154c-0.0627289,0-0.1268616-0.0108795-0.1893768-0.0334091 c-0.2888947-0.1046143-0.4386292-0.4236679-0.3339539-0.7127762c0.2602997-0.7196198,0.2885437-1.5212479,0.0793152-2.2571869 c-0.2092133-0.7361526-0.6546326-1.4032974-1.2543945-1.8780289c-0.2409973-0.1910629-0.2818298-0.5410614-0.0910339-0.7818527 c0.1913452-0.2415695,0.5413361-0.2817612,0.7818451-0.0909805c0.7815704,0.6187592,1.361969,1.4877777,1.6342621,2.4465637 c0.272583,0.958725,0.2359161,2.0030518-0.1032562,2.9403C134.5703735,72.9560242,134.3567657,73.0970154,134.1290436,73.0970154z "></path> </g> <g> <path class="st17" d="M134.6239166,77.560257c-0.6299286,0-1.2317963-0.2239075-1.6589966-0.6543579 c-0.2166443-0.2182541-0.2154999-0.5704422,0.0026855-0.7870026c0.2179718-0.2168503,0.5706635-0.2152252,0.7870026,0.0026779 c0.3646851,0.3674469,1.0619965,0.4280472,1.6209869,0.1413422c0.6562653-0.3353729,1.0774536-1.0261078,1.3150024-1.5465393 c0.8679504-1.9000626,0.6249695-4.3110275-0.6049042-5.9996796c-0.1807556-0.2486343-0.1260834-0.5967255,0.1222534-0.7777557 c0.248642-0.1804047,0.5968018-0.1258011,0.7777557,0.1223373c1.4815674,2.0345535,1.7631073,4.8284225,0.7174377,7.1176147 c-0.4524841,0.9905701-1.0650177,1.688652-1.8210297,2.0753784 C135.4796448,77.4599609,135.0453796,77.560257,134.6239166,77.560257z"></path> </g> <g> <path class="st17" d="M137.1881409,78.6755066c-0.8839874,0-1.7320862-0.3826294-2.2141724-1.0535812 c-0.1791229-0.2496948-0.1220551-0.5975723,0.1274414-0.7769089c0.2497559-0.1793442,0.5972748-0.1222687,0.776886,0.1274261 c0.3720398,0.5185242,1.1930237,0.7304993,1.9098969,0.4942932c0.6649475-0.2198105,1.2842712-0.782341,1.7432556-1.5839691 c0.6619873-1.1557922,0.8853302-2.5664368,0.6122589-3.8705521c-0.0628052-0.3008347,0.1298828-0.595665,0.4309998-0.6587372 c0.3008423-0.0603256,0.5959473,0.1301804,0.6586761,0.4310074c0.3277435,1.5671692,0.0595398,3.2626038-0.7361603,4.6515579 c-0.5953674,1.0402298-1.4337311,1.7815399-2.3598175,2.0878067 C137.8264771,78.6263428,137.5050201,78.6755066,137.1881409,78.6755066z"></path> </g> <g> <path class="st17" d="M140.6543121,80.5475998c-0.0108795,0-0.0220337-0.0002823-0.0331268-0.0011292 c-0.6674194-0.0388489-1.3109741-0.3426514-1.7658539-0.8328552c-0.4545898-0.4908371-0.7087402-1.1555023-0.6973114-1.8237076 c0.0051575-0.3073959,0.2481537-0.543251,0.5660706-0.5470581c0.3073273,0.0054321,0.5521545,0.258728,0.5469971,0.5660629 c-0.0065002,0.3839645,0.1394348,0.7660294,0.4005585,1.0478592c0.2611542,0.2818298,0.6310577,0.4562302,1.01474,0.4788284 c0.3067627,0.0179443,0.5410614,0.2812653,0.5231171,0.5880356 C141.1921234,80.3193054,140.9467468,80.5475998,140.6543121,80.5475998z"></path> </g> <g> <path class="st18" d="M122.9955826,118.379158c-1.8643265,0-3.7389603-0.330574-5.5482559-1.0000458l-10.6597137-3.9430237 c-4.3730469-1.6175919-6.6067886-6.4739227-4.9891891-10.8470383l0,0 c1.6175919-4.3730392,6.4739914-6.606781,10.8470306-4.9891815l9.514946,3.5195694l2.0852661-19.1922073l16.7860565,1.8237076 l-2.2170105,20.4054184c-0.5342712,4.915451-3.2516479,9.2265472-7.4558105,11.8281555 C128.7952271,117.570816,125.9087601,118.3787308,122.9955826,118.379158z M123.3050995,101.5428162h0.0041733H123.3050995z"></path> </g> </g> <g> <g> <g> <g> <path class="st4" d="M85.8044662,127.7442169c0,0,0.2514572,10.1497345,1.3150711,16.5624084 c0,0,24.6702576,9.4830933,47.6520691-12.7391815l-13.3590088-14.0979156L85.8044662,127.7442169z"></path> </g> <g> <path class="st0" d="M114.6109314,96.7388306c-2.3541718-2.0202103-10.429657-3.0220184-16.9467392-2.1036987 c-5.5988312,0.7958374-9.6448364,2.8606186-11.6984634,5.9883804 c-3.8018265,5.794281-3.3018723,18.2008514-1.3847198,28.4696121 c12.8177414-1.2030487,25.9154663-4.831398,36.8315887-11.6235962l-2.7667465-3.4389038 C118.3842926,109.1997986,117.499382,99.2154846,114.6109314,96.7388306z"></path> </g> </g> </g> <g> <path class="st6" d="M91.9946594,145.6442413c-0.2733536,0-0.5116806-0.2016602-0.5505295-0.4801788l-2.3175125-16.709549 c-0.042099-0.3043671,0.1703644-0.58535,0.4750137-0.6278c0.3005524-0.042099,0.5850677,0.1701584,0.6277237,0.47509 l2.3175201,16.709549c0.0420914,0.3043671-0.170372,0.5853424-0.4750214,0.6277313 C92.0460052,145.6426086,92.0202255,145.6442413,91.9946594,145.6442413z"></path> </g> <g> <path class="st6" d="M101.7653656,146.6918182c-0.2502594,0-0.4776993-0.1698151-0.5399323-0.4238739l-4.5977325-18.7499008 c-0.0731049-0.298645,0.1095581-0.6000366,0.4079132-0.6731491c0.2983627-0.0738831,0.6000443,0.1089935,0.6731491,0.4079132 l4.5976563,18.7498932c0.0731125,0.298645-0.1094818,0.5999756-0.4078369,0.6730804 C101.8540115,146.6866608,101.8094406,146.6918182,101.7653656,146.6918182z"></path> </g> <g> <path class="st6" d="M111.9149628,144.7692108c-0.2239075,0-0.4348297-0.1361847-0.5198669-0.3578949l-7.0915604-18.5275421 c-0.1097641-0.2869873,0.0339813-0.6087265,0.3209686-0.7187729c0.286911-0.1098404,0.6089401,0.0336914,0.7187729,0.3208923 l7.0915527,18.5276108c0.1097641,0.286911-0.0339813,0.6087189-0.3209686,0.7187653 C112.0483856,144.7572784,111.9812851,144.7692108,111.9149628,144.7692108z"></path> </g> <g> <path class="st6" d="M121.0111847,141.4304657c-0.2092209,0-0.4097519-0.118454-0.5043335-0.3208923l-8.63237-18.4618378 c-0.1301727-0.2782288-0.0101013-0.6095047,0.268486-0.7396851c0.2777405-0.1296158,0.6095047-0.0103149,0.7396851,0.2684784 l8.6323624,18.461853c0.1301804,0.2782288,0.0101013,0.6094971-0.2684784,0.7396851 C121.1704636,141.4136658,121.0902939,141.4304657,121.0111847,141.4304657z"></path> </g> <g> <path class="st6" d="M129.5438843,135.676239c-0.1785583,0-0.3535919-0.0856018-0.4611664-0.2443237l-10.639801-15.7000427 c-0.1725616-0.2543488-0.1060257-0.6005325,0.1483307-0.7728119c0.254921-0.172554,0.6006012-0.1054535,0.7728806,0.1483383 l10.6397934,15.7000351c0.1725616,0.254364,0.105957,0.6005402-0.1483917,0.7728882 C129.7598877,135.6452332,129.6511841,135.676239,129.5438843,135.676239z"></path> </g> </g> <g> <path class="st12" d="M133.2759857,65.9688721c-0.6400146,7.9085083-2.5878906,13.4349442-5.481926,17.2583847 c-3.2724915,4.3298874-7.7693558,6.4948273-12.9952393,7.5021439c-0.6734314,0.1335678-1.3524399,0.2448883-2.0425339,0.3339615 c-1.11306,0.150238-2.248436,0.2615585-3.4115753,0.3339615h-0.0055771 c-0.172554,0.0110855-0.345047,0.0166626-0.5176086,0.0277557c-0.1335678,0-0.2671432,0.0111618-0.3951263,0.0167389 c-0.3617935,0.0110931-0.7235107,0.0222549-1.0908127,0.0222549c-1.2911911,0.0167389-2.5990601-0.0334167-3.9236679-0.1391525 c-2.0257874-0.1669083-3.9848328-0.4619522-5.8603897-0.890419h-0.0055771 c-6.9066315-1.5750732-12.7225266-4.3632965-16.2009125-9.9732895c-0.9461517-1.5249252-1.7196655-3.2613297-2.2985153-5.2370453 c-1.0741348-3.6731262-1.4636841-8.1867371-1.0128937-13.7465782c0.1836472-2.2873535,0.6288528-4.4857063,1.2967758-6.5671577 c0.862587-2.6658859,2.0870285-5.1480484,3.6174698-7.3908997c1.7419815-2.5545616,3.8791733-4.7974167,6.3112488-6.6339798 c5.2092133-3.9403381,11.765213-6.0552025,18.7053223-5.4875145c2.7103806,0.222641,5.3038712,0.8348274,7.7192764,1.7864838 c4.4968719,1.7642365,8.3926392,4.6916771,11.3756638,8.3982162c1.8088074,2.2484322,3.2780762,4.7807465,4.3466339,7.5133057 C132.953186,57.0475426,133.6432953,61.4275093,133.2759857,65.9688721z"></path> </g> <g> <path class="st19" d="M97.7805252,71.9319c-0.1418304,2.8367462-2.6138229,5.0471115-5.5212784,4.9369888 c-2.9073792-0.1101913-5.1493149-2.499115-5.0074081-5.3358612c0.1418991-2.8368149,2.6138229-5.0471802,5.5212784-4.9369888 C95.6805649,66.7062302,97.9224319,69.0951538,97.7805252,71.9319z"></path> </g> <g> <g> <path class="st12" d="M110.1671066,95.9598083c0,0-1.7114639,1.8697586-7.2480011,1.4159317 c-0.3191986-0.0272598-0.6263123-0.0574265-0.9200134-0.095993l-0.0163193-0.0036697 c-3.5137711-0.4371567-5.0990219-1.5698471-5.6939011-2.1395874c-0.2106323-0.2022247-0.2956009-0.3301468-0.2956009-0.3301468 l1.0212936-2.8722687l0.5363998-1.4987259c1.8773193,0.4287491,3.8368607,0.7220993,5.8599701,0.8873138 c1.328064,0.1091995,2.6359329,0.1567383,3.9235992,0.14254c0.3658829-0.002121,0.7275314-0.0108795,1.0903854-0.0250092 c0.132225-0.004097,0.2657242-0.0135574,0.3979492-0.0175858c0.1739044-0.0116577,0.3465347-0.017868,0.5205002-0.0295944 l-0.0012665,0.0054398l0.5415497,2.9780807L110.1671066,95.9598083z"></path> </g> <g> <path class="st19" d="M110.1671066,95.9598083c-7.8270645,1.0268097-12.6161423-5.5244598-12.6161423-5.5244598 l0.0108795,0.0024719c1.8772507,0.4287567,3.8314209,0.7208939,5.8490906,0.8848419 c2.0231094,0.1652145,4.009697,0.190712,5.9257965,0.074585l0.0053711,0.0012054L110.1671066,95.9598083z"></path> </g> </g> <g> <g> <path class="st10" d="M99.552536,54.6308594c-1.7308273,0.2748375-5.5804062,1.2652016-5.6840973,0.8350372 c-0.2972946-1.2329941,3.6454391-3.2584343,5.5066605-3.4635544c1.5511246-0.1710052,2.7666779,0.8069267,2.788147,1.6115227 C102.1846466,54.4185295,100.8552399,54.4239693,99.552536,54.6308594z"></path> </g> </g> <g> <path class="st3" d="M116.3666916,65.3022995c-0.1672668,3.7625504,2.4524918,5.7583237,5.7869263,5.906517 c3.3344498,0.1481934,6.120903-1.6072159,6.2881546-5.3698349c0.1671906-3.7626266-2.4002914-6.9329071-5.7347336-7.0811691 C119.3726044,58.609623,116.5338821,61.5396767,116.3666916,65.3022995z"></path> </g> <g> <path class="st10" d="M128.4421997,66.3954391c-0.0084839,0-0.0168762-0.0002823-0.0252838-0.0005646 c-0.3070526-0.0135651-0.5448761-0.2736435-0.5312424-0.5806885c0.0749435-1.6837845-0.4332047-3.2893028-1.4304886-4.520813 c-0.9816055-1.2120132-2.3216095-1.9150391-3.7730103-1.9794579c-2.0079193-0.091259-3.8979568,1.075058-4.9523163,3.0367851 c-0.1459274,0.2703896-0.4837036,0.3725967-0.7535934,0.2269478c-0.2709579-0.1453667-0.3723145-0.4829254-0.2268829-0.7535973 c1.2584229-2.3424492,3.5544662-3.7264595,5.9822388-3.6221313c1.7739868,0.0788269,3.4036636,0.927784,4.5884781,2.390831 c1.1687927,1.4432755,1.7645264,3.3150864,1.6775665,5.2708817 C128.984314,66.1622696,128.7380829,66.3954391,128.4421997,66.3954391z"></path> </g> <g> <g> <path class="st10" d="M125.5054321,64.7739563c-0.12043,2.6480789-2.1638794,4.7042465-4.5674286,4.5980835 s-4.2599564-2.3399734-4.1394577-4.98806c0.0179443-0.4954987,0.1126633-0.9735527,0.260643-1.4193954 c0.2257462,0.5878906,0.7830505,1.0129662,1.4560547,1.0453873c0.9013672,0.0397644,1.6621017-0.6633263,1.7018661-1.5646935 c0.0398407-0.9012909-0.6516724-1.666687-1.5586166-1.7069473c-0.028183,0.0033188-0.0614548,0.0005646-0.0896378,0.0038147 c0.7779694-0.6402321,1.7566757-1.0017395,2.7971191-0.9562492 C123.7695313,59.8921318,125.6203537,62.1253777,125.5054321,64.7739563z"></path> </g> </g> <g> <g> <path class="st12" d="M82.9924469,58.5390587l-1.6418304,16.4680519c-0.59552,0.1558914-1.1965485,0.2337952-1.7976456,0.2393036 c-0.0055008,0-0.0055008,0-0.0110855-0.0055084c-0.1669846,0-0.3283844-0.0055771-0.4953613-0.0167389 c-2.6880646-0.1669769-5.3093719-1.7475662-6.8342972-4.0237579c-1.9534683-2.9218597-2.2484283-6.7508774-1.3356934-10.1513596 c0.2003174-0.7401772,0.4674606-1.4860039,0.8125-2.187191c0.7569199-1.5471764,1.8644028-2.8996124,3.3559799-3.6397896 c0.172493-0.0834923,0.3506317-0.1613998,0.5342789-0.2281494c1.1909714-0.4508591,2.5378342-0.4731102,3.7511139-0.0834885 c0.2448196,0.0723267,0.4841232,0.1669083,0.7123489,0.2782288c1.285614,0.6121864,2.3207626,1.7252426,2.8383713,3.0442696 C82.9200439,58.3331604,82.9590302,58.4333191,82.9924469,58.5390587z"></path> </g> </g> <g> <path class="st17" d="M79.2200012,72.4189911c-0.0222473,0-0.0445709-0.0013351-0.0668182-0.0037384 c-0.3052139-0.0367279-0.5231171-0.3136215-0.4867401-0.6188278c0.5611877-4.6917496-0.8872375-9.6780396-3.8745804-13.33881 c-0.194313-0.2380371-0.1587143-0.5888786,0.0793228-0.783123c0.238327-0.1937485,0.5888824-0.158432,0.7831955,0.0793228 c3.1745911,3.8901176,4.7137833,9.1891785,4.1175613,14.1746979 C79.7379684,72.2114029,79.4977341,72.4189911,79.2200012,72.4189911z"></path> </g> <g> <path class="st17" d="M111.0371857,73.2752914c-0.2630463,0-0.4969864-0.1872482-0.5467148-0.455162 c-0.0560074-0.3024597,0.1437454-0.5926971,0.4459152-0.6486359c0.7355957-0.1361847,1.568512-0.3231506,2.1441116-0.8231735 c0.4516373-0.3918839,0.7470245-1.1285248,0.4369431-1.6358948c-0.1907883-0.3114243-0.5812531-0.5141449-0.9948883-0.7285919 c-0.2195282-0.1138611-0.4467621-0.2315369-0.6643829-0.3744354c-1.1995163-0.7875671-1.8658066-2.2704697-1.6582108-3.6900787 c0.0439987-0.3043594,0.329361-0.5163345,0.6309738-0.4701385c0.3040771,0.044281,0.5147171,0.326889,0.4701385,0.6309738 c-0.1437378,0.9842911,0.3364334,2.0528488,1.1679459,2.5987778c0.1782761,0.1171112,0.3723068,0.216568,0.5657806,0.316864 c0.5060196,0.2621994,1.0797195,0.5597839,1.4321823,1.1358719c0.6453857,1.0554886,0.1431732,2.3628616-0.6568298,3.0571976 c-0.7494965,0.6508255-1.7267303,0.9024963-2.6710434,1.077179 C111.1048508,73.2723312,111.0705948,73.2752914,111.0371857,73.2752914z"></path> </g> <g> <g> <path class="st10" d="M122.6044083,55.6554108c1.6995316,0.4273376,5.4461288,1.7554054,5.5876083,1.3360481 c0.4054413-1.2017746-3.3420715-3.5690117-5.1777191-3.9384308c-1.5298691-0.3078957-2.8273392,0.5582924-2.9200897,1.3578758 C120.0014648,55.2104149,121.3251495,55.3338127,122.6044083,55.6554108z"></path> </g> </g> <g> <g> <path class="st10" d="M113.4892578,76.9059753c-0.2280045,0.6924973-1.2980499,3.5159607-3.9484634,4.4832993 c-1.1405945,0.4213333-2.5764618,0.4935989-4.3632965-0.094574c-2.6801529-0.8822937-3.8160172-2.486618-4.2161636-4.0655746 c-0.5857697-2.2787399,0.3421478-4.5102921,0.3421478-4.5102921s0.0158997,0.0052338,0.0511398,0.0226746 c0.5923462,0.2653046,6.1877136,2.7399826,12.1815338,4.0041275 C113.5361557,76.745636,113.522316,76.8055267,113.4892578,76.9059753z"></path> </g> <g> <path class="st0" d="M109.5407944,81.3892746c-1.1405945,0.4213333-2.5764618,0.4935989-4.3632965-0.094574 c-2.6801529-0.8822937-3.8160172-2.486618-4.2161636-4.0655746c1.1083908-0.1097641,2.2932129-0.0068512,3.4754181,0.3354416 C106.7482681,78.231781,108.5646286,79.6734238,109.5407944,81.3892746z"></path> </g> <g> <path class="st3" d="M113.4892578,76.9059753c-1.6745987,0.7084579-3.9451447,0.6465836-6.3201523-0.0414658 c-2.7714081-0.8009949-4.9785233-2.2482224-5.8144836-4.1230011c0.5923462,0.2653046,6.1877136,2.7399826,12.1815338,4.0041275 C113.5361557,76.745636,113.522316,76.8055267,113.4892578,76.9059753z"></path> </g> </g> <g> <path class="st0" d="M82.9951324,59.0976334c-0.2021637,0-0.3970413-0.1100464-0.4956436-0.3021736 c-1.9671707-3.8289452-4.7806091-3.614006-4.8977203-3.6028481c-0.3114243,0.0285378-0.5769424-0.1945953-0.6073837-0.4986763 c-0.030159-0.3043633,0.188591-0.5760956,0.4929581-0.6084442c0.1478348-0.0166016,3.6707993-0.3361511,6.0023651,4.2012596 c0.1404953,0.2733574,0.0326309,0.6089401-0.2407227,0.7494316C83.1676865,59.0777855,83.0807343,59.0976334,82.9951324,59.0976334 z"></path> </g> <g> <path class="st14" d="M114.537262,49.6009827c1.630661,2.3820038,5.1257172,3.0331116,7.758194,1.8421478 c2.3652649-1.0741386,4.0181732-3.3559113,4.7639313-5.8603935c1.8088074,2.2484322,3.2780762,4.7807465,4.3466339,7.5133057 c2.2873535-3.6230469,2.7103729-8.2868958,1.4636841-12.3886337c-1.2800446-4.224144-4.2129822-7.8471947-7.8416901-10.3571873 c-3.6230469-2.5100632-7.9140167-3.9570084-12.2773132-4.6193466c-6.0997009-0.9182472-12.410881-0.3227978-18.2322769,1.7030659 c0.2671356-1.0797176,0.4118652-2.1705227,0.2503891-3.2669106c-0.272644-1.8143139-1.6695786-3.6008701-3.5061493-3.6565285 c-1.6863251-0.0555897-3.1055756,1.3357658-3.8456879,2.8606911c-1.0296326,2.1259537-1.1242828,4.6860256-0.2560501,6.8843784 c-0.7791672-1.096386-1.5750046-2.2094421-2.6547165-3.0108604c-1.085228-0.795908-2.5211487-1.2355366-3.7956085-0.8069973 c-1.6640778,0.5565281-2.5934753,2.5044117-2.3485947,4.2408886c0.2281494,1.6306629,1.313446,3.044199,2.6435623,4.023756 c-1.3356934,0.6400185-2.5322418,1.6640778-3.3893204,2.8550415c-1.9256363,2.6769714-2.593483,6.0217934-3.4394684,9.2052116 c-1.035141,3.895771-2.4042511,7.6969566-4.0905762,11.3534889c-1.3931961,3.0259743-3.0018234,5.9494591-4.8044128,8.7482796 c1.7612,0.0302277,3.5202789,0.0516357,5.2771683,0.064415c-0.3252029-1.9379959-0.1934662-3.9759369,0.3175735-5.8797455 c0.2003174-0.7401772,0.4674606-1.4860039,0.8125-2.187191c0.7569199-1.5471764,1.8644028-2.8996124,3.3559799-3.6397896 c0.172493-0.0834923,0.3506317-0.1613998,0.5342789-0.2281494c1.1909714-0.4508591,2.5378342-0.4731102,3.7511139-0.0834885 l3.1166,3.5395584c7.1627502-3.3893204,12.950737-9.5947609,15.8113632-16.9800797 c-0.4229584,1.5026741-0.8459167,3.0331116-0.7791672,4.5914459c0.0612335,1.5583344,0.6901627,3.1723289,1.9812927,4.0404968 c1.7141571,1.1576271,4.0460739,0.7124176,5.9438782-0.1168289c3.3003235-1.4359245,6.1497803-3.906929,8.0364304-6.9790993 C113.301651,45.2766762,113.2571487,47.7254295,114.537262,49.6009827z"></path> </g> <g> <path class="st15" d="M85.4734726,45.6563377c-3.0837555,0.0002823-6.015152-1.1885643-7.8907776-3.3020172 c-0.2040634-0.2298431-0.182869-0.5815315,0.0470505-0.7855949c0.2299118-0.2043457,0.5815277-0.1828728,0.7855911,0.0469742 c2.1169815,2.3851814,5.7776794,3.4414444,9.3223953,2.6903191c3.8775406-0.8206291,6.8363495-3.4256248,8.6358948-5.4661827 c2.2547226-2.557457,3.9460602-5.5436668,5.7673035-8.8997879c0.1236801-0.227726,0.3864365-0.3402462,0.6383896-0.2706699 c0.2496948,0.0692921,0.4184418,0.3021736,0.4067841,0.5611897l-0.320961,7.117897 c-0.0453491,1.0032883-0.0923843,2.040554,0.1473389,2.9968758c0.2489166,0.9940376,0.8029709,1.7644463,1.5204086,2.1141548 c0.7358704,0.3584709,1.7231216,0.3002663,2.6422195-0.1559601c0.8375092-0.416317,1.5386276-1.0742073,2.3337555-1.9340401 c2.5224304-2.7266998,4.6083298-5.8118668,6.2000046-9.1698952c0.1244583-0.2630424,0.4304504-0.3855934,0.702179-0.2812653 c0.2717361,0.104044,0.4170914,0.3997192,0.3342438,0.6785831c-0.7733765,2.5938358-1.0043564,5.3841076-0.6679916,8.0689907 c0.2201691,1.7541313,0.7014008,2.8797607,1.5147552,3.5428047c1.0718002,0.8731117,2.8612518,0.8470497,4.1615677-0.0597534 c1.1685028-0.8161125,1.9952011-2.2400284,2.326973-4.0094223c0.3073273-1.6386452,0.1812515-3.3612747,0.0589828-5.0270462 c-0.0222549-0.3065529,0.2078781-0.57341,0.5144272-0.5959435c0.3043671-0.0192833,0.5734177,0.2078781,0.5959396,0.514431 c0.1271439,1.736969,0.2587357,3.5327072-0.0752945,5.3140373c-0.3861542,2.0573654-1.3747482,3.73246-2.78405,4.7164688 c-1.7210083,1.2008553-4.0349197,1.2043839-5.5018539,0.0100288c-1.3782883-1.1233673-1.7535629-2.9732132-1.9158173-4.2670212 c-0.1989059-1.5872269-0.2100677-3.2096291-0.0382843-4.8104858c-1.3215714,2.1924934-2.8637314,4.2449875-4.6086121,6.1314888 c-0.7600937,0.8217583-1.6076355,1.6541138-2.655777,2.1748314c-1.2258606,0.6089401-2.5811234,0.668766-3.6251678,0.1597748 c-1.0136032-0.4940147-1.7834473-1.5307884-2.1125336-2.844162c-0.2791443-1.114399-0.2261047-2.2848091-0.1794128-3.3177681 l0.2133179-4.7335625c-1.4492035,2.5783653-2.9136658,4.9194717-4.7580032,7.011097 c-1.9104462,2.1669235-5.0646286,4.9355049-9.2403183,5.8194962C87.1376953,45.5710106,86.299614,45.6563377,85.4734726,45.6563377 z"></path> </g> <g> <g> <path class="st12" d="M62.7879066,62.3862305c-0.5453682,1.2021255-1.4915161,2.2206039-2.7603912,2.8383713l-3.2113228,1.5638428 c-2.548912,1.2410507-5.5820923,0.4452133-7.2294273-1.7419815c-0.222641-0.2949677-0.41745-0.6177673-0.5843582-0.9572372 l-1.2411118-2.5489845c-0.2170639-0.0055809-0.434124-0.0389175-0.6455994-0.1057396 c-0.4285431-0.1279907-0.8292465-0.3839684-1.1408882-0.751339c-1.1353798-1.3301125-1.8867149-2.93853-2.1761017-4.6637726 c-0.2225723-1.3246078,0.6734238-2.5823936,1.9980316-2.8050346c0.2726479-0.0444984,0.5453682-0.0444984,0.8014183,0 c0.0555916-0.8792572,0.2281494-1.7474937,0.5231171-2.5823212c0.4507866-1.274456,1.8477249-1.9534645,3.1110191-1.497097 c0.0111618,0,0.0223198,0.0055809,0.0334091,0.0166702c0.0389938-0.1001587,0.0890732-0.2058983,0.1391525-0.3004761 c0.6121864-1.1966171,2.075943-1.6696548,3.2780685-1.0574684c0.0834923,0.03899,0.1614037,0.0890694,0.2393112,0.1391487 c0.6344376-0.6400185,1.6139221-0.901577,2.5211525-0.5731964c1.2688789,0.4452095,2.4932518,3.7454567,2.4932518,3.7454567 c1.842144,0.0668221,3.6175385,0.8626595,4.4690361,2.816124C65.3480453,58.367981,62.7879066,62.3862305,62.7879066,62.3862305z"></path> </g> <g> <path class="st17" d="M51.3144112,64.3377838c-0.2701759,0-0.5070839-0.1970673-0.5492516-0.4723282 c-0.2567558-1.6767197,0.2359161-3.4571991,1.3179665-4.7635117c0.6253242-0.7546577,1.4150162-1.3285637,2.2449722-1.7916412 c-0.84161-0.3076134-1.5266914-0.9250298-1.8682785-1.6986847c-0.4283295-0.9709435-0.26474-2.1283569,0.4076347-2.8802605 c0.569313-0.6361313,1.3809662-0.8951492,2.0332069-1.1030235l3.3571777-1.0720901 c0.2912979-0.0937309,0.6054802,0.0676689,0.6994934,0.3609428c0.0934525,0.2926369-0.0682335,0.6059723-0.3608704,0.6994209 l-3.3574638,1.0720863c-0.5508766,0.1758118-1.1750717,0.3747177-1.5419464,0.7848206 c-0.3798752,0.4250069-0.4700699,1.1196251-0.2187576,1.6886559c0.2448921,0.5546188,0.8027611,1.0040665,1.4563408,1.1725998 c0.5551872,0.1440239,1.1858788,0.1007957,1.7975731-0.1176758c0.0810165-0.0320663,0.16119-0.0635719,0.2402267-0.0948639 c0.2840233-0.1108932,0.6027985,0.0244408,0.7187767,0.3052139c0.1160507,0.280983-0.014904,0.6030045-0.2939758,0.7233658 c-0.0891457,0.0385666-0.179409,0.0744476-0.2698975,0.1070824c-1.4959602,0.5929756-3.1367989,1.286747-4.1870651,2.5544205 c-0.8823662,1.0650253-1.2842751,2.5171967-1.0750542,3.8846779c0.0467606,0.3038025-0.1619644,0.5877457-0.4657631,0.6342239 C51.3709183,64.3355942,51.3423843,64.3377838,51.3144112,64.3377838z"></path> </g> <g> <path class="st17" d="M53.1699066,53.6058121c-0.1962242,0-0.3864403-0.1037636-0.4878006-0.2877655 c-0.4815865-0.8725433-0.6809883-1.8981552-0.5616875-2.887886c0.1192322-0.9896584,0.55653-1.9386292,1.2312279-2.671814 c0.2079506-0.2261009,0.5598488-0.2410049,0.7864456-0.0326347c0.2261047,0.2081604,0.2407913,0.5603447,0.0326309,0.7864456 c-0.5179596,0.5628128-0.8538284,1.2914047-0.9454384,2.0511513c-0.0915375,0.7598114,0.0617371,1.5471039,0.4312935,2.2172127 c0.1486855,0.2690468,0.0508537,0.607666-0.2184753,0.7559967C53.3530617,53.5835609,53.2606697,53.6058121,53.1699066,53.6058121 z"></path> </g> <g> <path class="st17" d="M53.0426941,58.1179352c-0.2872009,0-0.5804749-0.0447807-0.8673897-0.1385841 c-0.8068581-0.2633247-1.5212555-0.8570786-2.1231995-1.7647285c-1.3910751-2.0973473-1.5500717-4.9006844-0.4046631-7.1421242 c0.1399956-0.2736359,0.4755783-0.382061,0.7489357-0.2423477c0.2737083,0.1399269,0.3821297,0.4752274,0.2424164,0.7489357 c-0.9508095,1.8600883-0.8135605,4.2794571,0.341095,6.0203094c0.3160172,0.4769249,0.8399124,1.0929985,1.5408173,1.3217812 c0.5975647,0.1950912,1.2757988,0.0263481,1.578537-0.393219c0.1799049-0.2489166,0.5274963-0.3051414,0.7769775-0.1258011 c0.2491989,0.1796227,0.305706,0.5274277,0.1258049,0.7769051C54.5685387,57.7804451,53.8288536,58.1179352,53.0426941,58.1179352 z"></path> </g> <g> <path class="st17" d="M50.6309547,59.6253433c-0.1609077,0-0.3231544-0.0127831-0.4848366-0.0394135 c-0.962532-0.1573029-1.9062805-0.7584-2.6571236-1.6929626c-1.0030785-1.2473335-1.5332603-2.8799782-1.4547081-4.4789963 c0.0149689-0.3067665,0.2696037-0.5380249,0.5834389-0.5285606c0.3068314,0.0152588,0.5435257,0.2763939,0.528553,0.5834427 c-0.0657616,1.3302574,0.3755646,2.6886978,1.2101059,3.7268105c0.5788536,0.7201157,1.2780609,1.1788177,1.9693565,1.2919006 c0.7454071,0.1214218,1.5225945-0.2160683,1.8092995-0.7867241c0.138092-0.2742043,0.4726143-0.3848152,0.7473145-0.2472916 c0.2744827,0.1380196,0.3853798,0.4725456,0.2472878,0.7473106C52.6921349,59.0712891,51.6888428,59.625061,50.6309547,59.6253433 z"></path> </g> <g> <path class="st17" d="M47.8897743,61.9855194c-0.2559776,0-0.4861069-0.1775017-0.5431786-0.4375076 c-0.0655479-0.3003387,0.1244583-0.5970726,0.4247246-0.6628342c0.3752823-0.082077,0.7130547-0.3122025,0.9272194-0.6312599 c0.2138786-0.3193359,0.2983589-0.7193375,0.2317543-1.0975876c-0.0532608-0.3027382,0.1489639-0.5913506,0.4517021-0.6446075 c0.3043633-0.0545998,0.5912819,0.1491814,0.6445427,0.4516373c0.1160469,0.6584511-0.0312233,1.3546944-0.4035378,1.9101639 c-0.3725243,0.5556793-0.9606285,0.9562492-1.6136436,1.0992126 C47.9691696,61.9814224,47.9291878,61.9855194,47.8897743,61.9855194z"></path> </g> <g> <g> <path class="st18" d="M98.8100891,106.9743195c-2.6206055,3.856636-7.8714142,4.8586578-11.7280502,2.2379761 l-3.8219604-2.597084c-11.9967575-8.1514893-22.1021309-19.1395111-29.2234879-31.77565l-4.1447563-7.355011 l14.7098885-8.2899361l4.1449661,7.3550148c5.8491669,10.379158,14.1494064,19.4041138,24.0031891,26.099617l3.8222351,2.5972977 C100.4286118,97.8671494,101.4305573,103.1177521,98.8100891,106.9743195L98.8100891,106.9743195z"></path> </g> </g> </g> <g> <path class="st3" d="M106.2710876,62.580883c0.1672592,3.7625542-2.4524994,5.7583275-5.7869339,5.9065132 c-3.3344421,0.1481934-6.1208954-1.6072083-6.2881546-5.3698349c-0.1671906-3.7626228,2.4002991-6.9329033,5.7347336-7.0811653 C103.2651672,55.8882065,106.1038895,58.8182602,106.2710876,62.580883z"></path> </g> <g> <path class="st10" d="M94.1955719,63.6740189c0.0084763,0,0.0168839-0.0002823,0.0252914-0.0005646 c0.307045-0.0135612,0.5448685-0.2736359,0.5312424-0.5806847c-0.0749435-1.6837807,0.433197-3.2893028,1.430481-4.520813 c0.9816055-1.2120132,2.3216171-1.9150391,3.7730103-1.979454c2.0079193-0.0912628,3.8979568,1.0750542,4.9523163,3.0367813 c0.1459274,0.2703896,0.4837036,0.3725967,0.7535934,0.2269478c0.2709579-0.1453629,0.3723145-0.4829254,0.2268829-0.7535973 c-1.2584229-2.3424492-3.5544662-3.7264595-5.9822388-3.6221313c-1.7739792,0.0788269-3.403656,0.927784-4.5884781,2.3908348 c-1.1687851,1.4432716-1.7645187,3.3150826-1.6775665,5.2708778 C93.6534576,63.4408569,93.8996887,63.6740189,94.1955719,63.6740189z"></path> </g> <g> <g> <path class="st10" d="M103.516922,62.0641747c-0.12043,2.6480827-2.163887,4.7042503-4.5674286,4.5980873 c-2.4035492-0.106163-4.259964-2.3399734-4.1394577-4.9880562c0.0179367-0.4955025,0.1126633-0.9735565,0.2606354-1.4193993 c0.2257538,0.5878906,0.7830582,1.0129662,1.4560623,1.0453873c0.9013672,0.0397682,1.6620941-0.6633263,1.7018661-1.5646896 c0.0398331-0.9012947-0.6516724-1.6666908-1.5586243-1.7069511c-0.028183,0.0033188-0.0614471,0.0005646-0.0896301,0.0038147 c0.7779617-0.6402321,1.7566757-1.0017395,2.7971191-0.9562492 C101.7810135,57.182354,103.6318436,59.4155998,103.516922,62.0641747z"></path> </g> </g> </svg> 