<?xml version="1.0" encoding="UTF-8"?> <!-- Generator: Adobe Illustrator 22.0.0, SVG Export Plug-In . SVG Version: 6.00 Build 0) --> <svg xmlns="http://www.w3.org/2000/svg" xmlns:xlink="http://www.w3.org/1999/xlink" id="Слой_1" x="0px" y="0px" viewBox="0 0 300 300" style="enable-background:new 0 0 300 300;" xml:space="preserve"> <style type="text/css"> .st0{fill:#7163A9;} .st1{fill:#EC623C;} .st2{fill:#F7A533;} .st3{fill:#65C8F3;} .st4{fill:#501215;} .st5{fill:#F1872F;} .st6{fill:#F5A793;} .st7{fill:#F18773;} .st8{fill:#FFFFFF;} .st9{fill:#21A3DD;} .st10{fill:#179DD7;} .st11{fill:#E84228;} .st12{fill:#F29589;} .st13{fill:#F7B39F;} .st14{fill:#F29079;} .st15{fill:#B63627;} .st16{fill:#8F1915;} .st17{fill:#5C4F9D;} .st18{fill:#A2BC25;} .st19{fill:#F39A81;} .st20{fill:#F6B09D;} .st21{fill:#6CA32E;} .st22{fill:#7F2D2F;} </style> <g> <g> <path class="st0" d="M10.6444921,208.8341522c-3.4411922-3.9298553-4.2205882-9.9415894-1.8954792-14.6190643l3.8065958,1.8922729 c-1.5536776,3.1255493-1.0122576,7.2999573,1.287364,9.926239L10.6444921,208.8341522z"></path> </g> <g> <path class="st0" d="M53.0403481,182.661377c-0.8834419,0.8998108-1.8944588,1.6740875-3.0085678,2.2802429l-2.0316048-3.7344055 c2.8864021-1.5696106,4.807312-4.9587708,4.6741104-8.2409821l4.2474785-0.1733093 C57.0705986,176.44133,55.5837784,180.0710297,53.0403481,182.661377z"></path> </g> <g> <path class="st1" d="M29.3827972,212.0788727c-1.1545773-0.5068665-2.2371368-1.177536-3.1990528-2.0042114l2.7709579-3.2240295 c2.4914074,2.141922,6.3415508,2.7358093,9.3630505,1.4470673l1.6686096,3.9098358 C36.6280289,213.6408081,32.7068634,213.5380707,29.3827972,212.0788727z"></path> </g> <g> <path class="st2" d="M20.4054623,195.2033081l0.8842449-4.1584015c2.7826481,0.5918274,5.9439983-0.6994629,7.5164661-3.0699463 l3.5423756,2.3503113C29.8095036,194.1525421,24.8984394,196.1582794,20.4054623,195.2033081z"></path> </g> <g> <path class="st3" d="M42.886795,200.3201294c-1.1546631-0.5069275-2.2371368-1.177536-3.1990509-2.0041962l2.7709579-3.2240448 c2.4914207,2.141922,6.3415489,2.735733,9.3630486,1.4470673l1.6686096,3.9097748 C50.1320267,201.8820648,46.2108612,201.7793274,42.886795,200.3201294z"></path> </g> </g> <g> <g> <g> <path class="st4" d="M227.7149506,96.5296326c-0.2867126,0-0.5736389-0.0054779-0.8622437-0.0168762 c-9.4863892-0.3727875-17.5093536-6.9342651-24.5880737-12.7232895 c-7.0504303-5.7662277-15.3468628-11.8846359-24.5717316-11.4141617 c-8.33284,0.4196167-15.2037506,6.0330658-21.8486633,11.4613647 c-6.6983337,5.4720612-13.6246338,11.1303711-22.1306305,11.6197662 c-8.9291763,0.5193558-17.6630554-5.5411148-20.3130035-14.0851669l0.6372681-0.1974258 c2.5198288,8.1237793,11.1433792,14.0978851,19.6373138,13.6166687 c8.2899323-0.4770508,15.1310425-6.0660172,21.7469482-11.4705658 c6.7282104-5.4964676,13.6855621-11.1802063,22.2371521-11.6112976 c9.4650421-0.4727402,17.8810883,5.7193222,25.0278931,11.5640945 c6.997467,5.7228241,14.9287262,12.2091217,24.1915283,12.5733566c8.2241821,0.3241959,15.6305237-4.205246,22.800705-8.5835114 c7.1807251-4.3850632,14.6061401-8.9223175,22.9325867-8.7134933C282.0160522,78.7817383,290.7810669,85.8508759,293,94.9924698 l-0.6483765,0.1576767c-2.1503601-8.8584595-10.6436157-15.7086945-19.7562866-15.933815 c-8.1247253-0.2085266-15.4701843,4.2811661-22.5681152,8.6154404 C243.0209045,92.1103745,235.7836456,96.529335,227.7149506,96.5296326z"></path> </g> </g> <g> <g> <path class="st2" d="M67.4693604,70.7001877c1.292099-3.8514557,1.3770752-8.1203423,0.239296-12.0201683 c-0.3570786-1.2240028-0.822876-2.3862648-1.2733994-3.5103874c-0.375618-0.9371452-0.7303696-1.8222656-1.0202942-2.7258759 c-0.6867447-2.1408348-0.7904282-3.9378204-0.3077545-5.3403969l-3.4083138-1.1727104 c-0.7411079,2.1544991-0.6455383,4.7164116,0.2843018,7.614212c0.3287239,1.024971,0.7241707,2.0115852,1.1065102,2.9654617 c0.4377403,1.0921173,0.8511467,2.1236649,1.1591187,3.1790314c0.9336395,3.2005119,0.8638763,6.7036667-0.1964722,9.864212 L67.4693604,70.7001877z"></path> </g> </g> <g> <g> <path class="st5" d="M73.963768,68.0869064c0.4839859-4.4777031-1.6401749-8.6053543-3.7818298-12.0522461 c-0.2612839-0.4204941-0.5271683-0.8408432-0.7934952-1.2620697c-1.7999878-2.8463593-3.5002289-5.5348282-4.0165863-8.5357246 l-3.5519638,0.6107597c0.6380119,3.709198,2.6126938,6.8316765,4.5224228,9.8514977 c0.2612152,0.4129715,0.5219879,0.8252831,0.7781525,1.2376671c1.8176651,2.9253464,3.626358,6.3728943,3.2599182,9.7627258 L73.963768,68.0869064z"></path> </g> </g> <g> <g> <path class="st2" d="M130.5325317,37.689743c-3.8870392-1.1806717-7.4142303-3.5867386-9.9317932-6.7751236 c-0.7901382-1.000639-1.4669495-2.0541058-2.1215439-3.0730114c-0.5456619-0.8494663-1.0610657-1.6517315-1.6291351-2.4118385 c-1.3458786-1.8009319-2.7498627-2.9273911-4.1724548-3.3474483l1.0209503-3.4568291 c2.1850433,0.6455383,4.2168045,2.2089329,6.0385437,4.6468563c0.6444397,0.8621063,1.2189636,1.756361,1.7743378,2.6210251 c0.6359634,0.9898987,1.2367172,1.9248524,1.9179077,2.7877636c2.0660934,2.6164951,4.9606094,4.5910339,8.150444,5.5598145 L130.5325317,37.689743z"></path> </g> </g> <g> <g> <path class="st5" d="M124.6375656,41.4655075c-3.928688-2.2022133-6.0597305-6.3262787-7.6261978-10.0698204 c-0.1910629-0.4566631-0.3792877-0.9170513-0.5680847-1.3783188c-1.2751541-3.1169987-2.4795685-6.0611229-4.6250839-8.2219048 l2.5572357-2.5397034c2.6520081,2.6706371,4.0508575,6.0900574,5.4037476,9.3970261 c0.1850052,0.45228,0.3697205,0.9037552,0.5571289,1.3516502c1.3293686,3.1772041,3.089386,6.6498871,6.0635376,8.3169632 L124.6375656,41.4655075z"></path> </g> </g> <g> <path class="st3" d="M74.3239822,6.4068727c4.2479858,8.2216129,8.4940033,16.4443207,12.738121,24.6679802 c-8.8426743,4.6044788-17.3712387,9.6982059-25.6247101,15.2902431 C66.371254,33.2546349,70.3535004,19.8323975,74.3239822,6.4068727z"></path> </g> <g> <path class="st0" d="M87.0621033,31.0748539c9.1470642,17.7259731,18.2847061,35.4568481,27.4127808,53.1926117 C97.4975433,70.6671677,79.3201675,58.7160416,61.4373932,46.365097 C69.6908646,40.7730598,78.219429,35.6793327,87.0621033,31.0748539z"></path> </g> <g> <path class="st2" d="M114.3917313,19.09655c-9.3456573,3.4707108-18.4456024,7.454565-27.329628,11.9783039 c-4.2441177-8.2236595-8.4901352-16.4463692-12.738121-24.6679802 C87.57444,10.9738674,100.8325729,15.518796,114.3917313,19.09655z"></path> </g> <g> <path class="st1" d="M114.3917313,19.09655c-0.3249207,21.7252464-1.1367645,43.457798,0.0831528,65.1709137 c-9.1280746-17.7357635-18.2657166-35.4666367-27.4127808-53.1926117 C95.9461288,26.551115,105.0460739,22.5672607,114.3917313,19.09655z"></path> </g> <g> <path class="st4" d="M114.6489258,19.7476406c-18.7115631,7.0958118-36.4308853,16.2335262-53.0621872,27.36339 c-0.421154,0.2845192-0.9104767,0.1821518-1.0863457-0.2303047l0,0c-0.175869-0.4124565,0.0211906-0.9898262,0.4372253-1.280117 c16.4286156-11.3451157,34.0877342-20.4517059,52.8571663-27.2576637 c0.4776306-0.1706085,1.0623779,0.0035801,1.2964096,0.3860817l0,0 C115.3252258,19.111454,115.1248779,19.5695057,114.6489258,19.7476406z"></path> </g> <g> <path class="st4" d="M75.1212082,6.1702847c13.367218,25.5520821,26.5842819,51.1821251,39.6507568,76.8893204 c0.2319107,0.4564438,0.0990067,1.0026093-0.2980194,1.2083664l0,0c-0.3971252,0.2056808-0.9179459-0.0018997-1.1546021-0.4558563 C99.990921,58.2376785,86.7730484,32.6059532,73.6658173,6.9174581c-0.2326584-0.4560781-0.0997467-1.0007858,0.298111-1.2050052 l0,0C74.3617554,5.5082331,74.8838272,5.7166905,75.1212082,6.1702847z"></path> </g> <g> <path class="st2" d="M119.7795486,82.2615814c-0.2305908,0.5354309-0.6491928,0.9557037-1.1453781,1.2443161 c-1.1963882,0.6936188-2.6051025,0.5119019-3.9044342,0.2769928c-0.0916977,0.9113541-0.235199,1.8140106-0.4369354,2.7009583 c-0.1058731,0.4646301-0.2199326,0.9263306-0.3705902,1.3753967c-0.1239243,0.3717575-0.3077545,0.745636-0.6277084,0.9858093 c-0.5054016,0.3811874-1.1764374,0.3588257-1.763382,0.2379761c-0.7228394-0.1496429-1.4128036-0.4336472-2.041832-0.8150558 c-1.1754837-0.7115173-2.3730392-1.8999329-2.5998306-3.3132477c-0.1058044-0.6561356,0.0539169-1.3162155,0.5304565-1.7984543 c0.4999161-0.510582,1.219841-0.7218933,1.9138336-0.7918854c1.3919067-0.1385345,2.8302002-0.042305,4.2166443,0.190773 c0.0582199-1.5789566,0.5384979-3.1396484,1.4027786-4.4674072c0.6468582-0.9882889,1.7430649-1.9716873,2.9875259-1.3411255 c0.5768585,0.2950439,0.9754333,0.829155,1.2400742,1.4081268c0.2883224,0.6418152,0.5106659,1.3564758,0.6692123,2.0446091 C120.0045929,80.8723755,120.0591202,81.6110001,119.7795486,82.2615814z"></path> </g> <g> <path class="st2" d="M130.1466827,90.8763657c-0.0529785,0.5805817-0.3204803,1.1100159-0.7025299,1.5384064 c-0.9219513,1.0307388-2.3175201,1.295311-3.6255493,1.4754181c0.1957474,0.8947678,0.3395386,1.7973557,0.4231262,2.7031555 c0.0435486,0.4744873,0.078476,0.9488373,0.0746765,1.4224472c-0.0024109,0.3918533-0.0611572,0.80439-0.290657,1.1320114 c-0.362114,0.5192108-1.0069962,0.7062607-1.6023941,0.7735519c-0.7335815,0.0821991-1.4776306,0.0264511-2.194046-0.1409454 c-1.3382797-0.3114014-2.8455582-1.0693893-3.499939-2.3424225c-0.304245-0.590889-0.3572159-1.2679138-0.0539932-1.8742905 c0.3167419-0.6405716,0.9355392-1.0649414,1.5734787-1.3469009c1.2801132-0.5637741,2.6772156-0.918808,4.0675125-1.1275558 c-0.4348145-1.5191193-0.4627991-3.1517792-0.0533371-4.6822205c0.3081207-1.1402664,1.0448456-2.4153442,2.4235992-2.2022858 c0.6399841,0.1014175,1.1846237,0.4853821,1.6159363,0.9535904c0.4733887,0.5205917,0.9065247,1.1309891,1.2708282,1.7358322 C129.929306,89.4859161,130.2104645,90.1712036,130.1466827,90.8763657z"></path> </g> <g> <path class="st2" d="M145.2060242,87.9022064c0.294693,0.5029907,0.3852081,1.0891953,0.323761,1.6599197 c-0.1501465,1.374733-1.1312103,2.4019012-2.0902557,3.3093796c0.6797943,0.6138992,1.3218994,1.2642593,1.9168701,1.9523239 c0.311554,0.3605804,0.6158752,0.726059,0.8884125,1.1134567c0.226059,0.3200989,0.4183044,0.689743,0.4221802,1.0897751 c0.0076599,0.6329727-0.4080048,1.1603622-0.8531189,1.5615005c-0.5488129,0.4936295-1.1863861,0.8812485-1.8664093,1.1619644 c-1.2695923,0.5253448-2.9365234,0.7859039-4.2094116,0.1312332c-0.5912476-0.3035202-1.0283203-0.8233871-1.134491-1.4929657 c-0.1150818-0.7052307,0.1412354-1.4103928,0.496048-2.0109177c0.7131195-1.203331,1.6428223-2.3050156,2.6520996-3.2837372 c-1.2374725-0.9824448-2.2102051-2.2940598-2.7676849-3.7770081c-0.4128265-1.1066589-0.5555267-2.5723648,0.6898041-3.2012405 c0.5794983-0.2899246,1.2459259-0.2945328,1.8690338-0.1646957c0.687912,0.1480331,1.39534,0.3924408,2.0435791,0.6723557 C144.2202301,86.8977661,144.8475647,87.2915192,145.2060242,87.9022064z"></path> </g> </g> <g> <g> <path class="st0" d="M261.6861572,111.2954102c-6.2225342,9.5814438-12.4854736,19.2089233-20.2153473,27.6252594 c-7.7306824,8.4106293-17.0718079,15.6233521-27.8927612,19.2921448 c-19.3302917,6.5495605-42.364151,0.1747742-55.5742645-15.3815002c-1.3138123-1.5449829-2.6063538-3.4121857-2.3268738-5.4236298 c0.29599-2.1937408,2.3075714-3.6680603,4.0556793-5.0261383c6.6880951-5.1889343,11.7991486-12.3757858,14.5054321-20.3997574 c2.4029999-7.1127625,3.2073212-15.2914124,8.5817566-20.5328064c6.0225525-5.8731232,16.0290222-5.7813568,23.5713348-2.0646286 c2.7648926,1.3643646,5.2784424,3.1105652,7.6201324,5.0943146c2.5894775,1.8812332,5.0406342,3.9898453,7.4610138,6.0851593 c4.715683,4.079422,9.5118866,8.2410507,15.22229,10.754303 C244.5398865,114.7798538,253.8414764,114.7675095,261.6861572,111.2954102z"></path> </g> <g> <g> <path class="st6" d="M162.382843,61.0074654c0.3607941,5.0045891-3.5223694,8.0450096-3.5223694,8.0450096 c-0.9389801,0.9779892-2.2144165,1.6521759-3.6678467,1.8156204l-3.6665955,0.421669 c-2.9174652,0.3341293-5.5979614-1.4886551-6.4553223-4.191658c-0.11763-0.3618927-0.1975708-0.7462234-0.2375336-1.1358109 l-0.3333282-2.9117584c-0.2133484-0.0762787-0.4141388-0.1890182-0.5943146-0.3219986 c-0.3733673-0.275753-0.6796722-0.6591301-0.8523254-1.1298943c-0.6528473-1.6847572-0.831192-3.5136757-0.5214691-5.2968521 c0.2427979-1.3677979,1.5500488-2.2842636,2.9171143-2.0471649c0.2852936,0.0493202,0.5473175,0.1423302,0.7803955,0.2799149 c0.3594818-0.83741,0.8235931-1.6306152,1.4024353-2.346077c0.8725433-1.0853233,2.4751282-1.2627296,3.5490265-0.3886414 c0.0072327,0.0105972,0.0194397,0.0148354,0.0265961,0.0255013c0.0708771-0.0790558,0.1588593-0.1603813,0.2410583-0.2409706 c1.0063324-0.9521255,2.5969086-0.9130325,3.5554657,0.0982018c0.0726166,0.0659027,0.1288147,0.1397743,0.1850739,0.2135696 c0.8468323-0.4024467,1.8857574-0.3193703,2.6601105,0.3097992c1.0796204,0.8732872,1.1434174,4.5118332,1.1434174,4.5118332 C160.7634888,57.4181671,162.2246552,58.8042297,162.382843,61.0074654z"></path> </g> <g> <path class="st7" d="M147.2691956,67.0327835c-0.0594025,0.0078201-0.1208344,0.0063553-0.1828156-0.0053329 c-0.3123474-0.0592575-0.5175171-0.3604355-0.4585571-0.6727905c0.3269196-1.7239914,1.4206238-3.2911148,2.925415-4.1928253 c0.8696442-0.5208855,1.8378296-0.8090591,2.8069305-0.9748459c-0.7153168-0.5900078-1.171051-1.4277115-1.2378387-2.3001938 c-0.083725-1.0947495,0.4745636-2.1674309,1.3892822-2.6691017c0.7731171-0.4247322,1.6546631-0.3977013,2.3626709-0.3763657 l3.6440887,0.1100388c0.3177643,0.0094986,0.5678711,0.2750206,0.5580292,0.5927849 c-0.0095062,0.3179855-0.2710724,0.5672836-0.5927277,0.5579338l-3.6441803-0.1100388 c-0.5981903-0.0183411-1.276535-0.0382118-1.7737427,0.2349091c-0.5176086,0.2837868-0.844574,0.9302025-0.7953339,1.5718689 c0.0479431,0.6254463,0.4373779,1.2555656,1.0169525,1.6450081c0.4924774,0.3311386,1.1222076,0.5069351,1.7947845,0.5043755 c0.0897217-0.0033607,0.1785736-0.006649,0.2663269-0.0100822c0.3144073-0.0115433,0.5796356,0.2312546,0.5962219,0.5452194 c0.0160675,0.3140373-0.2262115,0.5805817-0.5357971,0.6045494c-0.1003265,0.006794-0.2001953,0.0106659-0.2996521,0.0113258 c-1.6640015,0.063858-3.5036621,0.1753578-4.9640961,1.0504684c-1.2274475,0.7353363-2.1195068,2.0134811-2.38591,3.4191971 C147.7116089,66.8193588,147.5088501,67.0009995,147.2691956,67.0327835z"></path> </g> <g> <path class="st7" d="M152.7718811,57.202404c-0.3065033,0.0405502-0.5920563-0.1691475-0.6432037-0.4763184 c-0.1692963-1.0167885-0.0110931-2.0858154,0.4457703-3.0103226c0.4568787-0.9245033,1.2102661-1.6996613,2.121109-2.1829948 c0.2810211-0.1478119,0.6296234-0.0419388,0.7785187,0.2388535c0.1489105,0.2808647,0.0419464,0.6293907-0.2388458,0.7785187 c-0.6994629,0.3708115-1.2779236,0.9660797-1.6285553,1.6757698c-0.3506622,0.7096901-0.4722443,1.5305176-0.3421936,2.3112259 c0.0523224,0.3134537-0.1596375,0.6101036-0.4733887,0.6624184 C152.7846832,57.2006493,152.7783051,57.2015266,152.7718811,57.202404z"></path> </g> <g> <path class="st7" d="M152.0683289,61.6685677c-0.6844177,0.0906754-1.4309387-0.1036797-2.0385437-0.5699158 c-0.6963196-0.5346985-1.1887207-1.3599052-1.4638062-2.4523163c-0.635025-2.525238,0.1752167-5.3143883,2.0640411-7.1065521 c0.2310333-0.2186127,0.5948944-0.2094803,0.8138123,0.021553c0.21875,0.2304535,0.2091827,0.5949783-0.0215607,0.8138123 c-1.567337,1.4872589-2.26651,3.8945656-1.7394104,5.9903221c0.1443024,0.5737877,0.443222,1.3553734,1.0479889,1.8199997 c0.5159912,0.3949966,1.2360535,0.4647026,1.6751862,0.1595764c0.261734-0.1815681,0.6200409-0.1164665,0.8011627,0.1445274 c0.1815033,0.2612114,0.1167145,0.6200371-0.1445923,0.8011665 C152.7673492,61.4957657,152.4261322,61.6212196,152.0683289,61.6685677z"></path> </g> <g> <path class="st7" d="M149.4076996,62.325798c-0.6328888,0.0838051-1.3136597-0.0313454-1.9101715-0.3583908 c-0.8851166-0.4850845-1.5987549-1.3963661-2.0097504-2.5663719c-0.5488739-1.5622978-0.5040894-3.337368,0.1232758-4.869709 c0.1203918-0.2940903,0.456665-0.4356194,0.750885-0.314621c0.2940826,0.1204109,0.4350281,0.4567375,0.314621,0.7508278 c-0.5218353,1.2751465-0.5590973,2.7517395-0.1022186,4.0520248c0.316452,0.9014893,0.8408356,1.5896988,1.4765167,1.938221 c0.6839752,0.3747559,1.5590973,0.313015,2.0357666-0.1448135c0.2290649-0.2208824,0.5939484-0.2127686,0.8139496,0.0160713 c0.2203979,0.2292099,0.213089,0.5936623-0.0160675,0.8140297 C150.491333,62.021183,149.9681091,62.2515602,149.4076996,62.325798z"></path> </g> <g> <path class="st7" d="M145.2747192,63.5564499c-0.2262726,0.0299568-0.4560089,0.0314903-0.6831818,0.0034332 c-0.3157043-0.0393105-0.539505-0.326973-0.5004883-0.6423264c0.0393066-0.3157158,0.3269653-0.5392265,0.6423187-0.5004997 c0.3951416,0.0500488,0.8037262-0.0590401,1.1222229-0.2965775c0.3181305-0.2375374,0.538269-0.5987015,0.6034546-0.9909935 c0.052597-0.3135262,0.3501282-0.5250549,0.6626282-0.4733963c0.3134613,0.0523148,0.5254211,0.3488922,0.4734039,0.6626358 c-0.1137695,0.6825829-0.496994,1.3111725-1.0512848,1.7245789 C146.1729279,63.3201523,145.7317352,63.4959488,145.2747192,63.5564499z"></path> </g> </g> <g> <g> <g> <path class="st3" d="M193.8630676,160.1036072l-0.5832977,8.619751l-0.9760895,14.4675293l-11.5431976-0.7769165 c-0.2579193-0.0180511-6.3064728-0.4366455-13.1810455-2.0058746 c-7.5869598-1.7304993-13.4590607-4.1933441-17.7646179-7.4559631c-1.9431-1.4732208-3.5596313-3.1116638-4.878891-4.9171906 c-3.465332-4.7676392-4.5717468-10.5793915-3.118042-16.3527069c1.0949707-4.3611603,2.8808441-8.7672729,4.9327545-12.9182281 c5.6021271-11.328598,13.2145844-20.7631073,14.3392181-22.1374054l2.0554199-2.5021515l5.2915192-6.4383621 l2.1113892,1.7355423l5.3563995,4.4010544l10.4133148,8.5572128l-7.3370056,8.9276428 c-0.5796356,0.7097015-1.334549,1.6749725-2.2014771,2.8467255c-1.0840149,1.4617615-2.3357086,3.2361755-3.6324158,5.1965332 c-3.1393585,4.75383-6.5205536,10.6197968-8.2695465,15.8747101c3.0641022,1.6499786,9.782608,3.3560638,15.8146362,3.9568176 c0.547348,0.0552368,1.0883331,0.1055756,1.6212769,0.1395569L193.8630676,160.1036072z"></path> </g> </g> <g> <g> <path class="st1" d="M191.7172546,159.9568176l0.5869446,23.2348022c0,0-0.3904419,8.3511505,12.3444366,12.0860748 l4.0550995-34.4317322L191.7172546,159.9568176z"></path> </g> <g> <polygon class="st8" points="208.7037354,160.8459625 203.0059052,160.5477142 202.7984009,194.6698608 204.6486359,195.2776947 "></polygon> </g> </g> <g> <g> <path class="st3" d="M238.9570465,146.4255066l-8.7471771,7.5754852 c-0.1930389,0.1649017-4.7906494,4.1245728-10.7724915,7.8494873 c-6.6110382,4.1043396-12.5140533,6.4946899-17.8674469,7.2035828 c-2.4198761,0.3204651-4.7229919,0.2944489-6.9306946-0.0635681c-0.4567871-0.0730591-0.9102478-0.164032-1.3594666-0.2671356 c-5.213913-1.2201233-9.5704803-4.4294739-12.3620453-9.1527557c-0.0751801-0.1294098-0.1504364-0.2588806-0.2256317-0.3882751 c-3.4938507-6.0356293-5.9047546-13.27742-7.5450897-19.8315277c-0.3897095-1.539566-0.733429-3.0388184-1.0346069-4.4797516 c-1.4976349-7.0549622-2.0652161-12.6128845-2.171524-13.7660828l-0.6647644-7.1246033l-0.408432-4.4001083l1.6805115-0.1586227 l21.3631287-1.9871063l0.5573578,6.0063934l0.5136566,5.5011444c0.232193,2.4548035,0.8952789,7.1986923,2.05513,12.4051514 c1.1072388,4.9405823,2.6702728,10.2969818,4.7562256,14.5155334 c3.6383209-1.0741425,10.4143982-5.1597137,15.2702332-9.3626099l8.7536926-7.5705261L238.9570465,146.4255066z"></path> </g> </g> <g> <path class="st9" d="M195.0374603,131.3472137l-18.2580414,2.8070526l-4.6670227,0.7167816l-25.3617554,3.8929596 c5.6021271-11.328598,13.2145844-20.7631073,14.3392181-22.1374054l2.0554199-2.5021515 c1.9163055-0.0447159,3.9832764-0.0919876,6.1308289-0.1440887c2.1483612-0.0463943,4.3823547-0.104187,6.628479-0.1576767 c5.7903442-0.128006,11.6841431-0.2639847,16.5640869-0.3817673l0.5136566,5.5011444 C193.2145233,121.3968658,193.8776093,126.1407547,195.0374603,131.3472137z"></path> </g> <g> <g> <path class="st1" d="M222.1916656,130.3324127l16.7683716,16.0941162c0,0,5.5997162,6.207901,17.2756805-0.100769 l-21.3502808-27.3158188L222.1916656,130.3324127z"></path> </g> <g> <polygon class="st8" points="234.885437,119.0099411 230.6275177,122.8078461 254.493454,147.1959839 256.2357178,146.3257599 "></polygon> </g> </g> <g> <path class="st10" d="M197.1777802,153.95401c-1.2119446,0.1605225-2.433548,0.0384369-3.4714508-0.6985931 c-1.0300751-0.7315369-1.5688629-1.8605499-2.073822-3.0506439c-2.2335663-5.2625122-4.1124573-10.7293854-5.5840759-16.2490997 c-0.0818329-0.3070221,0.1006775-0.6226654,0.40802-0.7044983c0.3038635-0.0821991,0.6223602,0.1004639,0.704483,0.4080048 c1.457962,5.4676056,3.3189545,10.8829651,5.5313873,16.0955811c0.4378204,1.0319824,0.8961639,2.0046387,1.6808319,2.5616913 c1.4166565,1.0064087,3.5023346,0.4291229,5.1606598-0.1869812c9.8882294-3.6720734,19.0700226-9.5423584,26.5523529-16.9760132 c0.2252655-0.2237396,0.5900116-0.2230072,0.8141785,0.0027771c0.2240906,0.2255402,0.2227783,0.5900726-0.0027771,0.8141632 c-7.5981445,7.5485382-16.9218292,13.5096283-26.9627838,17.2385559 C199.0856018,153.5241547,198.1347198,153.8273163,197.1777802,153.95401z"></path> </g> <g> <path class="st10" d="M191.6832123,169.2588654c-0.0697021,0.009201-0.1421967,0.0054779-0.2143707-0.0124207 c-4.7742004-1.187912-8.9821625-4.7184601-10.9813995-9.2137756c-0.1291809-0.2902985,0.0016022-0.6305695,0.2921143-0.7598114 c0.2893524-0.1296234,0.6305695,0.0016022,0.7598114,0.2921143c1.8585358,4.1782074,5.7698212,7.4599762,10.207489,8.5642853 c0.3084717,0.0767975,0.4964294,0.3890839,0.4195404,0.6975708 C192.1078644,169.0631256,191.9108887,169.2286835,191.6832123,169.2588654z"></path> </g> <g> <path class="st10" d="M189.5756378,168.506073c-0.0353851,0.0047455-0.0714722,0.0063477-0.1086731,0.0042267 c-10.8009186-0.6098785-21.3392334-3.0326691-31.3222504-7.2014618c-1.640625-0.6849976-3.4561005-1.5637665-4.2305298-3.3287506 c-0.6290894-1.4331055-0.3517303-3.0521088-0.04245-4.457016c1.2556458-5.6996002,3.1668549-11.2603607,5.6802368-16.5276947 c0.1372833-0.2870026,0.480484-0.4081573,0.7676239-0.2718048c0.2869415,0.1369171,0.4084473,0.4806976,0.2718048,0.7676239 c-2.4759827,5.1883545-4.3583069,10.6653137-5.5951691,16.2794189c-0.282547,1.2839203-0.5176086,2.6304474-0.0278473,3.7466125 c0.6038208,1.3755341,2.1850433,2.1300201,3.6197662,2.7291565c9.8626251,4.1183777,20.2734222,6.511795,30.9437714,7.1142273 c0.3174744,0.0181122,0.5601959,0.289917,0.5423737,0.6073303 C190.0584412,168.2485046,189.8442841,168.4705505,189.5756378,168.506073z"></path> </g> <g> <path class="st8" d="M249.3466797,140.8385773c-2.2451019,1.9700012-3.6188965,4.8385773-3.7094269,7.8281555 c-0.0111694,0.3670044,0.5591736,0.448761,0.5703583,0.0787659c0.0860748-2.8400879,1.3534698-5.575531,3.4924164-7.45224 C249.9770966,141.0500946,249.6262207,140.5932922,249.3466797,140.8385773z"></path> </g> <g> <path class="st8" d="M237.134491,126.7793503c-3.5004578,1.4731522-7.4719543,1.7060928-11.1163483,0.6276398 c-0.3522491-0.1042709-0.5778046,0.4258957-0.2228546,0.5308914c3.7969513,1.1236115,7.9115295,0.9087219,11.563736-0.6282959 C237.7000885,127.1660156,237.4770203,126.6351929,237.134491,126.7793503z"></path> </g> <g> <path class="st8" d="M203.5516205,183.4226532c-3.7866516-0.0667114-7.4857635,1.6770782-9.8205109,4.6656342 c-0.2284851,0.2924042,0.2286224,0.6424713,0.4570313,0.3501282c2.1974487-2.8128204,5.7105408-4.508316,9.284668-4.445343 C203.8392792,183.9995728,203.9214325,183.4291534,203.5516205,183.4226532z"></path> </g> </g> <g> <g> <g> <path class="st11" d="M160.3309937,105.7445068c-4.8556671,0.6430511-9.6747284-0.8729248-13.3007202-4.2046661 c-3.7658997-3.4603348-5.6893616-8.3686905-5.276535-13.4659271l1.6526794-20.4232788l17.4092255,1.408783 l-1.5507355,19.1649399l19.6973572-3.2860031l2.8742676,17.2281799l-20.9428558,3.493576 C160.706192,105.6913834,160.5184937,105.7196655,160.3309937,105.7445068z"></path> </g> </g> </g> <g> <g> <g> <g> <path class="st1" d="M198.7041321,99.0900116c-0.021637,0.3629227-0.0572815,0.7509003-0.1150665,1.1476517 c-0.2412872,1.7741165-0.7932281,3.8333359-1.4695282,5.8741455c-0.1244202,0.3765106-0.2495117,0.7473221-0.3802948,1.1188583 c-0.9359894,2.667572-2.0255432,5.2277298-2.8278656,7.0180664l0.5140076,2.5220261l0.256012,1.2320404l0.9636688,4.7330704 l0.2382813,1.14151l0.9389801,4.5911865l0.2333527,1.147934l0.2496185,1.2271423l-1.8976135,0.4487762 c-0.2979736,0.0743103-2.5235596,0.5897217-5.913681,1.0386353 c-8.5493164,1.1322327-24.5126343,1.8408966-35.8521271-6.0362091l-0.9660645-0.6734467l0.1121368-1.170517 c0.0510712-0.5352097,0.1155243-1.1012573,0.1989594-1.6988602c0.048584-0.3780441,0.1128845-0.7698288,0.1763763-1.1673813 c0.4230652-2.5937729,1.1143341-5.6179733,2.0359192-8.7888184c0.1030273-0.3621216,0.2110138-0.7306671,0.3247223-1.0999374 c0.8966522-2.9643631,1.9832153-6.0292664,3.2306061-8.9761658c0.1494904-0.3624115,0.2996368-0.7191925,0.4613342-1.0773621 c0.5668488-1.2888107,1.1602936-2.552124,1.7883606-3.7734985c0.1752167-0.3426056,0.3562775-0.6860199,0.5380554-1.0236588 c1.4251556-2.6568222,2.9851227-5.0411148,4.6329803-6.9376907c0.2718811-0.3146973,0.54039-0.6116409,0.816803-0.8921356 c1.0475464-1.079483,2.1215515-1.9592667,3.2295227-2.5821609c3.3666687-1.8976669,8.0718231-1.8878021,13.5943756,0.0405579 c6.4239655,2.2445831,13.3768158,6.9916916,14.5831909,9.9620438 C198.682724,97.1299438,198.7679138,98.0362549,198.7041321,99.0900116z"></path> </g> </g> </g> <g> <path class="st12" d="M198.7041321,99.0900116c-0.021637,0.3629227-0.0572815,0.7509003-0.1150665,1.1476517 c-11.2955933-1.6691208-21.963089-5.8313293-32.4138031-10.3301544c0.2718811-0.3146973,0.54039-0.6116409,0.816803-0.8921356 c1.527298,0.6572266,3.0587006,1.3022537,4.6000214,1.9344177 C180.2966614,94.5415726,189.3679657,97.7015381,198.7041321,99.0900116z"></path> </g> <g> <path class="st12" d="M197.1195374,106.1118088c-0.1244202,0.3765106-0.2495117,0.7473221-0.3802948,1.1188583 c-1.2028198-0.1368484-2.4087067-0.2965775-3.6102753-0.4684219 c-11.0293274-1.5882416-21.8561096-4.5854111-32.1247406-8.8933868c0.1752167-0.3426056,0.3562775-0.6860199,0.5380554-1.0236588 c1.2119598,0.5131454,2.4258881,0.9969864,3.6497498,1.4679031 C175.4579468,102.2498245,186.2055969,104.8683701,197.1195374,106.1118088z"></path> </g> <g> <path class="st12" d="M194.6813965,118.0028c-0.578537-0.1150055-1.1577911-0.2357864-1.7321777-0.3629913 c-12.2285461-2.706955-23.9018707-7.7987823-34.1946869-14.9200897c0.1494904-0.3624115,0.2996368-0.7191925,0.4613342-1.0773621 c1.683075,1.1766586,3.4050903,2.2958832,5.1602936,3.3584824c9.2540283,5.592186,19.4681702,9.5764008,30.0492249,11.7699203 L194.6813965,118.0028z"></path> </g> <g> <path class="st12" d="M195.8833466,123.8773804c-2.0478363-0.0714569-4.0966034-0.3692017-6.106781-0.7708435 c-6.7473755-1.3538437-13.4172821-3.3509598-19.9817505-5.3852615 c-4.9040527-1.5108566-9.7732544-3.1541138-14.5956116-4.9254532c0.1030273-0.3621216,0.2110138-0.7306671,0.3247223-1.0999374 c1.9346313,0.7077866,3.8784027,1.3969498,5.8314056,2.0674744c6.4916077,2.2297592,13.0652924,4.24543,19.6999817,6.0207138 c4.7086639,1.2638245,9.6480865,2.7351608,14.5897522,2.9517975L195.8833466,123.8773804z"></path> </g> <g> <path class="st12" d="M197.0556793,129.6165009c-0.6109772,0.0344849-1.2220306,0.068985-1.8345337,0.0919952 c-14.3668365,0.5727692-28.8152161-1.7938461-42.2342377-6.9564743c0.048584-0.3780441,0.1128845-0.7698288,0.1763763-1.1673813 c2.7793121,1.0780182,5.6012573,2.0399323,8.4651489,2.8801956c11.3934174,3.328598,23.3492126,4.6779861,35.1938934,4.0037308 L197.0556793,129.6165009z"></path> </g> </g> <g> <g> <path class="st13" d="M220.545929,59.4083405c-0.1912079,1.4946404-0.5029907,2.9992905-0.9318848,4.4963417 c-5.6609497,19.785923-16.5367584,22.6896477-29.4425659,20.9202003 c-1.9692078-0.2676392-3.9775696-0.6985855-5.9941254-1.2793808c-2.0158234-0.5751038-3.9489288-1.2714996-5.7700958-2.0872116 c-11.8800354-5.3374023-19.4872131-13.8422928-13.9041901-33.3391685 c0.4373016-1.5213814,0.9815063-2.9813881,1.6268158-4.3792877 c5.9491882-12.8727798,20.2894287-19.9171524,34.0215454-15.9864902 C213.9078674,31.6924095,222.353653,45.3011818,220.545929,59.4083405z"></path> </g> <g> <path class="st14" d="M212.1136475,33.5792656l-3.2387238,3.0828056 c-2.7572174,2.8158188-6.0883789,5.0688858-9.7153778,6.6235123c-3.8959503,1.6716042-7.8362579-2.4291573-5.9897308-6.2451782 l0.0415955-0.081028c-13.1193237,8.5900116-25.9191132,4.8146133-26.0545044,4.7571106 c5.9492493-12.8728523,19.4211731-18.4491081,33.1532898-14.518446 C204.8913574,28.5077515,208.8877869,30.7079163,212.1136475,33.5792656z"></path> </g> <g> <path class="st14" d="M220.7460632,57.1925392c-0.1464996-0.0096436-11.0379639-8.1435051-11.8711395-20.530468 l3.2387238-3.0828056C218.578186,39.3318329,221.9561768,47.7812653,220.7460632,57.1925392z"></path> </g> <g> <g> <path class="st13" d="M222.1408234,75.5601044c-2.4152832,1.7217331-5.7061005,2.2765198-8.4511414,1.2809219 c-0.0387268-0.0111008-0.0774384-0.0222092-0.1146393-0.0387955c-0.0054779-0.0016098-0.0054779-0.0016098-0.0110321-0.003212 c-0.5834961-0.2209549-1.1392365-0.5178223-1.6522369-0.8803024l4.407196-16.5415001 c0.9892578-1.237812,2.5001221-2.038765,4.0777588-2.1738625c0.1162567-0.0086212,0.2324982-0.0172424,0.3511658-0.0132256 c1.4669342-0.0410614,2.9382782,0.4880104,4.0455933,1.4518967c0.0245514,0.0189972,0.0418549,0.0418663,0.0664063,0.0608635 c0.1288147,0.1147881,0.2433929,0.2373924,0.3595581,0.3545151c1.7134094,1.8379784,2.1648865,4.6320992,1.9182892,7.1663971 C226.7829285,69.8470001,225.1003571,73.4433136,222.1408234,75.5601044z"></path> </g> </g> <g> <ellipse transform="matrix(0.2752775 -0.9613648 0.9613648 0.2752775 68.2108612 205.4836273)" class="st14" cx="170.39534" cy="57.5" rx="5.3208666" ry="5.4480882"></ellipse> </g> <g> <path class="st14" d="M209.3163147,68.6448441c-0.8089142,2.8250961-3.8096619,4.4438019-6.7023468,3.6155243 c-2.8926086-0.8282776-4.5817566-3.7899323-3.7728271-6.615036c0.8089752-2.8250961,3.8097229-4.4438782,6.7023621-3.6156006 C208.4360962,62.8580093,210.1253052,65.8197403,209.3163147,68.6448441z"></path> </g> <g> <g> <path class="st13" d="M190.0879517,89.6240845c0,0-2.1133575,1.5474625-7.640152-0.0350723 c-5.5268555-1.5826111-6.500824-4.0141068-6.500824-4.0141068l2.4628296-4.1188049 c1.8186188,0.8165894,3.7485809,1.5148087,5.7674713,2.0929031c2.0189667,0.5781708,4.0259399,1.0072174,5.9969788,1.2757339 L190.0879517,89.6240845z"></path> </g> <g> <path class="st14" d="M190.1714783,84.8248825c0,0-7.0223083,4.5943985-14.2269897,0.751709l2.4627686-4.1183014 c1.821167,0.815712,3.7542725,1.5121078,5.7700958,2.0872116 C186.1939087,84.126297,188.2022705,84.5572433,190.1714783,84.8248825z"></path> </g> </g> <g> <path class="st8" d="M181.9316711,53.4981728c-1.0725403,3.7455139-4.2978973,4.8420143-7.6171417,3.891571 s-5.4754181-3.5879822-4.4029694-7.3334198c1.072464-3.7454414,4.6326904-6.0112915,7.9519348-5.0607758 C181.1827393,45.9459915,183.0041351,49.7527351,181.9316711,53.4981728z"></path> </g> <g> <path class="st4" d="M182.2071991,50.6285782c-0.30513,0.0404053-0.5901489-0.1673965-0.6428375-0.4734688 c-0.3892212-2.2711143-1.8680725-4.0360985-3.8592682-4.6060143c-3.0089417-0.861084-6.256424,1.2314568-7.2401276,4.6654892 c-0.0877533,0.3056335-0.4069061,0.4820175-0.7118835,0.3951416c-0.3059235-0.0876808-0.4825134-0.4062462-0.3951416-0.7118835 c1.1583252-4.0449371,5.0452118-6.4913368,8.6638947-5.4557686c2.4203033,0.6929588,4.2125397,2.807415,4.6776123,5.5184593 c0.0536957,0.3133087-0.1570282,0.6109047-0.4702606,0.6648293 C182.2219543,50.6266022,182.2144318,50.6276283,182.2071991,50.6285782z"></path> </g> <g> <g> <path class="st4" d="M179.0450439,42.0026169c-1.8074341-0.1394119-5.9186401-0.0680275-5.9195862-0.5257835 c-0.0027161-1.3120499,4.450882-2.4023399,6.3727417-2.1614418c1.6017761,0.2007866,2.5897522,1.476738,2.417984,2.2915001 C181.7443237,42.4215775,180.4054565,42.1076126,179.0450439,42.0026169z"></path> </g> </g> <g> <g> <path class="st4" d="M179.0241699,52.4626808c-0.7545776,2.6349831-3.3047333,4.2151833-5.6998901,3.5293121 c-2.3918304-0.6848488-3.7225189-3.3763123-2.9680328-6.0113678c0.1421814-0.4963379,0.349472-0.9559937,0.6081238-1.3685265 c0.0848389,0.6478767,0.543396,1.2117271,1.20961,1.402504c0.8994446,0.2574844,1.834549-0.264061,2.0921173-1.1635056 c0.2565918-0.8961525-0.2607117-1.8335915-1.1601563-2.0911484c-0.029953-0.008625-0.0599823-0.0171738-0.0918427-0.0190735 c0.9389038-0.4592934,2.0060425-0.5862083,3.0421295-0.2895584 C178.4513245,47.137188,179.7787018,49.8276253,179.0241699,52.4626808z"></path> </g> </g> <g> <path class="st8" d="M195.9819794,57.5214119c-1.072525,3.7455101,1.0836639,6.3829765,4.4028931,7.3334236 c3.3192444,0.9504395,6.544693-0.1460648,7.6171265-3.8915024c1.072464-3.7454376-0.7488556-7.5522537-4.0681-8.502697 S197.0544434,53.7759705,195.9819794,57.5214119z"></path> </g> <g> <path class="st4" d="M208.0774841,61.5344162c-0.0760498,0.0100861-0.1552734,0.0049706-0.2336731-0.0175323 c-0.3057098-0.0876808-0.4825287-0.4061775-0.3951416-0.7118111c0.9833984-3.4345436-0.6644592-6.929512-3.6730957-7.7909622 c-1.9920654-0.5701332-4.1806946,0.1444511-5.7128143,1.865303c-0.2116089,0.2372475-0.57547,0.2582169-0.8127136,0.0469093 c-0.2375488-0.211235-0.2585144-0.5751038-0.0469208-0.8127136c1.8288574-2.0541077,4.4685059-2.8996277,6.8891907-2.2064514 c3.6190491,1.0362968,5.6214142,5.1700096,4.4633179,9.2146568 C208.490448,61.3490486,208.2976227,61.5052643,208.0774841,61.5344162z"></path> </g> <g> <g> <path class="st4" d="M204.5155182,49.2959976c1.6072998,0.8383598,5.0576324,3.074913,5.3007202,2.6870041 c0.6968231-1.1116982-2.504776-4.3939743-4.2628174-5.2068329c-1.465271-0.6774712-2.9789124-0.1177826-3.2643738,0.6643906 C202.0035706,48.2227287,203.3057556,48.6649246,204.5155182,49.2959976z"></path> </g> </g> <g> <g> <path class="st4" d="M204.8527832,59.8585739c-0.7544861,2.6349831-3.3047028,4.2151794-5.6998901,3.5293121 c-2.3918152-0.6848488-3.7224731-3.3763123-2.9679413-6.0112915c0.1421204-0.4964104,0.349411-0.9560699,0.6081543-1.3685303 c0.0848083,0.6478043,0.5433044,1.2116547,1.2095184,1.4024315c0.8994446,0.2574844,1.8345337-0.264061,2.0921021-1.1635056 c0.2566071-0.8961525-0.2607117-1.8335915-1.160141-2.0911484c-0.0299683-0.0086212-0.0599976-0.01717-0.0918579-0.0190697 c0.9389038-0.4592934,2.0061035-0.5862122,3.0421143-0.2895622 C204.280014,54.5330811,205.6073303,57.2235184,204.8527832,59.8585739z"></path> </g> </g> <g> <path class="st7" d="M218.561676,74.5539169c-0.0908203,0.0120544-0.1862488,0.0025558-0.2781677-0.0320816 c-0.2975159-0.1120071-0.4476013-0.444313-0.3355865-0.7418365c1.4594269-3.8716278,3.9115143-7.3177872,7.0909119-9.9655533 c0.245285-0.2031975,0.6077728-0.1703911,0.8108215,0.0737953c0.2036285,0.2444038,0.1703186,0.6074715-0.0738068,0.8108177 c-3.0269012,2.5207748-5.361145,5.8013-6.7504883,9.4871902 C218.9479828,74.3919296,218.7653809,74.5269547,218.561676,74.5539169z"></path> </g> <g> <g> <path class="st4" d="M178.7381744,64.8197632c-0.0905304,0.748703-0.3278503,3.862999,1.7299042,5.9326706 c0.8833771,0.8954239,2.1965179,1.5934982,4.1283112,1.8270874c2.897644,0.3503571,4.6659241-0.6536484,5.7339325-1.9568558 c1.5491486-1.8771362,1.6597595-4.3746796,1.6597595-4.3746796s-0.0171509-0.002121-0.0578613-0.0012436 c-0.6712646-0.0116196-6.9985657-0.1502991-13.1676025-1.5978088 C178.7646179,64.6489334,178.7513123,64.711113,178.7381744,64.8197632z"></path> </g> <g> <path class="st1" d="M180.4680786,70.7524338c0.8833771,0.8954239,2.1965179,1.5934982,4.1283112,1.8270874 c2.897644,0.3503571,4.6659241-0.6536484,5.7339325-1.9568558c-0.9898987-0.5894241-2.1448517-1.0132065-3.4024658-1.2116547 C184.4699097,69.0210571,182.1356659,69.5738754,180.4680786,70.7524338z"></path> </g> <g> <path class="st8" d="M178.7381744,64.8197632c1.2574615,1.3987732,3.4113007,2.337677,5.937851,2.7358856 c2.9474945,0.4665222,5.6501312,0.0800018,7.2561951-1.3089066c-0.6712646-0.0116196-6.9985657-0.1502991-13.1676025-1.5978088 C178.7646179,64.6489334,178.7513123,64.711113,178.7381744,64.8197632z"></path> </g> </g> <g> <path class="st7" d="M184.7482147,62.1505127c-0.1251526,0.01651-0.2565155-0.0077477-0.3726959-0.0779648 c-0.850647-0.5135078-1.7050018-1.1129417-2.1938934-2.0165482c-0.5211029-0.9633751-0.5306091-2.4119835,0.4787292-3.1986885 c0.5513611-0.429409,1.2146606-0.5081749,1.8014374-0.5779495c0.2233734-0.0264511,0.4473877-0.0521698,0.6624298-0.1002464 c1.0037689-0.225338,1.8579865-1.0851059,2.0773315-2.0901299c0.0673828-0.3111877,0.3750458-0.5084648,0.6849976-0.439785 c0.3106842,0.0677338,0.5075226,0.3745384,0.4397125,0.6849937c-0.3162994,1.4502907-1.5018768,2.6431656-2.9497375,2.9684563 c-0.2633362,0.0583801-0.5260162,0.0895042-0.7788849,0.120121c-0.4772797,0.0575752-0.9307251,0.1105499-1.2294922,0.3428993 c-0.4850159,0.3778229-0.467926,1.1987953-0.1736145,1.7424774c0.3751984,0.6941299,1.1134644,1.1787758,1.7758026,1.5788116 c0.2723846,0.1641083,0.3597717,0.5180397,0.1953735,0.7902107 C185.0717468,62.03302,184.91539,62.1283722,184.7482147,62.1505127z"></path> </g> <g> <path class="st15" d="M230.2480164,43.6517906c-1.0356445,5.2475319-2.8586426,10.3380432-5.3877563,15.0516815 c-0.0258636-0.0198746-0.040329-0.0411339-0.0661163-0.060936c-1.1089325-0.9623528-2.5787964-1.493618-4.0480804-1.4499969 c-0.0015411-0.0113983-0.0015411-0.0113983-0.0015411-0.0113983s-10.565155-9.7915115-11.3926239-22.179203 c-2.7629242,2.8165474-6.0883789,5.0688095-9.7153015,6.6235123c-3.9016571,1.6723328-7.8427582-2.434124-5.990448-6.2509499 l0.0414886-0.0809555c-6.6548615,4.1681976-13.8479309,5.7189522-19.5636597,6.1913261 c-6.2429962,0.5248337-9.7454834-6.978981-5.3011017-11.3945827c1.2420502-1.2329884,2.1421051-1.5845108,2.1421051-1.5845108 c-0.6889648-1.7380219-1.1127472-3.4473286-1.3601379-5.0522251c-0.0075378-0.057066-0.0151367-0.11413-0.0283508-0.1704636 c-0.8399048-5.6843948,3.2041779-10.9296608,8.8954163-11.7181902 c13.0604401-1.799325,24.0910645,4.2719536,25.1910706,4.9044867c0.0194397,0.0148335,0.0429535,0.0174637,0.0502167,0.0281315 c0.0186157,0.0091324,0.0308075,0.0133705,0.0437469,0.0232334l0.0045319-0.0528259 c0.1288757-2.4038734,2.9877319-3.6187429,4.7796783-2.0151625c2.9829254,2.659606,5.3835907,5.9654799,6.977005,9.6220713 c0.0717621-1.1244869,0.9071198-1.8332272,1.8202515-1.9541531c0.7476807-0.0990772,1.5481873,0.2014446,2.0074158,0.9942837 c0.6617584,1.1377125,1.2636719,2.3065491,1.8002014,3.5073185c1.045639-0.2604084,2.1216125-0.379652,3.1986084-0.359705 c1.9797211,0.0398216,2.8292694,2.5521984,1.2224731,3.7057648c-0.3551788,0.2560959-0.6917114,0.5213261-1.0195007,0.8086224 c2.4057007,1.063549,4.5832214,2.8600254,5.5557251,5.2922497 C231.0461884,38.4530678,230.7451477,41.1352501,230.2480164,43.6517906z"></path> </g> <g> <path class="st16" d="M200.1940918,37.9244347c-1.465271,0.1940613-2.9982605-0.1365623-4.0831451-1.2626572 c-0.9626465-0.999691-1.4223175-2.5267715-1.2614899-4.1901207c0.0718994-0.7397194,0.2509766-1.4513092,0.47435-2.1282673 c-3.7970276,2.6023197-8.3063049,4.1879292-12.8953705,4.5027714c-2.3305817,0.1608887-3.8974152-0.3994522-4.6568604-1.6653976 c-0.8510742-1.418211-0.2631836-3.2401867,0.7572632-4.3070965c0.5927734-0.6198196,1.3100739-1.0619431,2.0467224-1.4171906 c-1.0369568-0.3016891-2.0635834-0.675787-3.0174866-1.2493572c-1.6898651-1.0162029-2.797699-2.5231895-3.0388947-4.1347351 c-0.3137207-2.0970688,0.8819885-4.3542995,2.9755554-5.6169548c1.5631714-0.9428434,3.5771637-1.3808022,6.1566162-1.3387156 c0.3179779,0.005187,0.5713043,0.2671289,0.5663452,0.5851126c-0.0055695,0.3179836-0.2717438,0.5713043-0.5851288,0.5663357 c-2.3576202-0.0393829-4.1708984,0.344799-5.5430756,1.1730022c-1.6737366,1.0097008-2.6733246,2.8436584-2.431427,4.4608307 c0.1900482,1.2703991,1.0988617,2.4799347,2.4936066,3.3185863c1.3087463,0.78685,2.8495636,1.1765099,4.3396759,1.5533848 c0.2426605,0.0611572,0.4177399,0.2722454,0.4335022,0.5219116c0.0157776,0.2497387-0.1316681,0.4810677-0.3645935,0.5723267 c-1.106369,0.4329166-2.3601837,0.9239197-3.1995697,1.8015175c-0.7011261,0.732851-1.1502686,2.004858-0.6019135,2.9186954 c0.6461945,1.0769958,2.3091125,1.197628,3.5901031,1.1090698c5.0227051-0.3489609,9.948822-2.2833138,13.8645782-5.4517517 c0.2045746-0.1660061,0.4956818-0.1711197,0.7067871-0.0138817c0.2108459,0.1578236,0.2880096,0.4385433,0.1872406,0.6818523 c-0.4627075,1.1160851-0.9870453,2.3810043-1.111908,3.6690121c-0.1284485,1.32761,0.2159271,2.5234108,0.9447327,3.2801552 c1.2900085,1.3387909,3.5713348,1.1277008,5.0621033,0.2483521c1.7305145-1.0197105,2.9217529-2.811657,3.9728088-4.3927326 c0.176239-0.2643528,0.5335999-0.3363953,0.798172-0.1607437c0.2649384,0.1761608,0.3366394,0.533308,0.1607513,0.7982464 c-1.0643463,1.6006584-2.3889618,3.5931702-4.3472137,4.7473946 C201.8804626,37.5196457,201.0488129,37.8112526,200.1940918,37.9244347z"></path> </g> </g> <g> <g> <g> <path class="st6" d="M184.5010376,129.9705811c3.4368744-3.6556396,8.3039551-2.8588562,8.3039551-2.8588562 c1.355545,0.0281296,2.7154236,0.5096359,3.8202667,1.4680481l2.7939606,2.4114685 c2.2222443,1.9197388,2.6972351,5.126236,1.2897644,7.5879822c-0.1865387,0.3316498-4.7001953,8.2012329-6.2217255,9.1813354 c-1.170578,0.7480469-2.7303314,0.4072723-3.4820251-0.7589264c-0.1569519-0.2432404-0.2659607-0.499054-0.3227386-0.7636871 c-0.8595428,0.3028564-1.757309,0.4988098-2.6757507,0.5576324c-1.3894958,0.0934601-2.6055298-0.9651947-2.6901245-2.3473206 c0.0029144-0.0124969-0.0022888-0.0243225,0.0007324-0.0368195c-0.1061859,0.0014496-0.2255859-0.008194-0.3405914-0.0140991 c-1.3820343-0.0952148-2.4308167-1.2916718-2.3362732-2.6819c-0.0007324-0.098053,0.0155487-0.1894531,0.0317078-0.2807922 c-0.8697052-0.3502808-1.5124054-1.1707306-1.5741425-2.166626c-0.0889893-1.3857727,2.5442352-3.8974915,2.5442352-3.8974915 C182.9578094,133.593277,182.9875488,131.5794983,184.5010376,129.9705811z"></path> </g> <g> <path class="st7" d="M183.8733978,135.7511292c-0.1563568,0.0206757-0.3206024-0.0225067-0.4497986-0.1329803 c-0.2416992-0.2064819-0.2702637-0.5698395-0.0637817-0.811615l2.4108124-2.8219604 c0.2070007-0.2417755,0.5702057-0.2699738,0.8119049-0.0635681c0.2414856,0.2067871,0.2700653,0.5702057,0.0635681,0.8119202 l-2.4108582,2.8214417C184.1392059,135.6668854,184.009079,135.7331543,183.8733978,135.7511292z"></path> </g> </g> <g> <g> <path class="st11" d="M202.2836304,137.0569611l-14.408844-9.8722382l10.8679199-15.8616257l-10.5372162-3.9014359 c-4.5231628-1.674675-6.8322449-6.6989899-5.1575165-11.2220688v-0.0000763 c1.6746674-4.5230789,6.6989899-6.8321152,11.2220612-5.1574402l11.7213593,4.3399811 c4.7962494,1.7761612,8.4352417,5.5901337,9.9843903,10.4637146c1.5491638,4.8735809,0.7798462,10.0886002-2.1103668,14.3074341 L202.2836304,137.0569611z"></path> </g> </g> </g> <g> <path class="st0" d="M192.1072845,89.7951279c0.1345367,3.164566-3.1750183,5.0546417-5.8325653,5.7724457 c-1.72612,0.4725113-3.562912,0.5473328-5.3331757,0.2474747c0.2344208,0.3232422,0.4524994,0.6543732,0.6492767,1.0000534 c0.7850952,1.411705,1.2204132,3.0323868,1.1843262,4.6456833c-0.0209045,0.850708-0.2365875,1.7212906-0.8511505,2.3427887 c-0.5232239,0.5222092-1.263382,0.7654419-1.9841156,0.5414963c-0.8294983-0.2560272-1.3816071-0.9610367-1.7484589-1.713913 c-0.4234314-0.8730621-0.723877-1.826355-0.9699554-2.7635727c-0.3108978-1.2073441-0.4920349-2.4436264-0.5468292-3.6907196 c-0.4259796,1.125-1.0180359,2.1790543-1.7638092,3.1256256c-0.5305328,0.6857986-1.1450958,1.3072968-1.815918,1.8549271 c-0.7496643,0.610321-1.6297455,1.2437286-2.6208801,1.3458786c-0.7849426,0.0807343-1.6345367-0.195816-2.0638275-0.8938904 c-0.4668884-0.7628098-0.3203125-1.7172012,0.0547333-2.4811783c0.8007355-1.6275482,2.2035217-3.0502167,3.6531525-4.1191025 c0.7883911-0.580658,1.6360168-1.0645676,2.5243073-1.4609528c-0.5334778-0.301033-1.0215607-0.7416229-1.4050598-1.1380081 c-0.8605194-0.8848267-1.4769745-1.9879074-1.8248444-3.1671906c-0.0086975-0.0220718-0.0181885-0.0498352-0.026886-0.0718994 c-0.3334045-0.763031-0.6655579-1.5611267-0.7530212-2.3974457c-0.1237793-1.1973343,0.2840881-2.459259,1.3821106-3.0692139 c0.5896454-0.327774,1.2772064-0.4421234,1.9422455-0.5069275c0.5623169-0.0512238,1.1580963-0.1127396,1.7161102,0.0224304 c0.5458069,0.1310043,0.9989624,0.4832611,1.1487427,1.0441895c0.1778412,0.6849213-0.1012726,1.3839417-0.2163544,2.0495758 c-0.2559509,1.5321884-0.0362396,3.0594177,0.5639954,4.4782181c0.1279449,0.3082657,0.2573395,0.6279297,0.3354492,0.9543839 c0.335968-0.0502701,0.6799622-0.0841675,1.0113068-0.1687088c0.432724-0.1095963,0.8528442-0.2697601,1.2585602-0.4512558 c0.8049011-0.3679581,1.5547791-0.8447113,2.2902679-1.342804c1.1617432-0.78685,2.3300781-1.6558228,3.632843-2.2116394 c1.0832062-0.5905914,2.2404938-1.016861,3.5033722-0.8646622 C190.8300934,86.9038315,192.0387421,88.1374817,192.1072845,89.7951279z"></path> </g> <g> <path class="st17" d="M246.6699677,118.1180267c-1.8021698,0.2387009-3.6226807,0.3221436-5.4345703,0.2430878 c-6.3199921-0.2766266-12.5765076-2.5340042-17.6171112-6.3565979c-3.2187042-2.4408493-5.9450989-5.4944229-8.5816956-8.4472427 l-0.7262878-0.8123474c-2.9298706-3.2705154-5.8573151-6.3966446-9.450943-8.6970596 c-3.9611359-2.5356064-8.212265-3.5869598-11.9740601-2.9673538c-0.3191528,0.0504837-0.6099701-0.1605301-0.6619873-0.4741287 c-0.0517273-0.31353,0.1602478-0.6098862,0.4740601-0.6619034c4.0482941-0.6668015,8.5817566,0.444313,12.7826843,3.1336517 c3.7156982,2.3783798,6.702713,5.5663986,9.6880493,8.8987198l0.7270813,0.8136673 c2.6002197,2.9120483,5.2889709,5.9229507,8.4188385,8.2966461c4.8558197,3.6823883,10.8830414,5.8569794,16.9714966,6.1233749 c6.0888062,0.2672806,12.2829895-1.3739319,17.4414368-4.6179199c0.268158-0.1679077,0.6242981-0.0886307,0.7938843,0.1809845 c0.1691284,0.269104,0.0881042,0.6246414-0.1809998,0.7938614 C255.5202484,115.9694443,251.1534576,117.524292,246.6699677,118.1180267z"></path> </g> </g> <g> <g> <g> <g> <path class="st1" d="M118.0939178,213.0886383l-10.373703-5.1091461l-10.2247162,20.7447815l10.3669739,5.1223602 c0.360878,0.1784363,36.0571594,17.9860992,49.774292,39.1297455 c5.7460632-5.2963562,11.2938232-10.7996216,16.9695892-16.1185913 C156.3150024,232.103653,119.72155,213.8899536,118.0939178,213.0886383z"></path> </g> <g> <path class="st13" d="M174.6063538,256.8577881c-5.675766,5.3189697-11.223526,10.8222351-16.9695892,16.1185913 c0.0579529,0.0892029,0.1186066,0.1779785,0.1756439,0.267334l6.231369,9.7502441l19.5004578-12.462677l-6.231369-9.7502136 C176.4661713,259.4562378,175.5601654,258.1484985,174.6063538,256.8577881z"></path> </g> </g> <g> <g> <path class="st18" d="M161.5747223,279.4020996l19.9979858-11.7063599c0,0,7.0919189-4.5369568,16.8998718,4.4034729 l-27.3124542,21.3545837L161.5747223,279.4020996z"></path> </g> <g> <polygon class="st8" points="171.1601257,293.4537964 167.9448547,288.740387 196.9918365,270.834137 198.47258,272.0992126 "></polygon> </g> </g> <g> <path class="st8" d="M175.2180634,286.4570007c-3.0413818-2.2745667-6.8392029-3.4591675-10.6362305-3.2922974 c-0.3669281,0.0160828-0.4578247-0.5528259-0.0880432-0.5690308c3.9558716-0.1739197,7.8969116,1.0278015,11.0701752,3.401001 C175.860321,286.2182922,175.5156555,286.6795349,175.2180634,286.4570007z"></path> </g> <g> <path class="st8" d="M190.4627075,275.7612c-1.7031708-2.4535522-2.3438721-5.5690002-1.7101746-8.4919434 c0.0778351-0.3589172,0.6510162-0.3005981,0.5725403,0.0611572c-0.6019897,2.7768555-0.0323639,5.7373657,1.5902863,8.0748901 C191.1255646,275.7081604,190.6748199,276.0667725,190.4627075,275.7612z"></path> </g> <g> <path class="st11" d="M158.6013794,269.4862976c0.0866547-0.0114746,0.1717987-0.0428772,0.2490082-0.0956421 c0.2623749-0.1793213,0.3295288-0.5375366,0.1498566-0.8001404 c-7.0786438-10.3451538-30.029129-34.5688019-55.7897415-43.4152832 c-0.3019104-0.1026611-0.6284409,0.056839-0.7315369,0.3575134c-0.1033859,0.3008881,0.0567703,0.6282196,0.3574371,0.7315369 c25.4879532,8.7527313,48.2052689,32.7342529,55.2138443,42.976593 C158.1767883,269.4260254,158.3929138,269.513916,158.6013794,269.4862976z"></path> </g> </g> <g> <g> <path class="st19" d="M77.6902924,243.9346466l-10.3804932-5.112793l-10.2257576,20.7611542l10.3807869,5.1130676 c0.1782074,0.087677,2.8211594,1.3850403,6.6512833,3.0598755c2.6557999-7.2744751,5.5017242-14.4033051,8.1614761-21.6747589 C80.7234726,245.3877106,79.181633,244.6678009,77.6902924,243.9346466z"></path> </g> <g> <path class="st1" d="M114.1050949,228.2342224l-3.1381912-11.1376801l-22.2755051,6.2766571l3.1382599,11.1376801 c1.252739,4.4457092,2.7773895,11.0504456,3.6678467,16.7046661c-3.8447342-1.2365723-8.5872345-3.0673218-13.2199173-5.1343536 c-2.6597519,7.2714539-5.5056763,14.4002838-8.1614761,21.6747589c2.4938889,1.0905151,5.4898911,2.3406067,8.6408615,3.5222778 c10.1875992,3.820282,17.3828735,5.2977295,22.9698563,4.5578613c2.2347946-0.29599,4.2128372-0.9467773,6.0211563-1.9445801 c4.224968-2.3312988,6.9391556-6.4355774,7.4464493-11.2606506 C120.3849945,251.3087769,115.1637497,231.9915619,114.1050949,228.2342224z"></path> </g> </g> <g> <g> <path class="st18" d="M67.8425064,238.9507446l-9.9005089,20.9508972c0,0-3.2934647,7.7480774-16.4360046,5.903717 l10.4928131-33.0437469L67.8425064,238.9507446z"></path> </g> <g> <polygon class="st8" points="51.998806,232.7616119 57.3132515,234.8376312 43.4423141,266.013916 41.5059929,265.8053589 "></polygon> </g> </g> <g> <path class="st8" d="M52.5982246,240.8277435c3.7943954,0.160965,7.5980682-1.0047302,10.6381989-3.2855682 c0.2938728-0.22052,0.6899643,0.1977844,0.3939018,0.4199829c-3.1673431,2.3763275-7.0988808,3.6088104-11.0578194,3.4408264 C52.2027893,241.3873444,52.226902,240.812027,52.5982246,240.8277435z"></path> </g> <g> <path class="st8" d="M46.0509949,258.2614441c2.7908287,1.0641479,5.0781631,3.2741699,6.2048416,6.0447693 c0.1383858,0.3401184-0.3677406,0.6155701-0.5071526,0.2726135c-1.070343-2.6320801-3.2116165-4.754364-5.8704185-5.7680664 C45.5337601,258.6793823,45.7034912,258.1289673,46.0509949,258.2614441z"></path> </g> <g> <g> <g> <path class="st13" d="M121.5533218,162.9959412c2.748436-5.4944305,4.8669815-11.3040619,6.2999573-17.3200989 l2.5092392-8.5596924l15.8177185,3.1686554l-2.0236511,8.4954681 c-1.9312134,8.1080627-4.2393646,16.9138489-8.1639557,24.2795563 C131.6987457,169.0784607,126.8166199,165.733429,121.5533218,162.9959412z"></path> </g> <g> <path class="st18" d="M105.0834045,183.6590118l3.6712799-4.4065399 c4.7671204-5.7218781,8.8382874-11.9576263,12.1481094-18.5743408 c6.315979,3.2850494,12.1745071,7.2990875,17.3271255,12.0767975 c-3.7684021,7.0727234-8.2490997,13.7641907-13.3718262,19.9128418l-3.6715088,4.4070587 c-3.7047424,4.4468689-10.312912,5.0484161-14.7596359,1.343689l-0.0000763-0.0000763 C101.980217,194.7137756,101.3786621,188.1057434,105.0834045,183.6590118z"></path> </g> </g> <g> <g> <path class="st20" d="M157.118866,128.3852692c0,0-0.9774017,0.3375702-2.259201,0.7800446 c-1.2879333,0.4458618-2.8850861,0.9951019-4.1306458,1.4219513c-0.9065247,0.3111115-1.6840973,0.9337006-2.1916199,1.7462006 l-3.0490417,10.3468933l-15.4259949-4.5456696l1.9642487-6.665741 c-0.9069824-1.5606232-3.0596619-4.8708801-5.5904465-6.0951004c-0.7126923-0.3466949-1.2460022-0.9454727-1.5037003-1.6943283 c-0.2591705-0.7440338-0.2075119-1.543663,0.1329041-2.2529907c0.3467026-0.7127609,0.9454727-1.2459946,1.6895218-1.5051651 c0.7440186-0.2591629,1.5451126-0.2124023,2.2529831,0.1329117c1.5619965,0.7652206,3.0941925,1.9527664,4.5558777,3.5400467 c0.1578979,0.1779175,0.3583984,0.3001556,0.5857697,0.367157c0.6239929,0.1839142,1.292099-0.1029434,1.5940094-0.681633 c0.3583984-0.6987991,0.5266724-1.4483109,0.55867-1.6281281l-0.2461548-10.0298538 c-0.0189362-0.7205734,0.2444-1.4000168,0.7384033-1.9168854s1.1600647-0.8147583,1.8744354-0.8303223 c1.4730072-0.039093,2.7046814,1.1334686,2.7485962,2.6079483l-0.3154297,9.5737686 c0.8988037-2.3900604,2.866394-8.2753143,3.920517-11.1032639c0.2892609-0.7138519,0.8604126-1.2605362,1.5691681-1.5248871 c0.7024536-0.260849,1.4925079-0.2120361,2.1622314,0.1377258c1.2091827,0.6244278,1.7431488,2.1486588,1.2196198,3.4612122 l-4.3550262,10.6889114l5.3039398-8.5744476c0.4058075-0.5744476,1.0255737-0.9648361,1.728302-1.0837173 c0.7075043-0.1174927,1.4169159,0.044281,2.0029602,0.4640427c1.1996918,0.8529739,1.4836884,2.5296173,0.6341553,3.7355728 c-1.6689911,2.4522476-4.1242981,6.0923233-5.3219299,7.9264297l5.4012604-1.8624573 c0.6746216-0.2375336,1.4037476-0.1961823,2.0467377,0.1194687c0.6444397,0.3108215,1.1248474,0.8572083,1.3574829,1.530365 C159.2594147,126.3663788,158.5187378,127.8987198,157.118866,128.3852692z"></path> </g> </g> <g> <path class="st7" d="M149.5223389,126.881279c0.1187286-0.0157089,0.2334442-0.0683212,0.3258209-0.1585541 c0.2275085-0.221756,0.2323456-0.5862122,0.0101318-0.8139572c-2.8189545-2.8918839-6.7407837-4.7793961-10.7600708-5.1788483 c-0.3157196-0.0328064-0.5982666,0.1994705-0.6297607,0.5160599c-0.0312653,0.3163757,0.1996918,0.5982666,0.5160675,0.6298294 c3.7535706,0.3728561,7.4166412,2.1357956,10.0495758,4.8367615 C149.1660614,126.8479614,149.3482208,126.9043655,149.5223389,126.881279z"></path> </g> <g> <path class="st7" d="M138.112854,130.3077087c0.0460205-0.0060577,0.0920563-0.0178223,0.137146-0.0354309l7.3350983-2.9055481 c0.2955627-0.1171265,0.4400787-0.4518433,0.3231659-0.747467c-0.1170502-0.2955551-0.4524994-0.4388351-0.7473907-0.3232422 l-7.3350983,2.9055481c-0.2955475,0.1171112-0.4403687,0.4519043-0.3232422,0.7474518 C137.6017456,130.1995697,137.8573303,130.3415375,138.112854,130.3077087z"></path> </g> <g> <path class="st21" d="M121.6783905,190.3252716c0.2455063-0.0325165,0.4509659-0.2221985,0.4926147-0.4792328 l1.9872513-12.3135376c0.05056-0.3138123-0.162941-0.609375-0.4767609-0.6599274 c-0.3141785-0.0496826-0.6093674,0.1626434-0.6602249,0.4764557l-1.9872513,12.3136139 c-0.05056,0.313736,0.162941,0.6092987,0.4767609,0.6599274 C121.5675507,190.3317719,121.6240997,190.3325043,121.6783905,190.3252716z"></path> </g> <g> <path class="st21" d="M123.2309189,190.5481262c0.1752625-0.0231628,0.3376923-0.1266174,0.4293137-0.2932892 l5.1267548-9.3204498c0.1533661-0.2786102,0.0517426-0.6286621-0.2268677-0.7817383 c-0.2783813-0.1537323-0.628952-0.0514374-0.7818069,0.2268677l-5.1267548,9.3203888 c-0.1533661,0.2786713-0.0517273,0.6287231,0.2268677,0.7817993 C122.9903641,190.5431519,123.1136246,190.5636902,123.2309189,190.5481262z"></path> </g> </g> <g> <g> <g> <g> <path class="st18" d="M130.0662994,217.3223114l-1.6591797,1.0211639 c-0.6711121,0.4140778-12.2977524,7.4707184-25.6811142,9.2430878 c-5.0965042,0.6749115-10.4514465,0.5827026-15.5540161-0.9367065l-1.1249924-0.3388824l-0.2618713-1.1441498 c-0.4918823-2.1358643-0.8802261-4.8486633-1.1244125-7.8767395 c-0.4157486-5.2005463-0.4141388-11.3274231,0.2281799-17.045578 c0.7875214-6.9452972,2.515007-13.2833405,5.5725327-16.6383209c2.6061935-2.8596497,7.0764465-4.3169556,12.9213715-4.208313 c6.8104095,0.1201935,14.8959732,2.4582367,16.97332,4.9009857c1.6717529,1.9678955,1.9327393,7.0960999,1.7706833,11.7923584 c-0.0854874,2.467804-0.2854004,4.8171692-0.4649963,6.5309296l1.8973846,3.3201904L130.0662994,217.3223114z"></path> </g> </g> </g> </g> <g> <g> <path class="st4" d="M117.6402512,112.3341904c0.9865341,5.0107193,3.7391739,9.6689758,7.7574234,12.8348541 c3.9833374,3.1504593,9.6464081,4.7999344,14.3163452,2.0853043c2.1856995-1.2649918,3.6557159-3.4042206,4.3604584-5.7980118 c0.2412415-0.8162918,0.3874512-1.6530457,0.4737396-2.4949875c0.3139038-1.4126587,0.4434357-2.8733902,0.4101257-4.3190765 c-0.051651-2.6297989-0.5280457-5.3813934-1.6438446-7.7845306c-1.0633392-2.3047256-2.7988739-4.1117249-5.0598297-5.255867 c-2.1899414-1.1073151-4.6413727-1.6000748-7.0510864-1.9268951c-2.7788544-0.3769455-5.7229614-0.7582092-8.4549942,0.0649567 c-1.2171936,0.3656235-2.3750076,0.9803238-3.2770844,1.8841553c-0.879425,0.8745956-1.4637299,1.9868088-1.7938461,3.1774979 C117.0023117,107.2177353,117.1596222,109.8995514,117.6402512,112.3341904z"></path> </g> <g> <path class="st4" d="M87.4793091,118.1761856c-1.7500076,4.7978058-5.1901779,8.9740448-9.6498337,11.4800644 c-4.4229126,2.4961548-10.2729492,3.2495422-14.4666481-0.154892c-1.9636497-1.5879517-3.0849075-3.9289169-3.4107819-6.4029312 c-0.1120987-0.8438416-0.1270752-1.6930847-0.0819931-2.5382462c-0.0915527-1.4442215,0.0065041-2.9073715,0.2630386-4.3305511 c0.4579773-2.5901184,1.354351-5.2348175,2.8285484-7.4364471c1.4070892-2.1124115,3.4013519-3.6290436,5.8120956-4.4096832 c2.3348999-0.7551346,4.8330994-0.8625412,7.2643051-0.8126373c2.803688,0.057579,5.7713394,0.1364136,8.3431168,1.3723984 c1.1459732,0.54953,2.1947632,1.3359451,2.9460983,2.368515c0.7335129,1.0001221,1.1387329,2.1893463,1.280632,3.4167099 C88.9012451,113.2201157,88.3308182,115.8453064,87.4793091,118.1761856z"></path> </g> <g> <path class="st13" d="M134.2921448,149.2534485c-0.1432037,20.5816956-9.8391418,26.3012238-22.7409286,28.0621948 c-1.9707413,0.2707062-4.0192184,0.3964539-6.1192856,0.3818359c-2.0999908-0.0146027-4.1465683-0.1688538-6.1176758-0.4669647 c-12.8759918-1.9447174-22.4893646-8.0982666-22.3482742-28.3759308 c0.1129532-16.2357941,13.0409012-29.3065872,28.8697891-29.1964722 C121.6646576,119.7682953,134.4051056,133.0176544,134.2921448,149.2534485z"></path> </g> <g> <path class="st7" d="M132.1773224,163.7566223c0.2037201-0.0269623,0.386322-0.1623535,0.4638977-0.3682556 c1.458847-3.8783417,2.1873779-8.5007172,2.2266998-14.1308289c0.0102997-1.4829407-0.0859375-2.9742279-0.2864227-4.4321136 c-0.0432587-0.3141022-0.3318634-0.5339661-0.6459045-0.4923248c-0.000885,0.0000763-0.0019531,0.0002289-0.0027771,0.0003662 c-0.3149872,0.0434113-0.5354309,0.3337708-0.4920349,0.6486816c0.1929779,1.4036102,0.285614,2.8394928,0.2759094,4.2673492 c-0.0379333,5.4155884-0.7623749,10.0362854-2.1532593,13.7337952c-0.1118011,0.2974548,0.0384979,0.6294708,0.336319,0.7414703 C131.9913788,163.7591095,132.0865173,163.7686005,132.1773224,163.7566223z"></path> </g> <g> <path class="st4" d="M133.8768463,143.8782654c0,0-1.8558044-7.3036804-5.8678589-12.4286804 c-0.4275131-0.5531769-0.8805237-1.0796204-1.3631973-1.5674896c-1.1008148-1.1202393-2.3393402-2.0536652-3.7126312-2.6442566 l-1.4922333-7.9790344c0,0,2.8798294-0.7937164,5.8682327,1.7315903 c0.4375153,0.3659897,0.8800201,0.8127136,1.3158417,1.3414993 C131.2453003,125.4982834,133.6338196,131.7383423,133.8768463,143.8782654z"></path> </g> <g> <path class="st14" d="M98.1359177,158.1244659c0.071167,2.9372559-2.3093262,5.4069672-5.3170166,5.5163422 c-3.0076752,0.109314-5.5036087-2.183136-5.574791-5.1203918c-0.071167-2.9372559,2.3093262-5.4069672,5.3170166-5.5162659 C95.5688324,152.8948364,98.0647659,155.1872864,98.1359177,158.1244659z"></path> </g> <g> <g> <path class="st13" d="M98.0481644,181.8594818c0,0,1.5913086,2.0805511,7.3400726,2.1205902 c5.7488403,0.0399628,7.3688583-2.0182343,7.3688583-2.0182343l-1.2014923-4.6461945 c-1.9751282,0.2707062-4.0236053,0.3964539-6.1236725,0.3818359c-2.0999908-0.0146027-4.1465683-0.1688538-6.1133499-0.4669647 L98.0481644,181.8594818z"></path> </g> <g> <path class="st14" d="M99.3185806,177.2305145c0,0,5.4445801,6.390213,13.4385147,4.7313232l-1.2014923-4.6461945 L99.3185806,177.2305145z"></path> </g> </g> <g> <g> <path class="st13" d="M81.8561401,145.4446564l-0.4353943,17.1150055 c-0.598053,0.2039948-1.2155151,0.3318634-1.8365173,0.3795776c-0.0040207,0-0.0040207,0-0.0080414,0 c-2.952652,0.2236481-6.0177155-1.2391357-7.8711853-3.6065521c-2.2424011-2.8665924-2.8397827-6.7908325-2.158226-10.3698883 c0.4779282-2.4992981,1.6968994-5.0494537,3.8560638-6.3318329c0.1688538-0.098938,0.3457489-0.1937714,0.5305328-0.2766418 c1.4380875-0.6666412,3.1482849-0.718811,4.621788-0.1440125 C80.0327911,142.785202,81.2537308,143.9829712,81.8561401,145.4446564z"></path> </g> </g> <g> <path class="st7" d="M79.0592499,160.0467682c0.2714386-0.0359497,0.4862518-0.261795,0.4989624-0.5447083 c0.2327347-5.1884918-1.7614746-10.5366364-5.3347702-14.3065491c-0.2184677-0.22995-0.5825577-0.2409821-0.8138123-0.0215607 c-0.2308121,0.2186127-0.240387,0.5830688-0.021553,0.8138885c3.3623581,3.5472107,5.2390594,8.5799255,5.0199356,13.4623413 c-0.014328,0.3177643,0.2316895,0.5869446,0.5491638,0.6010437 C78.9920273,160.0528259,79.0260773,160.0511475,79.0592499,160.0467682z"></path> </g> <g> <g> <path class="st4" d="M115.6898956,160.9965515c-0.1407242,0.7408905-0.8585281,3.7806549-3.4468155,5.1292419 c-1.1132355,0.585556-2.576149,0.8527527-4.4878693,0.4897614c-2.8676224-0.5444946-4.2483521-2.0372314-4.8710938-3.60289 c-0.9072571-2.2583923-0.2555847-4.6719818-0.2555847-4.6719818s0.0170288,0.0032806,0.0554733,0.0163574 c0.6432571,0.1924591,6.7149048,1.9781952,13.0324173,2.4687653 C115.716423,160.8258057,115.7102814,160.8890686,115.6898956,160.9965515z"></path> </g> <g> <path class="st1" d="M112.2430801,166.1257935c-1.1132355,0.585556-2.576149,0.8527527-4.4878693,0.4897614 c-2.8676224-0.5444946-4.2483521-2.0372314-4.8710938-3.60289c1.1220779-0.2616425,2.35112-0.3153534,3.6096878-0.1232605 C108.9542999,163.2628479,111.0111847,164.4972229,112.2430801,166.1257935z"></path> </g> <g> <path class="st8" d="M115.6898956,160.9965515c-1.6222839,0.951828-3.9593735,1.1936798-6.4878235,0.807312 c-2.9502487-0.4488525-5.408577-1.6363831-6.5180664-3.4468231c0.6432571,0.1924591,6.7149048,1.9781952,13.0324173,2.4687653 C115.716423,160.8258057,115.7102814,160.8890686,115.6898956,160.9965515z"></path> </g> </g> <g> <path class="st7" d="M111.9467239,158.4904633c0.0239792-0.0032196,0.0477066-0.0077515,0.0718918-0.0140991 c0.9606781-0.2528076,1.9493332-0.5873108,2.672905-1.3160706c0.7718735-0.7770538,1.1895905-2.1642914,0.4430771-3.2038727 c-0.4077835-0.5678711-1.0227814-0.8306885-1.5650024-1.0625305c-0.2070694-0.0882568-0.4149475-0.1761627-0.6076965-0.2830505 c-0.8995132-0.4993439-1.4768066-1.5650787-1.4036713-2.5912933c0.022583-0.3171844-0.2162704-0.5923462-0.5334549-0.6149902 c-0.3154221-0.0243378-0.5924149,0.2159729-0.6149979,0.5334473c-0.1054306,1.4802399,0.6955185,2.9589539,1.993248,3.6794586 c0.2357101,0.131012,0.4788742,0.2349091,0.7138519,0.3352966c0.443367,0.1894684,0.8621063,0.3684845,1.0824738,0.675354 c0.3588257,0.4996948,0.1108398,1.2823181-0.324707,1.7210693c-0.555954,0.5596161-1.4009705,0.8167419-2.1493073,1.0136566 c-0.3073883,0.0809479-0.4910812,0.3959351-0.4101257,0.7033997 C111.3898849,158.3498077,111.6635895,158.5279388,111.9467239,158.4904633z"></path> </g> <g> <path class="st14" d="M125.4741745,134.41008c-1.009903,2.4160767-2.5678329,4.5968781-4.5475616,6.3108521 c-1.7030182,1.4799652-3.8246384,2.6493835-6.0843582,2.6002808c-1.5841293-0.0341949-3.1299286-0.7006226-4.2740707-1.7975769 c-0.3660583-0.3521729-0.6909866-0.7446747-0.9569473-1.1740875c-1.1062164-1.7758026-1.2467957-4.1091003-0.3651657-6.0028992 c-1.5772934,2.0788879-3.2268372,4.2253418-5.5018158,5.5080872c-0.6436386,0.3581696-1.3556671,0.6382294-2.0877914,0.8106689 c0,0-0.0056992,0.0008087-0.0113983,0.0015411c-1.8542709,0.4256134-3.8440628,0.1780548-5.2612686-1.0512085 c-1.3202286-1.1550903-1.9082642-2.9645844-1.9276276-4.7332153c-0.0017548-0.1448975,0.0021896-0.2905884,0.0060654-0.4363556 c0.0740128-1.8971558,0.7090302-3.7234497,1.3421478-5.5204315c-0.852684,1.8493042-1.9094925,3.6036987-3.133728,5.2350464 c-1.0162048,1.3598938-2.1552353,2.6257629-3.3956757,3.7830658c-0.858963,0.7931976-1.8023911,1.5628052-2.8949356,1.9512939 c-2.2332077,3.9660339-3.9880371,5.0985565-4.4487152,5.4789429c0.4740524-0.4983215,3.0738144-3.2759247,5.3634109-7.3421936 c1.0925598-0.3885651,2.0359879-1.1581726,2.8949661-1.9513702c1.2404327-1.1573029,2.3794556-2.423172,3.3956604-3.7830811 c1.2241516-1.6313477,2.2810516-3.3857269,3.133728-5.2350311c-0.6331177,1.7970581-1.2681351,3.6233521-1.3421478,5.5205078 c-0.0038757,0.1456909-0.0078888,0.2913818-0.0060654,0.4363403c0.0193634,1.7685699,0.607399,3.5780487,1.9276276,4.7331543 c1.4171906,1.2292633,3.4069977,1.4768829,5.2612839,1.0512085c0.0056839-0.0007324,0.0113831-0.0014648,0.0113831-0.0014648 c0.7321243-0.1725159,1.4441528-0.4525757,2.0878067-0.8107452c2.274971-1.2827454,3.9245071-3.4292145,5.5017166-5.5080872 c-0.881546,1.8937988-0.7409668,4.2271729,0.3652573,6.0028839c0.2658844,0.4294128,0.5908813,0.8219299,0.956871,1.1741028 c1.1441422,1.0970154,2.6900024,1.763382,4.2741623,1.7975769c2.259697,0.0491028,4.3813171-1.1203308,6.0842667-2.6002808 C123.2945404,137.5966339,124.5224152,136.0809479,125.4741745,134.41008z"></path> </g> <g> <path class="st4" d="M127.6517639,123.3144836c0.2017365,2.005806,0.0960922,4.0581589-0.2574844,5.9051208 c-0.3508682,1.8235931-1.0014496,3.5764465-1.920105,5.1904755c-0.9517593,1.6708679-2.1796341,3.186554-3.6329193,4.447525 c-1.7029495,1.47995-3.8245697,2.6493835-6.0842667,2.6002808c-1.5841599-0.0341949-3.1300201-0.7005615-4.2741623-1.7975769 c-0.3659897-0.3521729-0.6909866-0.7446899-0.956871-1.1741028c-1.1062241-1.7757111-1.2468033-4.1090851-0.3652573-6.0028839 c-1.5772095,2.0788727-3.2267456,4.2253418-5.5017166,5.5080872c-0.6436539,0.3581696-1.3556824,0.6382294-2.0878067,0.8107452 c0,0-0.0056992,0.0007324-0.0113831,0.0014648c-1.8542862,0.4256744-3.8440933,0.1780548-5.2612839-1.0512085 c-1.3202286-1.1551056-1.9082642-2.9645844-1.9276276-4.7331543c-0.0018234-0.1449585,0.0021896-0.2906494,0.0060654-0.4363403 c0.0740128-1.8971558,0.7090302-3.7234497,1.3421478-5.5205078c-0.8526764,1.8493042-1.9095764,3.6036835-3.133728,5.2350311 c-1.0162048,1.3599091-2.1552277,2.6257782-3.3956604,3.7830811c-0.8589783,0.7931976-1.8024063,1.5628052-2.8949661,1.9513702 c-2.2895966,4.0662689-4.8893585,6.8438721-5.3634109,7.3421936c-0.0205307,0.0201569-0.0418701,0.0345612-0.0518036,0.0474854 c-0.015564,0.0136719-0.0262299,0.0209045-0.0262299,0.0209045c-0.054657-0.1495667-0.1085587-0.2934418-0.1673965-0.4308014 c-0.1112061-0.2698364-0.2365875-0.5145264-0.3660583-0.7470245c-0.0991516-0.1785736-0.2017365-0.3392487-0.3134537-0.4812927 c-0.0562592-0.0737915-0.1125259-0.1475983-0.1679764-0.2157593c-0.0482254-0.0575104-0.0965271-0.1150055-0.1505203-0.1717834 c-1.8295746-2.0631714-4.6044006-1.6607971-5.9556122-1.2959747c-0.493927,0.1291809-0.7965698,0.2563934-0.7965698,0.2563934 s-3.5761261-9.2883759-0.341217-17.1792221c0.0049667-0.0065002,0.0042343-0.0121994,0.0092239-0.018631 c1.9539185-4.7593765,6.3809891-8.9984512,15.5567703-10.3994217c0,0,17.944664-11.0931854,31.2925873-2.9593964 c0.2532501,0.1580429,0.5007935,0.3168869,0.7490768,0.4815063c1.4854355,0.9995422,2.6965027,2.1631927,3.6426315,3.4317703 c0.4715729,0.6227417,0.8761368,1.2660141,1.225975,1.9339828c0.0072403,0.0106659,0.0079651,0.0163651,0.0151978,0.0270386 C126.9465256,119.3486023,127.4499512,121.3086014,127.6517639,123.3144836z"></path> </g> <g> <g> <path class="st4" d="M98.6950226,141.7265472c-1.7643967,0.4162598-5.6596222,1.7331238-5.7996216,1.297287 c-0.4011307-1.2491302,3.5107651-3.6408844,5.4150009-3.9952545c1.586998-0.2953339,2.9159393,0.6202545,2.9998016,1.4486847 C101.3940125,141.3056946,100.022995,141.4132385,98.6950226,141.7265472z"></path> </g> </g> <g> <g> <path class="st4" d="M122.5534286,141.015686c1.786026,0.3104553,5.7527084,1.3930817,5.866478,0.949707 c0.3261719-1.2708282-3.7212524-3.4253998-5.6431885-3.6657867c-1.6017532-0.2002716-2.8738327,0.7927704-2.9082489,1.6246948 C119.8341293,140.7562256,121.2090912,140.7819519,122.5534286,141.015686z"></path> </g> </g> <g> <path class="st22" d="M119.2594681,131.6509552c0.1995392-0.0263824,0.4001083-0.0685425,0.6011887-0.1280823 c1.7646179-0.5197906,2.8279495-2.1493073,3.4093323-3.4248962c1.4358978-3.1502457,1.4755859-6.9293747,0.1065292-10.1093521 c-0.1257477-0.2921906-0.4641724-0.4262695-0.7564316-0.3011093c-0.2921371,0.1257477-0.426796,0.4643402-0.301033,0.7564545 c1.2428513,2.8864746,1.2065964,6.3170013-0.0968323,9.1763c-0.4817963,1.0574036-1.3390808,2.4013062-2.6870804,2.7981415 c-1.8702698,0.5570526-3.8461914-1.0408325-4.51577-2.8747177c-0.7414017-2.0310211-0.3849106-4.3537903-0.0704956-6.4030762 c0.0431137-0.280426-0.1244431-0.5503311-0.3947144-0.6361847c-0.2702713-0.085556-0.5629807,0.0377045-0.6893082,0.2917557 c-1.5595093,3.1240845-4.0707855,5.8280411-7.0713348,7.6142883c-1.3486557,0.8027039-2.3795395,1.0625916-3.2447891,0.8176117 c-1.4133148-0.398941-2.1255646-2.1004333-2.4745331-3.4572678c-0.8553085-3.3282318-0.8100815-6.8345261,0.1305008-10.1400375 c0.0807343-0.2834244-0.0657578-0.5821915-0.3394699-0.692009c-0.2733383-0.1095276-0.5859833,0.0053329-0.7234955,0.2662506 c-2.8189621,5.3500443-6.9116898,10.0340195-11.8360443,13.5452805c-0.9269943,0.6609497-1.7231903,1.154007-2.594429,1.4120026 c-0.9625015,0.2862701-1.9082565,0.2102051-2.5928802-0.2059021c-1.1087265-0.6746216-1.4563751-2.1648712-1.3087082-3.3427734 c0.1739883-1.3844528,0.8865891-2.6646423,1.5755234-3.9028931c0.1546097-0.2776489,0.0548782-0.6282196-0.2230682-0.7828293 c-0.2776489-0.1546097-0.6282196-0.0548782-0.7828293,0.2230682c-0.7080078,1.2719345-1.5104218,2.7134552-1.7120819,4.3192978 c-0.2364426,1.8866425,0.4907074,3.6411743,1.8526611,4.4699707c0.9618454,0.5845947,2.2434235,0.7035522,3.5184937,0.3260193 c1.1388855-0.3374176,2.1124878-0.991806,2.9358673-1.578598c4.1408768-2.9526672,7.7110443-6.711113,10.4616776-10.990448 c-0.2693939,2.4558258-0.0956421,4.9519806,0.5233002,7.3602371c0.6079102,2.3654404,1.7410126,3.8450241,3.2763519,4.2788162 c1.5639038,0.4419861,3.1158295-0.3227234,4.1466446-0.9364777c2.3913116-1.4234085,4.4902039-3.395607,6.08918-5.6932373 c-0.0971756,1.3992157-0.0329514,2.8643341,0.4665985,4.232132 C114.7167282,130.071991,116.9063187,131.9622955,119.2594681,131.6509552z"></path> </g> <g> <path class="st4" d="M129.3531189,148.6718445c0.1158752-0.0153503,0.2285309-0.0662689,0.3200378-0.1529236 c0.2307129-0.2189178,0.2402954-0.5830688,0.0214539-0.8138885c-1.6789093-1.770752-4.0408249-2.8125305-6.4801483-2.8587036 c-2.4387283-0.0456696-4.8389511,0.9057159-6.5838394,2.6112976c-0.2274551,0.2223511-0.2313843,0.5866547-0.0092621,0.8141785 c0.2218094,0.2275238,0.5864105,0.2313995,0.8141556,0.0092773c1.503334-1.4700165,3.6548386-2.3229065,5.7572403-2.2834625 c2.1016006,0.0395355,4.2199326,0.9740448,5.6664963,2.4997406 C128.9911346,148.6367035,129.1764374,148.6952209,129.3531189,148.6718445z"></path> </g> <g> <path class="st4" d="M104.8693237,148.9958954c0.1264954-0.0168152,0.2480621-0.0754089,0.3425369-0.175293 c0.2183914-0.2310333,0.2081604-0.5951996-0.0229492-0.8138733c-1.772728-1.6758575-4.1882935-2.5871277-6.6269455-2.5001068 c-2.4366074,0.0881958-4.7825241,1.1689758-6.4311295,2.967865c-0.2148132,0.2343292-0.1988831,0.5985565,0.0354385,0.8133698 c0.2346191,0.2147522,0.5984879,0.1983795,0.8133698-0.0354309c1.4207001-1.5497284,3.5248566-2.5205536,5.6235352-2.5949402 c2.1011581-0.0751801,4.2674179,0.7420502,5.7947922,2.186142 C104.529274,148.9674683,104.7032471,149.0178833,104.8693237,148.9958954z"></path> </g> <g> <path class="st1" d="M122.0664444,114.5269699c0.1177826,0.564949,0.4407349,1.0553665,0.8649597,1.4334869 c1.0233612,0.9093781,2.4257355,1.011673,3.7325058,1.0407486c-0.0912628,0.902153-0.1305695,1.8061218-0.11026,2.7063675 c0.0108185,0.4715729,0.0301056,0.9419708,0.0874634,1.407402c0.0466843,0.3851318,0.1511002,0.7840729,0.4139938,1.0803528 c0.4147949,0.4696732,1.0701981,0.580658,1.663353,0.5794907c0.7307281-0.0021973,1.4562073-0.1411667,2.1417847-0.3868103 c1.2809143-0.4576874,2.6775055-1.3737183,3.1769867-2.6997223c0.2324219-0.615509,0.2079468-1.2874222-0.1589203-1.8493729 c-0.3839722-0.5941772-1.0405426-0.9415283-1.6998138-1.1466293c-1.3227081-0.4096069-2.736908-0.6006775-4.1278687-0.6486816 c0.2557983-1.5431519,0.0985718-3.1519928-0.4772644-4.6108322c-0.4319534-1.0865631-1.3007965-2.2571564-2.6327057-1.8916092 c-0.6178589,0.1720734-1.1101074,0.6114197-1.4812851,1.1206207c-0.4066086,0.5655289-0.7635345,1.2147903-1.0534668,1.8509064 C122.1229248,113.1349945,121.9239655,113.8406601,122.0664444,114.5269699z"></path> </g> <g> <path class="st1" d="M83.0648041,120.1263885c-0.2128448,0.5364532-0.6149826,0.9642563-1.0977478,1.264122 c-1.1640167,0.7205734-2.5632324,0.5810928-3.8556213,0.3858566c-0.0646667,0.9044876-0.1808395,1.8017349-0.3550262,2.6852493 c-0.0914841,0.4627304-0.1910553,0.9228973-0.3273392,1.3715973c-0.1119385,0.3713989-0.2832031,0.7465897-0.5929184,0.9934845 c-0.4891891,0.3916321-1.1538696,0.38871-1.7381058,0.2859039c-0.7195587-0.1273499-1.4104691-0.3885651-2.0437927-0.7480469 c-1.183609-0.6703873-2.4025726-1.8121109-2.667511-3.2040939c-0.1234818-0.6461945,0.0157089-1.3040085,0.4733963-1.7947998 c0.4801178-0.5195694,1.1864471-0.7492905,1.8711624-0.8384323c1.3733368-0.1768875,2.7993698-0.1228943,4.1779785,0.0681 c0.0123596-1.5642014,0.4428558-3.122261,1.26017-4.4608994c0.6117783-0.9964752,1.6683197-2.0009155,2.9178162-1.41259 c0.5792847,0.2754593,0.9889526,0.7925491,1.2674103,1.3578568c0.3037338,0.6268387,0.5441208,1.3276901,0.7207947,2.0040588 C83.2477036,118.7452927,83.3227997,119.4746399,83.0648041,120.1263885z"></path> </g> </g> <g> <g> <g> <path class="st13" d="M82.1980209,169.3710938c-4.0838852-4.5895691-7.6416168-9.6474915-10.5911484-15.0830994 l-4.6508026-7.6115112l-14.4476433,7.1766968l4.1652031,7.6758728 c3.9751587,7.3258972,8.4958344,15.2273407,14.2024384,21.3176117 C73.985611,177.8848267,77.8286667,173.3842468,82.1980209,169.3710938z"></path> </g> <g> <path class="st18" d="M103.4787292,185.0348511l-4.6917191-3.2990112 c-6.0921707-4.2837067-11.6461411-9.2448273-16.5641479-14.7719116 c-5.2432251,4.8157959-9.8549347,10.2164001-13.5863419,16.1706238 c5.4795151,5.848053,11.5475235,11.1425018,18.0940781,15.7458038l4.6921539,3.29953 c4.7345352,3.3291779,11.2714844,2.1899261,14.600647-2.5446014v-0.0000763 C109.3524399,194.9008179,108.2131958,188.3640289,103.4787292,185.0348511z"></path> </g> </g> <g> <g> <path class="st20" d="M38.8494568,145.2111359c0,0,1.03162,0.0715332,2.3842926,0.1650543 c1.359684,0.0952911,3.0446625,0.2098541,4.3583908,0.2977448c0.9563599,0.0644531,1.8691025,0.4631653,2.5706978,1.1155853 l5.637104,9.1965942l13.7110672-8.4043427l-3.6316032-5.9247131c0.4695244-1.7428436,1.686306-5.4993896,3.8111992-7.3401337 c0.5979004-0.5202332,0.9569473-1.2371674,1.0108719-2.0273743c0.0565491-0.7858276-0.2014313-1.5444641-0.7148056-2.140686 c-0.5203094-0.5979004-1.2372284-0.956955-2.023056-1.013504c-0.785881-0.0565491-1.5471725,0.1971283-2.1407623,0.7147369 c-1.308979,1.145462-2.4792061,2.6908722-3.4773598,4.6038971c-0.1060944,0.2129059-0.2679329,0.3831482-0.4699631,0.5070038 c-0.5546417,0.3399658-1.2743454,0.2369537-1.716526-0.2432404c-0.527916-0.5813904-0.8855019-1.261261-0.9631691-1.4265442 l-2.3731155-9.7481842c-0.1692924-0.7006989-0.6003838-1.2881546-1.2118721-1.6585999 c-0.6115646-0.3704376-1.3321991-0.4847183-2.0259781-0.3138123c-1.4323845,0.3456726-2.3164101,1.7984467-1.9750481,3.2335358 l2.7966919,9.1616058c-1.4899788-2.073761-4.9216728-7.2439117-6.675621-9.7000275 c-0.465065-0.6139755-1.1588287-0.993187-1.9119225-1.0638428c-0.7462234-0.069046-1.4962463,0.1836853-2.0518379,0.6958084 c-1.0049515,0.9176331-1.1237564,2.5283051-0.2766876,3.6593704l6.9872208,9.1868134l-7.3530045-6.8983154 c-0.5413475-0.4489136-1.241394-0.6646118-1.9508629-0.5964355c-0.7137108,0.0707245-1.3565445,0.4115753-1.8130493,0.9693604 c-0.9362831,1.1358948-0.774147,2.8286133,0.360054,3.7718964c2.2497787,1.9333191,5.5678558,4.8087616,7.2016144,6.2678986 l-5.6998863-0.3922882c-0.7131233-0.0537872-1.4063034,0.1759338-1.9450188,0.6480865 c-0.5412712,0.4678497-0.8629112,1.1204681-0.9123764,1.8309631 C36.2571449,143.8190155,37.3711815,145.1057739,38.8494568,145.2111359z"></path> </g> </g> <g> <path class="st7" d="M45.7926331,141.7817841c0.1741867-0.0230865,0.3353729-0.124939,0.4275093-0.2899933 c1.8393631-3.2935333,4.9170532-5.9491882,8.4441109-7.2859344c0.2972946-0.1128082,0.4469337-0.4451141,0.3344116-0.7424164 c-0.1128159-0.2972412-0.4465065-0.4470215-0.742424-0.3344269c-3.7764778,1.4316559-7.0717583,4.2748718-9.0411224,7.8011169 c-0.1551933,0.2778015-0.0557518,0.6284332,0.2216835,0.7833405 C45.549469,141.7765198,45.6742058,141.7974243,45.7926331,141.7817841z"></path> </g> <g> <path class="st7" d="M57.7007217,142.120224c0.2555122-0.0338287,0.4653549-0.2374573,0.4959717-0.505249 c0.0358009-0.3157959-0.1908493-0.6013336-0.5067139-0.6374969l-7.8385277-0.8960876 c-0.3147697-0.0343323-0.6013908,0.1907806-0.6375732,0.5066376c-0.0358047,0.3160858,0.1908455,0.6014099,0.5067253,0.6375732 l7.8385277,0.8960876C57.6071968,142.1269531,57.6546898,142.126297,57.7007217,142.120224z"></path> </g> <g> <path class="st21" d="M89.1909561,195.7907562c0.0543594-0.0071564,0.1084976-0.0225677,0.1611786-0.0462494 c0.2897797-0.1305695,0.4190369-0.4714966,0.2885437-0.7612762l-5.123909-11.3715515 c-0.1307907-0.2897949-0.4712753-0.419632-0.7614899-0.2881775c-0.2898407,0.1304932-0.4190369,0.4714203-0.2885437,0.7612762 l5.123909,11.3714905C88.6977539,195.6936646,88.9457397,195.8232727,89.1909561,195.7907562z"></path> </g> <g> <path class="st21" d="M87.7500305,196.4100647c0.1172562-0.015564,0.2311707-0.0675049,0.3230133-0.1559143 c0.2291336-0.2202911,0.236145-0.5847473,0.015564-0.8138885l-7.3760986-7.6643372 c-0.2202911-0.2288361-0.5850372-0.236145-0.8138809-0.015564c-0.2291336,0.2202911-0.236145,0.5847473-0.015564,0.8138885 l7.3760986,7.6643372C87.3909683,196.3756561,87.5747299,196.4333038,87.7500305,196.4100647z"></path> </g> </g> <g> <path class="st11" d="M116.6927261,239.2843628c0.0119858-0.0015411,0.0239716-0.0034332,0.0360947-0.0059204 c0.3119965-0.0611572,0.5151901-0.3639374,0.453743-0.6759338l-2.3290558-11.8528442 c-0.0613708-0.3117065-0.362915-0.5178986-0.6759338-0.4537506c-0.3120651,0.0611572-0.5152588,0.3639526-0.4538116,0.6759338 l2.3290558,11.8528595C116.1117783,239.1245728,116.3937454,239.3239594,116.6927261,239.2843628z"></path> </g> <g> <path class="st11" d="M101.6632767,258.9915161c0.0807953-0.0107422,0.1595535-0.0387268,0.2305069-0.0832825 c0.1565781-0.0981445,0.2563171-0.2658997,0.2684402-0.4503784c0.6198959-9.589859,0.1750717-19.2657776-1.3228607-28.7588806 c-0.0492325-0.3138885-0.3336182-0.5300293-0.6583252-0.4788055c-0.3141861,0.0495453-0.5283356,0.3441467-0.4787979,0.6583252 c1.4429092,9.1461945,1.8999329,18.464386,1.3598328,27.7084808l-19.6439438-7.9494476 c-0.2943268-0.1195374-0.6301422,0.0230255-0.7496567,0.3175507c-0.1191864,0.2948151,0.0227814,0.6304932,0.3175964,0.7496643 l20.385582,8.2496643C101.4653931,258.9924622,101.565712,259.0043945,101.6632767,258.9915161z"></path> </g> <g> <path class="st21" d="M122.368866,196.258606c0.292923-0.0388031,0.512413-0.2958527,0.49897-0.5962982 c-0.2755203-6.1484985-3.0610352-12.0312805-7.6427689-16.1403656c-0.2365341-0.2119598-0.6005478-0.1920929-0.8130951,0.0442047 c-0.2121811,0.2368164-0.1923828,0.6008301,0.0442047,0.8130798c4.3529129,3.9037018,6.9997253,9.4928894,7.2615433,15.3344574 c0.0142288,0.317688,0.2830353,0.5636292,0.6007309,0.5493774 C122.3356934,196.2624817,122.3524246,196.2608032,122.368866,196.258606z"></path> </g> <g> <path class="st21" d="M94.6512527,224.7871857c-0.7258377,0.7049408-1.6283493,1.1488037-2.5671005,1.2158813 c-1.6388702,0.1183777-3.3296204-0.9467926-4.1115036-2.5902557c-0.6415176-1.3475647-0.716629-3.0452576-0.2114487-4.7802734 c0.4229736-1.4528503,1.1571579-2.7393341,2.0020828-4.1507416c0.164032-0.2732697,0.5172348-0.3617554,0.7898407-0.1982269 c0.2726135,0.1635132,0.3613968,0.5170135,0.1981583,0.7898407c-0.803421,1.341568-1.4999008,2.5598755-1.8846664,3.8811188 c-0.4260483,1.4634399-0.374321,2.8709869,0.1457672,3.9633331c0.5830612,1.2253876,1.8120346,2.0219574,2.9889145,1.9369812 c0.7243729-0.0542145,1.4230499-0.4272156,1.9762115-1.0205231c-0.7886734-1.328125-1.1634293-2.8519135-1.4543076-4.2178802 c-0.1489792-0.7007751-0.2677078-1.3874512-0.0848236-2.0856781c0.2067719-0.7895508,0.9086456-1.5792389,1.8513489-1.5546265 c0.6476517,0.0151367,1.2674713,0.4304352,1.6174011,1.0836487c0.2817307,0.5255585,0.3539886,1.1032257,0.399437,1.6030731 c0.1709061,1.8621521,0.0037994,3.2893524-0.5263672,4.4915161c-0.1116486,0.2532501-0.2410431,0.4941406-0.385994,0.7206421 c0.026001,0.0339813,0.0525208,0.0673065,0.0796432,0.1005402c0.9084167,1.1171875,2.5769501,1.9635162,4.0132141,1.4199677 c1.1773071-0.4459229,1.9037323-1.6925659,2.30896-2.6751709c-0.8387985-1.1734314-1.4297562-2.6422882-1.8428726-4.5670624 c-0.1161041-0.5429535-0.2279663-1.1754913-0.0840302-1.8099213c0.1790848-0.789032,0.7674866-1.4057159,1.4641037-1.5345306 c0.7028198-0.1253815,1.4866028,0.2454987,1.9253616,0.9399261c0.3577499,0.5665436,0.4502335,1.220047,0.4936523,1.785141 c0.127861,1.6830139-0.096611,3.3948059-0.650528,4.9891815c1.0905838,1.2738953,2.6258469,1.9791412,4.0282059,1.8452759 c1.5366516-0.1472931,2.9683075-1.3447113,3.6202774-2.9540558c-1.5050888-1.3276215-2.4529724-3.1473236-3.2524643-4.9296265 c-0.2613525-0.5818176-0.4953156-1.1579437-0.4902725-1.8051758c0.0055542-0.7138519,0.3767319-1.5614929,1.1939011-1.8469543 c1.1258163-0.390976,2.1346283,0.5330811,2.7024231,1.5300751c1.258049,2.2106781,1.6853409,4.5468292,1.2031021,6.5774078 c-0.0050354,0.021698-0.0100784,0.0433197-0.0154877,0.0647278c1.2968521,0.8833771,3.227478,1.3683929,4.7343903,0.4568176 c0.8431778-0.5106659,1.4576645-1.4375763,1.7368546-2.5455475c-0.2840118-0.1788025-0.548439-0.3791504-0.7869263-0.5956421 c-1.5858994-1.440567-2.3722305-3.4790344-3.0660706-5.2776337c-0.6525497-1.6917725-0.174118-2.4878235,0.3423157-2.8579102 c0.6011124-0.4303589,1.47966-0.3616028,2.1363983,0.1695862c0.5196991,0.4214478,0.8094101,1.0310364,1.0208588,1.4757233 c0.7924728,1.6653137,1.5736237,3.4526672,1.6640091,5.38591c0.0169525,0.3635101,0.0052567,0.7226257-0.0333939,1.0734253 c1.1177673,0.4768982,2.4175415,0.5234375,3.3567429-0.2037811c1.218071-0.9428558,1.3316879-2.7697906,0.9218597-4.0683899 c-0.4886627-1.5484924-1.6473465-2.8916626-2.6696854-4.0767975c-0.2077255-0.2409821-0.1809845-0.6044006,0.0596924-0.8120575 c0.2411194-0.2074432,0.604187-0.1806946,0.8121338,0.0600586c1.0947495,1.2690887,2.3358612,2.7076874,2.8958282,4.4820862 c0.5262146,1.6673737,0.3391724,4.0450897-1.3151169,5.3255768c-1.2674789,0.9807587-2.8896942,0.978714-4.2916107,0.4432831 c-0.3826447,1.2926178-1.1519623,2.3799133-2.1878891,3.0070343c-1.6124954,0.9768982-3.8775482,0.8251343-5.726265-0.3239746 c-0.8623199,1.854126-2.5915756,3.2193604-4.4562988,3.3922424c-1.6028519,0.1527863-3.3201904-0.5354309-4.6189423-1.8203735 c-0.6859283,1.4043274-1.620018,2.3590851-2.7251434,2.7779694c-0.2824783,0.1069031-0.566925,0.177124-0.8506393,0.2144623 C97.3253403,226.9144897,95.6383057,225.9495087,94.6512527,224.7871857z M93.5522079,217.8222351 c-0.1191864,0.4552612-0.0264664,0.9732361,0.0972366,1.5543213c0.2338104,1.0973053,0.5231552,2.3018036,1.0503998,3.3730316 c0.0090561-0.0195923,0.0180435-0.0395355,0.0269623-0.0596924c0.4478912-1.0160675,0.5854034-2.2623444,0.4333496-3.9219666 c-0.0371857-0.4051514-0.0881729-0.8287964-0.2681503-1.1642456c-0.1495514-0.2796173-0.4026642-0.4712677-0.6293945-0.4766846 c-0.0227203-0.0004272-0.0455017,0.000885-0.0678024,0.0038757 C93.8977203,217.1701813,93.6350479,217.5058594,93.5522079,217.8222351z M101.542717,215.9408569 c-0.2751083,0.0509186-0.485321,0.369339-0.5509186,0.6576538c-0.0920105,0.4057465-0.0074005,0.87146,0.0871506,1.3135223 c0.2947464,1.3731232,0.6811218,2.4833679,1.1886368,3.399826c0.3149185-1.2003174,0.4304352-2.4539185,0.3364716-3.6902771 c-0.0325699-0.4238434-0.0957184-0.9046173-0.3188629-1.2579041c-0.1532211-0.242569-0.4468689-0.4625092-0.7199936-0.4263306 C101.5576782,215.9382935,101.5502243,215.9396057,101.542717,215.9408569z M108.5803528,213.919693 c-0.2376862,0.0830841-0.4187469,0.4136353-0.421669,0.7687378c-0.0029984,0.4158173,0.1744843,0.8459473,0.3892975,1.3248291 c0.6641693,1.4801025,1.4307098,2.9818268,2.5389709,4.1303558c0.2305374-1.6212616-0.1815491-3.450119-1.183815-5.2115173 c-0.3152084-0.553772-0.8233795-1.0872955-1.2378159-1.0324249 C108.6366119,213.9034729,108.6083298,213.9100494,108.5803528,213.919693z M115.7226486,211.1208344 c-0.3781357,0.2709198-0.0488281,1.2223206,0.0612106,1.5074921c0.647728,1.6793518,1.3818436,3.5826416,2.7659149,4.8398285 c0.0580139,0.0524597,0.1178589,0.1037445,0.1791611,0.1537933c0.0016022-0.1164551-0.000351-0.2338715-0.0060654-0.3519592 c-0.0802307-1.7196808-0.8113251-3.3857269-1.5534592-4.9450989c-0.2205124-0.4638977-0.412674-0.8377075-0.7061844-1.0756073 c-0.1759415-0.1425629-0.4033966-0.2114563-0.5789719-0.1881561 C115.8223648,211.0693207,115.7668381,211.0888214,115.7226486,211.1208344z"></path> </g> <g> <path class="st21" d="M102.4094849,212.8934784c-1.7041931,0.1970673-3.5110321-0.6144867-4.7153244-2.118103 c-0.0710144-0.0886993-0.1400681-0.1796722-0.2071381-0.2725372c-0.4418335,0.5002747-0.9690018,0.9219513-1.5636902,1.2275848 c-2.2624893,1.161087-5.313652,0.5457306-6.9483643-1.4007568c-1.6345596-1.9470673-1.7124481-5.0596008-0.17733-7.0858765 c0.1921616-0.2534637,0.5529633-0.3035126,0.806427-0.1113434c0.2533951,0.1921539,0.3032303,0.5530243,0.1113586,0.806427 c-1.2242279,1.615921-1.162117,4.0979156,0.1413803,5.6501923c1.3033524,1.5528107,3.7366714,2.0440979,5.5403824,1.1170349 c0.5772171-0.2964935,1.0739212-0.7297058,1.466217-1.2467194c-0.4848709-0.9892426-0.7878036-2.1460266-0.9038315-3.4568329 c-0.0491714-0.557785,0.0492477-1.319931,0.4731064-1.787262c0.240242-0.2646484,0.5520096-0.4068451,0.9036255-0.4094696 c0.6911163-0.0058441,1.2642441,0.5539856,1.4961548,1.4609528c0.3626404,1.4174194,0.0933075,2.9593201-0.6313629,4.2343292 c0.1210709,0.1947174,0.251564,0.3795776,0.3919449,0.5546417c0.9440689,1.178772,2.3903351,1.8436127,3.6842651,1.6938171 c1.3027649-0.144455,2.5287399-1.0942383,3.2230911-2.4653168c0.0101547-0.0198059,0.0200348-0.0395355,0.029808-0.0595551 c-1.4334106-1.030304-2.4116135-2.7016907-2.5224609-4.4725189c-0.0463181-0.7393494,0.0632019-1.3447723,0.3350067-1.8511963 c0.3695755-0.6884308,1.0636292-1.1345062,1.7633972-1.1395416c0.7278671-0.0042419,1.451149,0.4682007,1.8423462,1.2039032 c0.3168106,0.5957184,0.3934708,1.251709,0.4288254,1.8722534c0.0851212,1.4906921-0.0498352,2.7775269-0.4115143,3.8983612 c0.1304245,0.0599213,0.2642822,0.1136169,0.4006271,0.1605377c1.7733078,0.6118469,3.8808289,0.0579376,5.1258011-1.3435516 c0.1596527-0.1795959,0.3035202-0.3716125,0.4316025-0.5734863c-1.1851349-0.9707642-2.0296326-2.4103088-2.3313904-4.0316467 c-0.2212448-1.1911926,0.1223068-2.1704254,0.8965149-2.5554047c0.3809662-0.1893921,0.8059235-0.2133636,1.2286072-0.0685425 c0.7282486,0.2489319,1.2729568,0.9273529,1.5400162,1.4792938c0.7170715,1.4838257,0.7400131,3.260437,0.1435776,4.788681 c0.0121994,0.0066528,0.0244751,0.0132294,0.0366745,0.0198059c1.4445877,0.7634583,3.2892914,0.6448059,4.4842148-0.2886963 c0.7357025-0.5746613,1.178627-1.4250031,1.155899-2.2193756c-0.0239487-0.8276978-0.6079102-1.5953217-1.3296356-1.747879 c-0.311058-0.065979-0.5100021-0.3713989-0.4442444-0.682373c0.0658875-0.311554,0.3724747-0.510437,0.6823502-0.4442444 c1.2392883,0.2620239,2.2035217,1.4835358,2.2423935,2.8411865c0.033699,1.1711731-0.5635529,2.3524323-1.5978622,3.1603241 c-1.5658035,1.2224579-3.8686447,1.3831329-5.730957,0.3987885c-0.0067215-0.0033569-0.0130768-0.0067139-0.0195084-0.0101624 c-0.156929,0.2453613-0.3328857,0.4794006-0.5273743,0.6982269c-1.5451431,1.7406464-4.1610565,2.425354-6.3619461,1.6676636 c-0.1568756-0.0540771-0.3113403-0.1152954-0.4620743-0.1832581c-0.0005112,0.0006561-0.000946,0.0016174-0.0013885,0.0024872 c-0.8548737,1.6878204-2.4006424,2.8622894-4.0476379,3.0803986 C102.4566803,212.8878632,102.4329376,212.8907013,102.4094849,212.8934784z M104.3573532,203.4453888 c-0.1673279,0.3119812-0.2329407,0.7159729-0.2005005,1.2351074c0.0830078,1.3270874,0.7710724,2.585144,1.7964783,3.4225616 c0.2543411-0.920929,0.3441391-1.9789276,0.2746582-3.1997833c-0.0282059-0.4893341-0.0832977-0.9972839-0.296196-1.3972473 c-0.1578217-0.2967224-0.472168-0.5953369-0.8189392-0.5930786c-0.0243301,0.0000763-0.0490265,0.0019684-0.0735779,0.005188 C104.7792358,202.9525452,104.512764,203.1560364,104.3573532,203.4453888z M97.2853546,204.9887543 c-0.1160278,0.1282349-0.2150116,0.5045929-0.1788635,0.912384c0.0732117,0.8268127,0.2273865,1.5802002,0.4611206,2.2553253 c0.298111-0.8345642,0.3682556-1.747879,0.1490555-2.6043701c-0.097908-0.3843231-0.2809982-0.5957031-0.3699341-0.5946808 c-0.0056992-0.0001526-0.0105209-0.0000763-0.015274,0.0005798 C97.3183823,204.9597473,97.3061829,204.9658813,97.2853546,204.9887543z M112.0015182,201.423645 c-0.3296585,0.1635895-0.3768005,0.7780762-0.2772064,1.313797c0.2327881,1.2500153,0.8459549,2.3663177,1.7071838,3.1593781 c0.3803864-1.1681824,0.3264008-2.4818268-0.2105713-3.5922852c-0.2018814-0.4173584-0.5621033-0.7839355-0.8757019-0.8912659 c-0.0914764-0.0309753-0.1643982-0.0355072-0.2223358-0.027832 C112.0715942,201.3922272,112.0320816,201.4082336,112.0015182,201.423645z"></path> </g> </g> <g> <g> <path class="st0" d="M213.8973389,217.0700073c-2.1854706,0-4.365036-0.6925201-6.1335297-1.9956512 c-2.4155579-1.7797394-3.9704895-4.630127-4.1591339-7.6249542l4.2427979-0.2673492 c0.1087189,1.7294769,1.0430145,3.441925,2.4381409,4.4698944c1.3952637,1.0278931,3.3072662,1.4131012,4.991745,1.0042114 l1.0017395,4.1315308C215.4980164,216.977005,214.6969757,217.0700073,213.8973389,217.0700073z"></path> </g> <g> <path class="st2" d="M230.1877289,199.4932404c-1.7321777-2.738739-5.0668335-4.4017944-8.2958527-4.1406555l-0.343338-4.23703 c4.7639923-0.3848419,9.6776733,2.0678406,12.2318573,6.1051788L230.1877289,199.4932404z"></path> </g> <g> <path class="st3" d="M234.600708,222.2992096c-4.4791718-1.3309784-8.4787445-4.1315308-11.2614594-7.8860931l3.4154053-2.531601 c2.2380829,3.0198212,5.4544525,5.2723846,9.0570526,6.3426514L234.600708,222.2992096z"></path> </g> </g> </svg> 