<?xml version="1.0" encoding="utf-8"?>
<!-- Generator: Adobe Illustrator 26.5.0, SVG Export Plug-In . SVG Version: 6.00 Build 0)  -->
<svg version="1.1" id="Layer_1" xmlns="http://www.w3.org/2000/svg" xmlns:xlink="http://www.w3.org/1999/xlink" x="0px" y="0px"
	 viewBox="0 0 500 500" style="enable-background:new 0 0 500 500;" xml:space="preserve">
<style type="text/css">
	.st0{fill:#CACAC5;}
	.st1{fill:#EBEBEB;}
	.st2{fill:#BEBFBA;}
	.st3{fill:#979286;}
	.st4{fill:#C3C1BC;}
	.st5{fill:#D3B153;}
	.st6{fill:#35342B;}
	.st7{fill:#F1F0EB;}
	.st8{fill:#D7CBB9;}
	.st9{fill:none;stroke:#414042;stroke-miterlimit:10;}
</style>
<g>
	<path class="st0" d="M62.21,379.19c-0.44,1.5,0.75,3.44,3.11,5.69c15.85,14.89,41.46,22.57,41.46,22.57
		c33.55,10.46,27.74,9.62,36.03,11.61c51.06,12.27,139.9,13.13,221.26-1.33c0,0,17.04-3.02,73.72-33.17
		c1.59-0.84,5.92-3.21,5.81-6.11c-0.19-4.73-11.96-7.77-11.75-8.4c0.3-0.87,20.88,7.47,23.36,3.68
		c2.22-3.42-10.79-15.47-11.92-16.48c-60.14-55.69-248.55-25.8-248.55-25.8c-81.4,12.92-132.76,31.98-131.92,36.76
		c0.35,1.92,9.2,2.65,9.15,5.22C71.94,375.95,63.19,375.84,62.21,379.19z"/>
	<path class="st1" d="M203.98,178.2c-6.44-4.12-6.7-11.33-10.53-17.39c-5.27-8.38-15.97-23.62-42.61-45.82
		c-33.57-27.95-60.33-50.22-75.13-42.14c-5.99,3.28-8.47,10.7-10.53,35.28c-4.94,59.02-1.29,143.35,17.86,181.83
		c0.96,1.94,2.53,4.89,2.74,9.15c1.19,24.3-44.41,44.39-42.14,48.55c0.96,1.76,9.27-1.57,10.07,0.16
		c1.17,2.55-15.69,12.27-15.12,13.27c0.59,1.05,18.96-8.26,19.38-7.49c0.47,0.84-22.31,11.87-20.91,16.18
		c1.03,3.16,14.56,1.5,24.58,0.26c15.36-1.87,24.37-4.52,33.29-6.37c15.22-3.16,26.59-3.25,41.72-3.39
		c28-0.26,32.33,5.76,72.32,11.64c34.62,5.08,52.6,7.54,75.57,1.83c14.05-3.49,16.57-6.72,35.28-11c6.74-1.55,25.73-5.55,51.29-5.5
		c47.06,0.09,83.18,13.86,84.75,9.15c0.77-2.34-7.77-7.21-6.86-8.71c1.08-1.76,12.27,4.64,13.74,2.74
		c3.37-4.33-52.7-40.41-45.82-69.16c1.31-5.43,4.33-8.47,7.07-11.73c23.48-27.93,24.51-71.03,25.45-109.66
		c1.26-52.21,4-89.06-12.83-96.2c-7.51-3.18-17.68,1.85-38.02,11.92c-14,6.93-30.64,15.17-48.34,31.35
		c-35.51,32.47-29.78,55.3-52.89,62.09c-18.24,5.34-22.19-8.76-52.21-4.59C225.83,177.22,214.45,184.9,203.98,178.2z"/>
	<path class="st2" d="M86.95,105.72c-2.93,1.43-8.97,6.37-3.68,69.62c4.21,50.19,7.3,87.21,19.55,89.17
		c8.38,1.33,10.75-15.43,36.03-38.46c22.9-20.88,36.38-21.21,38.46-33.59c0.84-5.01,0.09-13.51-30.53-43.36
		C114.13,117.24,97.21,100.73,86.95,105.72z"/>
	<path class="st3" d="M91.84,117.33c-7.42,4.26-4.73,16.9,3.04,85.5c4.85,42.68,6.16,58.76,12.95,60.03
		c8.1,1.5,11.4-20.44,36.38-41.48c20.63-17.37,34.25-15.8,36.78-27.09c3-13.34-13.41-27.39-34.2-45.18
		C123.14,128.83,102.52,111.2,91.84,117.33z"/>
	<path class="st4" d="M106.5,139.92c-0.44,0.73,4.59,4.47,3.82,5.64c-0.94,1.43-8.92-2.93-9.62-1.83
		c-1.08,1.71,17.04,14.14,15.8,16.27c-0.73,1.22-7.33-1.83-7.8-0.91c-0.87,1.71,22.19,14.56,21.07,16.95
		c-0.68,1.43-9.65-1.62-10.3,0c-0.49,1.19,4.17,3.58,3.68,5.03c-0.68,2.01-10.21-0.54-11,1.38c-1.22,2.88,18.85,13.06,17.63,16.04
		c-0.77,1.92-9.41-1.52-11.21,1.38c-1.33,2.13,2.58,5.24,13.06,19.48c3.18,4.33,4.73,6.63,7.26,6.72c3.25,0.12,4.94-3.56,9.39-7.89
		c5.1-4.96,7.82-4.96,14.94-9.43c7.77-4.89,16.72-10.53,18.1-16.25C185.93,173.17,108.09,137.26,106.5,139.92z"/>
	<path class="st2" d="M426.29,110.52c2.93,1.43,8.97,6.37,3.68,69.62c-4.21,50.19-7.3,87.21-19.55,89.17
		c-8.38,1.33-10.75-15.43-36.03-38.46c-22.9-20.88-36.38-21.21-38.46-33.59c-0.84-5.01-0.09-13.51,30.53-43.36
		C399.09,122.04,416.02,105.53,426.29,110.52z"/>
	<path class="st3" d="M421.4,122.13c7.42,4.26,4.73,16.9-3.04,85.5c-4.85,42.68-6.16,58.76-12.95,60.03
		c-8.1,1.5-11.4-20.44-36.38-41.48c-20.63-17.37-34.25-15.8-36.78-27.09c-3-13.34,13.41-27.39,34.2-45.18
		C390.1,133.63,410.7,115.98,421.4,122.13z"/>
	<path class="st4" d="M406.75,144.72c0.44,0.73-4.59,4.47-3.82,5.64c0.94,1.43,8.92-2.93,9.62-1.83
		c1.08,1.71-17.04,14.14-15.8,16.27c0.73,1.22,7.33-1.83,7.8-0.91c0.87,1.71-22.19,14.56-21.07,16.95c0.68,1.43,9.65-1.62,10.3,0
		c0.49,1.19-4.17,3.58-3.68,5.03c0.68,2.01,10.21-0.54,11,1.38c1.22,2.88-18.85,13.06-17.63,16.04c0.77,1.92,9.41-1.52,11.21,1.38
		c1.33,2.13-2.58,5.24-13.06,19.48c-3.18,4.33-4.73,6.63-7.26,6.72c-3.25,0.12-4.94-3.56-9.39-7.89c-5.1-4.96-7.82-4.96-14.94-9.43
		c-7.77-4.89-16.72-10.53-18.1-16.25C327.29,177.94,405.13,142.03,406.75,144.72z"/>
	<path class="st0" d="M194.24,242.23c-0.52,1.92-5.76,0.37-16.6,2.74c-13.58,2.97-18.96,8.38-20.72,6.53
		c-2.34-2.46,3.07-16.15,13.74-19.36C182.26,228.68,195.09,239.05,194.24,242.23z"/>
	<path class="st0" d="M351.71,249.56c-0.54,1.15-7.49,0.05-21.37-2.13c-10.07-1.59-12.88-2.36-13.74-4.59
		c-1.24-3.21,1.99-8.47,6.11-10.37C333.84,227.25,353.53,245.65,351.71,249.56z"/>
	<path class="st5" d="M134.41,315.23c0.23,4.1,4.68,7.21,13.63,13.41c6.98,4.85,12.29,8.57,20.46,10.7
		c5.17,1.33,9.55,1.4,18.33,1.52c10.09,0.14,10.46-0.94,19.85-0.61c9.22,0.3,11.64,1.45,13.13-0.3c3.54-4.12-4.68-16.53-7.94-21.37
		c-8.97-13.37-14.07-21-24.75-24.75c-15.29-5.36-29.22,1.71-36.03,5.2C145.9,301.65,133.98,307.71,134.41,315.23z"/>
	<path class="st6" d="M167.18,292.82c-12.74,4.35-18.92,32.99-8.78,42.4c1.5,1.38,3.23,2.01,6.65,3.18
		c10.51,3.63,18.38,3.07,33.2,2.97c18.14-0.12,19.85,0.63,21.54-1.45c5.43-6.79-5.31-24.04-12.52-32.21
		c-0.49-0.56-9.04-10.07-20.16-13.88c-2.39-0.82-4.47-1.24-4.8-1.31C176.57,291.39,170.48,291.7,167.18,292.82z"/>
	<path class="st7" d="M188.11,302.65c-5.31-0.49-9.76,6.67-8.4,10.23c1.66,4.28,12.43,5.22,14.82,1.22
		C196.47,310.83,193.35,303.15,188.11,302.65z"/>
	<path class="st5" d="M371.35,315.27c-0.23,4.1-4.68,7.21-13.63,13.41c-7.37,5.13-12.52,8.76-20.46,10.7
		c-2.97,0.73-7.75,0.87-17.35,1.19c-11.21,0.35-10.21-0.33-20.3,0c-10.23,0.33-12.29,1.08-13.65-0.59
		c-3.49-4.21,4.38-16.06,7.94-21.37c8.97-13.37,14.07-21,24.75-24.75c15.29-5.36,29.22,1.71,36.03,5.2
		C359.85,301.69,371.77,307.76,371.35,315.27z"/>
	<path class="st6" d="M338.6,292.87c12.74,4.35,18.92,32.99,8.78,42.4c-1.5,1.38-3.23,2.01-6.65,3.18
		c-10.51,3.63-18.38,3.07-33.2,2.97c-18.14-0.12-19.85,0.63-21.54-1.45c-5.43-6.79,5.31-24.04,12.52-32.21
		c0.49-0.56,9.04-10.07,20.16-13.88c2.39-0.82,4.47-1.24,4.8-1.31C329.18,291.44,335.27,291.75,338.6,292.87z"/>
	<path class="st7" d="M315.49,302.65c5.31-0.49,9.76,6.67,8.4,10.23c-1.66,4.28-12.43,5.22-14.82,1.22
		C307.13,310.83,310.22,303.15,315.49,302.65z"/>
	<path class="st8" d="M284.17,422.61c-6.46,5.34-14.61,5.43-30.93,5.67c-16.86,0.23-25.28,0.35-32.28-5.2
		c-10.98-8.69-14.54-27.41-8.5-39.47c11.78-23.5,62.51-26.81,77.26-4.59C297.95,391.48,295.71,413.08,284.17,422.61z"/>
	<path class="st6" d="M250.31,353.39c-3.79,0.16-20.6,0.89-23.2,8.85c-2.72,8.33,10.16,24.39,25.05,24.11
		c14.84-0.28,27.13-16.74,24.11-25.05C273.02,352.4,252.21,353.29,250.31,353.39z"/>
	<path class="st9" d="M252.14,386.35c0.26,7.61-3.51,14.33-9.46,16.95c-1.12,0.49-7.82,3.25-13.44-0.91
		c-3.7-2.76-5.57-7.51-4.89-12.36"/>
	<path class="st9" d="M252.3,387c-0.26,7.61,3.51,14.33,9.46,16.95c1.12,0.49,7.82,3.25,13.44-0.91c3.7-2.76,5.57-7.51,4.89-12.36"
		/>
</g>
</svg>
