<svg xmlns="http://www.w3.org/2000/svg" xmlns:xlink="http://www.w3.org/1999/xlink" width="500" zoomAndPan="magnify" viewBox="0 0 375 374.999991" height="500" preserveAspectRatio="xMidYMid meet" version="1.0"><defs><g/><clipPath id="c53bb58e33"><rect x="0" width="35" y="0" height="70"/></clipPath><clipPath id="b8a41f8933"><rect x="0" width="27" y="0" height="70"/></clipPath><clipPath id="54a1fe2ce2"><rect x="0" width="37" y="0" height="71"/></clipPath><clipPath id="820a0529cf"><rect x="0" width="29" y="0" height="70"/></clipPath><clipPath id="dd5919104a"><rect x="0" width="55" y="0" height="76"/></clipPath><clipPath id="e455f2f9c2"><rect x="0" width="59" y="0" height="76"/></clipPath><clipPath id="94c438a440"><rect x="0" width="33" y="0" height="72"/></clipPath><clipPath id="310a121c1c"><rect x="0" width="57" y="0" height="75"/></clipPath><clipPath id="7d95c2f3c5"><rect x="0" width="72" y="0" height="63"/></clipPath><clipPath id="a452bcefca"><rect x="0" width="29" y="0" height="70"/></clipPath></defs><rect x="-37.5" width="450" fill="#ffffff" y="-37.499999" height="449.999989" fill-opacity="1"/><rect x="-37.5" width="450" fill="#f4e4c3" y="-37.499999" height="449.999989" fill-opacity="1"/><g transform="matrix(1, 0, 0, 1, 63, 142)"><g clip-path="url(#c53bb58e33)"><g fill="#f59d06" fill-opacity="1"><g transform="translate(1.7694, 55.549857)"><g><path d="M 23.4375 -21.390625 L 26.09375 -19.5625 C 26.15625 -19.507812 26.222656 -19.460938 26.296875 -19.421875 C 28.410156 -18.128906 29.890625 -16.609375 30.734375 -14.859375 C 31.566406 -13.078125 31.566406 -11.085938 30.734375 -8.890625 C 29.890625 -6.679688 28.375 -4.820312 26.1875 -3.3125 C 24.757812 -2.3125 23.03125 -1.59375 21 -1.15625 C 18.96875 -0.726562 16.859375 -0.566406 14.671875 -0.671875 C 14.648438 -0.648438 14.640625 -0.632812 14.640625 -0.625 L 14.625 -0.59375 C 11.90625 -0.769531 10.601562 -0.957031 10.71875 -1.15625 C 9.738281 -1.363281 8.90625 -1.582031 8.21875 -1.8125 L 3.28125 -4.078125 C 2.3125 -4.679688 1.476562 -5.367188 0.78125 -6.140625 L 0.703125 -6.25 C 0.660156 -6.269531 0.632812 -6.304688 0.625 -6.359375 C 0.582031 -6.367188 0.554688 -6.394531 0.546875 -6.4375 C 0.503906 -6.46875 0.476562 -6.5 0.46875 -6.53125 C 0.0820312 -6.96875 -0.125 -7.441406 -0.15625 -7.953125 L -0.15625 -8.15625 C -0.132812 -8.8125 -0.0976562 -9.609375 -0.046875 -10.546875 C 0.00390625 -11.453125 0.15625 -12.207031 0.40625 -12.8125 C 0.6875 -13.488281 1.09375 -13.703125 1.625 -13.453125 C 2.15625 -13.203125 2.601562 -12.921875 2.96875 -12.609375 C 3 -12.554688 3.039062 -12.519531 3.09375 -12.5 C 3.132812 -12.46875 3.179688 -12.4375 3.234375 -12.40625 C 4.128906 -11.625 5.148438 -10.953125 6.296875 -10.390625 C 8.898438 -9.148438 11.347656 -8.769531 13.640625 -9.25 C 13.765625 -9.300781 13.953125 -9.40625 14.203125 -9.5625 C 15.015625 -10.019531 15.195312 -10.65625 14.75 -11.46875 C 14.71875 -11.5 14.691406 -11.539062 14.671875 -11.59375 C 14.640625 -11.632812 14.613281 -11.679688 14.59375 -11.734375 C 14.375 -12.003906 12.875 -13.085938 10.09375 -14.984375 C 6.125 -17.722656 3.84375 -19.539062 3.25 -20.4375 C 1.84375 -22.53125 1.421875 -24.640625 1.984375 -26.765625 C 2.554688 -28.867188 3.804688 -30.703125 5.734375 -32.265625 C 9.128906 -35.035156 14.554688 -36.039062 22.015625 -35.28125 C 22.921875 -35.007812 23.726562 -34.738281 24.4375 -34.46875 C 24.695312 -34.363281 25.082031 -34.1875 25.59375 -33.9375 C 26.082031 -33.644531 26.660156 -33.347656 27.328125 -33.046875 C 28.160156 -32.679688 28.5 -32.289062 28.34375 -31.875 C 28.394531 -31.820312 28.453125 -31.742188 28.515625 -31.640625 C 28.953125 -31.078125 29.296875 -30.285156 29.546875 -29.265625 C 29.804688 -28.253906 29.601562 -27.453125 28.9375 -26.859375 C 28.863281 -26.796875 28.8125 -26.753906 28.78125 -26.734375 C 28.207031 -26.304688 27.390625 -26.210938 26.328125 -26.453125 C 25.171875 -26.773438 24.050781 -27.039062 22.96875 -27.25 L 21.125 -27.71875 C 20.195312 -27.820312 19.191406 -27.875 18.109375 -27.875 C 15.898438 -27.132812 16.414062 -25.710938 19.65625 -23.609375 C 19.9375 -23.367188 21.195312 -22.628906 23.4375 -21.390625 Z M 23.4375 -21.390625 "/></g></g></g></g></g><g transform="matrix(1, 0, 0, 1, 94, 139)"><g clip-path="url(#b8a41f8933)"><g fill="#f88bad" fill-opacity="1"><g transform="translate(0.344007, 55.659457)"><g><path d="M 7.15625 -26.578125 C 7.15625 -26.785156 7.164062 -27.003906 7.1875 -27.234375 C 7.289062 -29.210938 7.460938 -30.707031 7.703125 -31.71875 C 7.941406 -32.71875 8.300781 -33.582031 8.78125 -34.3125 C 9.195312 -34.945312 9.695312 -35.382812 10.28125 -35.625 C 10.96875 -35.882812 11.648438 -36.039062 12.328125 -36.09375 C 12.992188 -36.125 13.707031 -36.101562 14.46875 -36.03125 C 15.550781 -35.925781 16.40625 -35.671875 17.03125 -35.265625 C 17.644531 -34.828125 17.859375 -33.972656 17.671875 -32.703125 C 17.566406 -30.253906 17.460938 -28.234375 17.359375 -26.640625 C 17.722656 -26.617188 18.082031 -26.59375 18.4375 -26.5625 C 19.40625 -26.488281 20.378906 -26.34375 21.359375 -26.125 C 21.804688 -25.914062 22.320312 -25.613281 22.90625 -25.21875 C 23.34375 -24.9375 23.664062 -24.46875 23.875 -23.8125 C 24.21875 -22.75 24.21875 -21.78125 23.875 -20.90625 C 23.507812 -20.019531 22.757812 -19.484375 21.625 -19.296875 C 20.488281 -19.085938 19.066406 -19.035156 17.359375 -19.140625 L 17.359375 -18.984375 C 16.992188 -14.441406 17.125 -11.4375 17.75 -9.96875 C 18.363281 -8.488281 19.394531 -7.378906 20.84375 -6.640625 C 22.289062 -5.898438 22.789062 -4.625 22.34375 -2.8125 C 21.894531 -0.988281 20.578125 0.0546875 18.390625 0.328125 C 16.191406 0.628906 14.082031 -0.0351562 12.0625 -1.671875 C 10.050781 -3.316406 8.71875 -5.65625 8.0625 -8.6875 C 7.382812 -11.71875 7.03125 -15.066406 7 -18.734375 L 7 -19.421875 C 5.882812 -19.367188 4.78125 -19.363281 3.6875 -19.40625 C 3.34375 -19.351562 3.113281 -19.328125 3 -19.328125 C 2.789062 -19.328125 2.597656 -19.351562 2.421875 -19.40625 C 2.234375 -19.46875 2.085938 -19.566406 1.984375 -19.703125 C 1.847656 -19.828125 1.726562 -20.019531 1.625 -20.28125 C 1.40625 -21.28125 1.320312 -22.109375 1.375 -22.765625 C 1.40625 -23.398438 1.488281 -23.957031 1.625 -24.4375 C 1.757812 -24.96875 2.222656 -25.390625 3.015625 -25.703125 C 3.460938 -25.878906 4 -26.039062 4.625 -26.1875 C 5 -26.257812 5.578125 -26.359375 6.359375 -26.484375 C 6.523438 -26.515625 6.789062 -26.546875 7.15625 -26.578125 Z M 7.15625 -26.578125 "/></g></g></g></g></g><g transform="matrix(1, 0, 0, 1, 111, 142)"><g clip-path="url(#54a1fe2ce2)"><g fill="#31a768" fill-opacity="1"><g transform="translate(5.177268, 56.485646)"><g><path d="M 10.265625 -11.5 C 9.773438 -11.195312 9.582031 -10.921875 9.6875 -10.671875 C 10.726562 -9.117188 11.914062 -8.113281 13.25 -7.65625 C 14.570312 -7.1875 16.082031 -7.09375 17.78125 -7.375 C 19.101562 -7.582031 20.640625 -8.359375 22.390625 -9.703125 C 24.117188 -11.023438 25.660156 -11.078125 27.015625 -9.859375 C 28.390625 -8.617188 28.253906 -7.21875 26.609375 -5.65625 C 24.953125 -4.101562 23.632812 -3.078125 22.65625 -2.578125 C 21.675781 -2.078125 20.570312 -1.734375 19.34375 -1.546875 C 18.125 -1.359375 16.90625 -1.28125 15.6875 -1.3125 C 14.039062 -1.34375 12.4375 -1.609375 10.875 -2.109375 C 9.6875 -2.484375 8.523438 -3.023438 7.390625 -3.734375 C 6.265625 -4.398438 5.25 -5.257812 4.34375 -6.3125 C 2.6875 -8.238281 1.515625 -10.421875 0.828125 -12.859375 C 0.0976562 -16.609375 0.828125 -19.867188 3.015625 -22.640625 C 4.304688 -24.023438 5.789062 -25.097656 7.46875 -25.859375 C 9.125 -26.597656 11.128906 -27.203125 13.484375 -27.671875 C 15.828125 -28.140625 18.265625 -27.828125 20.796875 -26.734375 C 23.316406 -25.628906 24.953125 -23.8125 25.703125 -21.28125 C 26.453125 -18.757812 26.671875 -17.015625 26.359375 -16.046875 C 26.035156 -15.054688 25.429688 -14.414062 24.546875 -14.125 C 23.648438 -13.800781 18.890625 -12.925781 10.265625 -11.5 Z M 15.296875 -21.25 C 13.117188 -21.257812 11.585938 -20.789062 10.703125 -19.84375 C 9.804688 -18.894531 9.25 -18.132812 9.03125 -17.5625 C 8.96875 -17.425781 9.035156 -17.253906 9.234375 -17.046875 C 9.453125 -16.835938 12.898438 -17.398438 19.578125 -18.734375 C 18.878906 -20.367188 17.453125 -21.207031 15.296875 -21.25 Z M 15.296875 -21.25 "/></g></g></g></g></g><g transform="matrix(1, 0, 0, 1, 142, 141)"><g clip-path="url(#820a0529cf)"><g fill="#db5b2a" fill-opacity="1"><g transform="translate(0.347725, 55.256517)"><g><path d="M 10.5625 -10.875 C 10 -9.894531 10.085938 -8.84375 10.828125 -7.71875 C 11.566406 -6.582031 12.796875 -6.273438 14.515625 -6.796875 C 15.597656 -7.117188 16.414062 -7.597656 16.96875 -8.234375 C 17.519531 -8.878906 17.875 -9.5625 18.03125 -10.28125 C 18.164062 -11.070312 17.96875 -11.742188 17.4375 -12.296875 C 16.882812 -12.847656 16.203125 -13.191406 15.390625 -13.328125 C 14.566406 -13.453125 13.695312 -13.332031 12.78125 -12.96875 C 11.875 -12.59375 11.132812 -11.894531 10.5625 -10.875 Z M 15.859375 -20.71875 C 14.171875 -21.09375 12.5 -21.132812 10.84375 -20.84375 C 9.59375 -20.625 8.535156 -20.1875 7.671875 -19.53125 C 6.796875 -18.851562 5.789062 -18.628906 4.65625 -18.859375 C 3.5 -19.078125 2.679688 -19.722656 2.203125 -20.796875 C 1.710938 -21.847656 1.832031 -22.753906 2.5625 -23.515625 C 3.257812 -24.265625 3.894531 -24.835938 4.46875 -25.234375 C 4.863281 -25.523438 5.269531 -25.773438 5.6875 -25.984375 C 6.789062 -26.566406 7.9375 -26.957031 9.125 -27.15625 C 10.289062 -27.34375 11.46875 -27.453125 12.65625 -27.484375 C 14.238281 -27.515625 15.789062 -27.367188 17.3125 -27.046875 C 18.5 -26.804688 19.660156 -26.445312 20.796875 -25.96875 C 21.910156 -25.46875 22.992188 -24.457031 24.046875 -22.9375 C 25.078125 -21.425781 25.523438 -19.632812 25.390625 -17.5625 C 25.253906 -15.476562 25.175781 -13.015625 25.15625 -10.171875 C 25.144531 -7.054688 25.523438 -4.722656 26.296875 -3.171875 C 26.378906 -2.929688 26.472656 -2.675781 26.578125 -2.40625 C 26.671875 -2.125 26.707031 -1.847656 26.6875 -1.578125 C 26.6875 -1.097656 26.488281 -0.664062 26.09375 -0.28125 C 25.695312 0.09375 25.09375 0.359375 24.28125 0.515625 C 23.457031 0.671875 22.703125 0.632812 22.015625 0.40625 C 21.316406 0.1875 20.820312 0 20.53125 -0.15625 C 20 -0.445312 19.597656 -0.851562 19.328125 -1.375 C 19.128906 -1.75 18.972656 -2.109375 18.859375 -2.453125 C 17.941406 -1.765625 17.164062 -1.28125 16.53125 -1 C 15.125 -0.40625 13.617188 -0.0703125 12.015625 0 C 10.378906 0.03125 8.820312 -0.203125 7.34375 -0.703125 C 6.195312 -1.078125 5.148438 -1.582031 4.203125 -2.21875 C 3.265625 -2.84375 2.546875 -3.628906 2.046875 -4.578125 C 1.578125 -5.484375 1.34375 -6.539062 1.34375 -7.75 C 1.34375 -9.46875 1.804688 -11.019531 2.734375 -12.40625 C 3.222656 -13.070312 3.679688 -13.691406 4.109375 -14.265625 C 4.523438 -14.828125 5.425781 -15.617188 6.8125 -16.640625 C 8.207031 -17.648438 9.90625 -18.269531 11.90625 -18.5 C 13.90625 -18.71875 16.035156 -18.570312 18.296875 -18.0625 C 18.359375 -18.175781 18.296875 -18.5 18.109375 -19.03125 C 17.921875 -19.550781 17.171875 -20.113281 15.859375 -20.71875 Z M 15.859375 -20.71875 "/></g></g></g></g></g><g transform="matrix(1, 0, 0, 1, 162, 135)"><g clip-path="url(#dd5919104a)"><g fill="#0987c7" fill-opacity="1"><g transform="translate(3.329963, 54.006174)"><g><path d="M 27.78125 -6.875 C 27.695312 -5.59375 27.375 -3.8125 26.8125 -1.53125 C 26.238281 0.757812 25.765625 2.363281 25.390625 3.28125 C 25.015625 4.226562 24.585938 4.695312 24.109375 4.6875 C 23.273438 4.65625 22.328125 4.351562 21.265625 3.78125 C 20.203125 3.1875 19.503906 2.644531 19.171875 2.15625 C 19.015625 1.96875 18.921875 1.757812 18.890625 1.53125 C 18.828125 1.195312 18.859375 0.851562 18.984375 0.5 C 19.097656 0.132812 19.40625 -1.101562 19.90625 -3.21875 C 20.382812 -5.332031 20.597656 -7 20.546875 -8.21875 C 20.503906 -9.050781 20.375 -9.785156 20.15625 -10.421875 C 19.457031 -12.097656 18.429688 -13.003906 17.078125 -13.140625 C 15.710938 -13.253906 14.460938 -12.109375 13.328125 -9.703125 C 12.742188 -8.148438 12.445312 -5.765625 12.4375 -2.546875 C 12.445312 -2.140625 12.457031 -1.703125 12.46875 -1.234375 C 12.457031 -0.753906 12.410156 -0.304688 12.328125 0.109375 C 12.117188 0.890625 11.613281 1.378906 10.8125 1.578125 C 10.019531 1.765625 9.148438 1.789062 8.203125 1.65625 C 7.265625 1.519531 6.363281 1.269531 5.5 0.90625 C 4.644531 0.570312 4.0625 0.25 3.75 -0.0625 C 3.175781 -0.613281 2.835938 -1.335938 2.734375 -2.234375 C 2.617188 -3.109375 2.570312 -3.953125 2.59375 -4.765625 C 2.632812 -6.347656 2.878906 -8.3125 3.328125 -10.65625 C 3.765625 -13 4.160156 -14.851562 4.515625 -16.21875 C 4.859375 -17.570312 5.335938 -18.96875 5.953125 -20.40625 C 6.546875 -21.851562 7.171875 -22.878906 7.828125 -23.484375 C 8.335938 -24.015625 8.867188 -24.335938 9.421875 -24.453125 C 10.078125 -24.609375 10.8125 -24.628906 11.625 -24.515625 C 12.40625 -24.410156 13.101562 -24.257812 13.71875 -24.0625 C 14.601562 -23.78125 15.25 -23.378906 15.65625 -22.859375 C 16.039062 -22.335938 15.976562 -21.488281 15.46875 -20.3125 L 15.46875 -20.1875 C 16.75 -21.15625 18.097656 -21.4375 19.515625 -21.03125 C 21.054688 -20.769531 22.539062 -19.9375 23.96875 -18.53125 C 24.976562 -17.519531 25.601562 -16.753906 25.84375 -16.234375 C 26.738281 -17.179688 27.878906 -17.890625 29.265625 -18.359375 C 30.617188 -18.816406 32.039062 -18.890625 33.53125 -18.578125 C 35.019531 -18.234375 36.472656 -17.351562 37.890625 -15.9375 C 39.390625 -14.445312 40.398438 -12.660156 40.921875 -10.578125 C 41.429688 -8.492188 41.671875 -6.453125 41.640625 -4.453125 C 41.617188 -3.054688 41.441406 -1.140625 41.109375 1.296875 C 40.765625 3.710938 40.140625 5.503906 39.234375 6.671875 C 38.921875 7.097656 38.519531 7.296875 38.03125 7.265625 C 37.21875 7.242188 36.28125 6.941406 35.21875 6.359375 C 34.15625 5.785156 33.453125 5.25 33.109375 4.75 C 32.953125 4.570312 32.867188 4.363281 32.859375 4.125 C 32.753906 3.789062 32.78125 3.441406 32.9375 3.078125 C 33.0625 2.722656 33.179688 2.394531 33.296875 2.09375 C 33.773438 0.925781 34.113281 -0.347656 34.3125 -1.734375 C 34.476562 -3.117188 34.535156 -4.425781 34.484375 -5.65625 C 34.429688 -6.476562 34.296875 -7.203125 34.078125 -7.828125 C 33.390625 -9.503906 32.363281 -10.410156 31 -10.546875 C 29.914062 -10.753906 29.128906 -10.507812 28.640625 -9.8125 C 28.148438 -9.125 27.863281 -8.144531 27.78125 -6.875 Z M 27.78125 -6.875 "/></g></g></g></g></g><g transform="matrix(1, 0, 0, 1, 200, 137)"><g clip-path="url(#e455f2f9c2)"><g fill="#f59d06" fill-opacity="1"><g transform="translate(3.009831, 54.515638)"><g><path d="M 24.84375 -8.78125 C 23.1875 -5.613281 21.765625 -3.359375 20.578125 -2.015625 C 20.128906 -1.535156 19.65625 -1.054688 19.15625 -0.578125 C 18.664062 -0.0859375 18.175781 0.34375 17.6875 0.71875 C 17.425781 0.894531 17.175781 1.046875 16.9375 1.171875 C 16.582031 1.359375 15.984375 1.519531 15.140625 1.65625 C 14.441406 1.707031 13.671875 1.707031 12.828125 1.65625 C 11.960938 1.613281 11.1875 1.457031 10.5 1.1875 C 9.945312 0.9375 9.457031 0.492188 9.03125 -0.140625 C 8.457031 -1.003906 7.96875 -2.097656 7.5625 -3.421875 C 7.070312 -4.921875 6.628906 -6.894531 6.234375 -9.34375 C 5.816406 -11.789062 5.492188 -14.335938 5.265625 -16.984375 C 5.046875 -19.628906 4.925781 -22.195312 4.90625 -24.6875 C 4.863281 -27.15625 4.988281 -29.1875 5.28125 -30.78125 C 5.382812 -31.601562 5.59375 -32.460938 5.90625 -33.359375 C 6.195312 -34.234375 6.691406 -34.898438 7.390625 -35.359375 C 8.160156 -35.867188 9.828125 -36.160156 12.390625 -36.234375 C 14.953125 -36.285156 16.304688 -35.460938 16.453125 -33.765625 C 16.460938 -33.316406 16.414062 -32.863281 16.3125 -32.40625 C 16.21875 -31.925781 16.132812 -31.46875 16.0625 -31.03125 C 15.519531 -28.082031 15.265625 -24.789062 15.296875 -21.15625 C 15.359375 -17.53125 15.625 -13.921875 16.09375 -10.328125 C 18.445312 -13.535156 20.117188 -16.726562 21.109375 -19.90625 C 22.453125 -24.414062 23.328125 -27.109375 23.734375 -27.984375 C 24.148438 -28.835938 25.535156 -29.109375 27.890625 -28.796875 C 30.242188 -28.441406 31.492188 -27.796875 31.640625 -26.859375 C 31.796875 -25.898438 31.875 -23.078125 31.875 -18.390625 C 32.21875 -14.847656 32.84375 -11.332031 33.75 -7.84375 C 35.289062 -11.144531 36.601562 -14.53125 37.6875 -18 C 38.789062 -21.476562 39.492188 -24.707031 39.796875 -27.6875 C 39.890625 -28.113281 39.957031 -28.578125 40 -29.078125 C 40.019531 -29.535156 40.113281 -29.976562 40.28125 -30.40625 C 40.894531 -32.007812 42.46875 -32.414062 45 -31.625 C 47.519531 -30.820312 49.097656 -30.0625 49.734375 -29.34375 C 50.328125 -28.75 50.640625 -27.988281 50.671875 -27.0625 C 50.703125 -26.113281 50.65625 -25.226562 50.53125 -24.40625 C 50.34375 -22.800781 49.875 -20.804688 49.125 -18.421875 C 48.351562 -16.035156 47.472656 -13.609375 46.484375 -11.140625 C 45.484375 -8.679688 44.429688 -6.34375 43.328125 -4.125 C 42.203125 -1.894531 41.160156 -0.109375 40.203125 1.234375 C 39.429688 2.359375 38.640625 3.25 37.828125 3.90625 C 37.222656 4.414062 36.597656 4.695312 35.953125 4.75 C 35.191406 4.84375 34.382812 4.789062 33.53125 4.59375 C 32.65625 4.382812 31.878906 4.164062 31.203125 3.9375 C 30.398438 3.570312 29.851562 3.25 29.5625 2.96875 C 29.363281 2.78125 29.15625 2.5625 28.9375 2.3125 C 28.539062 1.8125 28.171875 1.253906 27.828125 0.640625 C 27.484375 0.046875 27.148438 -0.550781 26.828125 -1.15625 C 26.015625 -2.8125 25.351562 -5.351562 24.84375 -8.78125 Z M 24.84375 -8.78125 "/></g></g></g></g></g><g transform="matrix(1, 0, 0, 1, 262, 150)"><g clip-path="url(#94c438a440)"><g fill="#f88bad" fill-opacity="1"><g transform="translate(8.794096, 58.108046)"><g><path d="M 6.59375 -24.359375 C 8.4375 -25.941406 10.285156 -26.84375 12.140625 -27.0625 C 13.984375 -27.28125 15.421875 -27.007812 16.453125 -26.25 C 17.492188 -25.5 17.789062 -24.25 17.34375 -22.5 C 16.914062 -20.769531 16.046875 -19.960938 14.734375 -20.078125 C 13.429688 -20.179688 12.160156 -19.863281 10.921875 -19.125 C 9.660156 -18.40625 9.066406 -16.90625 9.140625 -14.625 C 9.222656 -12.3125 9.929688 -9.660156 11.265625 -6.671875 C 11.441406 -6.285156 11.628906 -5.878906 11.828125 -5.453125 C 12.015625 -5.015625 12.15625 -4.582031 12.25 -4.15625 C 12.394531 -3.363281 12.140625 -2.75 11.484375 -2.3125 C 10.828125 -1.851562 10.035156 -1.53125 9.109375 -1.34375 C 8.179688 -1.15625 7.238281 -1.082031 6.28125 -1.125 C 5.34375 -1.15625 4.671875 -1.253906 4.265625 -1.421875 C 3.492188 -1.753906 2.878906 -2.316406 2.421875 -3.109375 C 1.929688 -3.890625 1.523438 -4.660156 1.203125 -5.421875 C 0.585938 -6.898438 -0.00390625 -8.804688 -0.578125 -11.140625 C -1.140625 -13.460938 -1.550781 -15.492188 -1.8125 -17.234375 C -2.070312 -18.953125 -2.238281 -20.457031 -2.3125 -21.75 C -2.382812 -23.050781 -2.273438 -24.101562 -1.984375 -24.90625 C -1.734375 -25.570312 -1.378906 -26.046875 -0.921875 -26.328125 C -0.367188 -26.703125 0.304688 -26.972656 1.109375 -27.140625 C 1.878906 -27.316406 2.582031 -27.410156 3.21875 -27.421875 C 4.164062 -27.460938 4.9375 -27.304688 5.53125 -26.953125 C 6.113281 -26.617188 6.414062 -25.8125 6.4375 -24.53125 Z M 6.59375 -24.359375 "/></g></g></g></g></g><g transform="matrix(1, 0, 0, 1, 266, 137)"><g clip-path="url(#310a121c1c)"><g fill="#31a768" fill-opacity="1"><g transform="translate(25.018642, 61.75936)"><g><path d="M -0.78125 -22 C -0.4375 -23.476562 -0.0078125 -24.953125 0.5 -26.421875 C 1.019531 -27.890625 1.625 -29.195312 2.3125 -30.34375 C 2.570312 -30.800781 2.894531 -31.28125 3.28125 -31.78125 C 3.675781 -32.28125 4.128906 -32.597656 4.640625 -32.734375 C 5.222656 -32.921875 6.273438 -32.832031 7.796875 -32.46875 C 9.304688 -32.09375 9.898438 -31.390625 9.578125 -30.359375 C 9.460938 -30.054688 9.320312 -29.769531 9.15625 -29.5 C 8.976562 -29.226562 8.816406 -28.972656 8.671875 -28.734375 C 7.054688 -26.023438 5.875 -23.1875 5.125 -20.21875 C 5.957031 -20.09375 7.101562 -19.894531 8.5625 -19.625 C 10.03125 -19.320312 11.523438 -19.023438 13.046875 -18.734375 C 14.554688 -18.390625 15.953125 -18.082031 17.234375 -17.8125 C 18.492188 -17.488281 19.375 -17.242188 19.875 -17.078125 C 21.019531 -16.640625 21.273438 -15.628906 20.640625 -14.046875 C 20.035156 -12.460938 19.476562 -11.484375 18.96875 -11.109375 C 18.488281 -10.722656 17.617188 -10.578125 16.359375 -10.671875 C 15.109375 -10.742188 13.773438 -10.921875 12.359375 -11.203125 C 10.953125 -11.484375 9.613281 -11.8125 8.34375 -12.1875 C 7.03125 -12.570312 6.082031 -12.878906 5.5 -13.109375 C 5.363281 -13.179688 5.128906 -13.3125 4.796875 -13.5 C 6.242188 -11.71875 7.675781 -10.238281 9.09375 -9.0625 C 9.34375 -8.851562 9.597656 -8.644531 9.859375 -8.4375 C 10.109375 -8.207031 10.328125 -7.960938 10.515625 -7.703125 C 11.140625 -6.773438 10.617188 -5.8125 8.953125 -4.8125 C 7.242188 -3.8125 6.023438 -3.289062 5.296875 -3.25 C 4.671875 -3.207031 4.078125 -3.367188 3.515625 -3.734375 C 2.929688 -4.085938 2.414062 -4.460938 1.96875 -4.859375 C 0.257812 -6.367188 -1.707031 -8.835938 -3.9375 -12.265625 C -6.175781 -15.691406 -9.082031 -21.5 -12.65625 -29.6875 C -12.96875 -30.539062 -13.128906 -31.316406 -13.140625 -32.015625 C -13.128906 -32.515625 -12.992188 -32.953125 -12.734375 -33.328125 C -12.441406 -33.734375 -12.023438 -34.128906 -11.484375 -34.515625 C -10.929688 -34.878906 -10.414062 -35.179688 -9.9375 -35.421875 C -9.269531 -35.753906 -8.671875 -35.910156 -8.140625 -35.890625 C -7.609375 -35.835938 -7.15625 -35.40625 -6.78125 -34.59375 C -6.425781 -33.695312 -4.425781 -29.5 -0.78125 -22 Z M -0.78125 -22 "/></g></g></g></g></g><g transform="matrix(1, 0, 0, 1, 259, 174)"><g clip-path="url(#7d95c2f3c5)"><g fill="#db5b2a" fill-opacity="1"><g transform="translate(9.862889, 45.273307)"><g><path d="M 0.953125 -2.984375 C 0.941406 -3.015625 0.9375 -3.046875 0.9375 -3.078125 C 0.945312 -3.117188 0.953125 -3.160156 0.953125 -3.203125 C 0.972656 -3.503906 1.03125 -3.8125 1.125 -4.125 C 1.226562 -4.445312 1.367188 -4.710938 1.546875 -4.921875 C 1.722656 -5.140625 1.941406 -5.242188 2.203125 -5.234375 C 2.410156 -5.210938 2.578125 -5.128906 2.703125 -4.984375 C 2.835938 -4.847656 2.957031 -4.6875 3.0625 -4.5 C 3.144531 -4.394531 3.191406 -4.257812 3.203125 -4.09375 C 3.210938 -3.925781 3.238281 -3.773438 3.28125 -3.640625 C 3.332031 -3.503906 3.472656 -3.425781 3.703125 -3.40625 C 3.878906 -3.394531 4.0625 -3.441406 4.25 -3.546875 C 4.445312 -3.660156 4.632812 -3.757812 4.8125 -3.84375 C 5.03125 -3.945312 5.222656 -4.019531 5.390625 -4.0625 C 5.566406 -4.101562 5.726562 -4.117188 5.875 -4.109375 C 6.050781 -4.097656 6.234375 -4.019531 6.421875 -3.875 C 6.609375 -3.726562 6.800781 -3.546875 7 -3.328125 C 7.195312 -3.117188 7.390625 -2.910156 7.578125 -2.703125 C 7.773438 -2.503906 7.960938 -2.332031 8.140625 -2.1875 C 8.316406 -2.039062 8.476562 -1.960938 8.625 -1.953125 C 8.78125 -1.941406 8.96875 -2.003906 9.1875 -2.140625 C 9.414062 -2.273438 9.632812 -2.460938 9.84375 -2.703125 C 10.0625 -2.941406 10.226562 -3.207031 10.34375 -3.5 C 10.425781 -3.71875 10.539062 -3.878906 10.6875 -3.984375 C 10.84375 -4.097656 11.003906 -4.148438 11.171875 -4.140625 C 11.472656 -4.117188 11.6875 -4.007812 11.8125 -3.8125 C 11.945312 -3.625 12.007812 -3.425781 12 -3.21875 C 11.988281 -3.175781 11.984375 -3.140625 11.984375 -3.109375 C 11.984375 -3.078125 11.976562 -3.046875 11.96875 -3.015625 C 11.875 -2.585938 11.757812 -2.1875 11.625 -1.8125 C 11.488281 -1.4375 11.304688 -1.085938 11.078125 -0.765625 C 10.847656 -0.441406 10.535156 -0.160156 10.140625 0.078125 C 9.878906 0.234375 9.632812 0.347656 9.40625 0.421875 C 9.1875 0.492188 8.96875 0.519531 8.75 0.5 C 8.445312 0.476562 8.148438 0.378906 7.859375 0.203125 C 7.566406 0.0351562 7.28125 -0.175781 7 -0.4375 C 6.726562 -0.695312 6.472656 -0.96875 6.234375 -1.25 C 6.066406 -1.425781 5.925781 -1.5625 5.8125 -1.65625 C 5.707031 -1.757812 5.609375 -1.8125 5.515625 -1.8125 C 5.429688 -1.820312 5.289062 -1.765625 5.09375 -1.640625 C 4.894531 -1.515625 4.664062 -1.363281 4.40625 -1.1875 C 4.15625 -1.007812 3.890625 -0.828125 3.609375 -0.640625 C 3.335938 -0.460938 3.082031 -0.316406 2.84375 -0.203125 C 2.613281 -0.0859375 2.421875 -0.0351562 2.265625 -0.046875 C 1.992188 -0.0664062 1.765625 -0.160156 1.578125 -0.328125 C 1.398438 -0.503906 1.257812 -0.71875 1.15625 -0.96875 C 1.050781 -1.226562 0.972656 -1.492188 0.921875 -1.765625 C 0.878906 -2.046875 0.867188 -2.285156 0.890625 -2.484375 C 0.890625 -2.566406 0.894531 -2.648438 0.90625 -2.734375 C 0.914062 -2.828125 0.929688 -2.910156 0.953125 -2.984375 Z M 0.953125 -2.984375 "/></g></g></g><g fill="#db5b2a" fill-opacity="1"><g transform="translate(22.871281, 45.65598)"><g><path d="M 2.09375 -4.25 C 2.382812 -4.300781 2.65625 -4.269531 2.90625 -4.15625 C 3.15625 -4.039062 3.375 -3.863281 3.5625 -3.625 C 3.75 -3.382812 3.867188 -3.128906 3.921875 -2.859375 C 3.972656 -2.515625 3.929688 -2.191406 3.796875 -1.890625 C 3.660156 -1.585938 3.460938 -1.328125 3.203125 -1.109375 C 2.953125 -0.898438 2.660156 -0.765625 2.328125 -0.703125 C 1.804688 -0.609375 1.367188 -0.675781 1.015625 -0.90625 C 0.660156 -1.132812 0.445312 -1.453125 0.375 -1.859375 C 0.238281 -2.597656 0.316406 -3.148438 0.609375 -3.515625 C 0.898438 -3.878906 1.394531 -4.125 2.09375 -4.25 Z M 2.09375 -4.25 "/></g></g></g><g fill="#db5b2a" fill-opacity="1"><g transform="translate(28.440929, 44.661062)"><g><path d="M 3.53125 -8.15625 C 3.675781 -8.164062 3.832031 -8.171875 4 -8.171875 C 4.164062 -8.179688 4.320312 -8.160156 4.46875 -8.109375 C 4.613281 -8.066406 4.71875 -7.957031 4.78125 -7.78125 C 4.84375 -7.625 4.8125 -7.472656 4.6875 -7.328125 C 4.5625 -7.179688 4.453125 -7.039062 4.359375 -6.90625 C 4.253906 -6.75 4.117188 -6.632812 3.953125 -6.5625 C 3.785156 -6.5 3.625 -6.4375 3.46875 -6.375 C 3.113281 -6.207031 2.832031 -6.03125 2.625 -5.84375 C 2.425781 -5.65625 2.289062 -5.441406 2.21875 -5.203125 C 2.144531 -4.960938 2.125 -4.648438 2.15625 -4.265625 C 2.15625 -3.953125 2.179688 -3.648438 2.234375 -3.359375 C 2.285156 -3.078125 2.351562 -2.796875 2.4375 -2.515625 C 2.53125 -2.253906 2.515625 -1.988281 2.390625 -1.71875 C 2.273438 -1.445312 2.097656 -1.269531 1.859375 -1.1875 C 1.722656 -1.132812 1.554688 -1.117188 1.359375 -1.140625 C 1.160156 -1.171875 0.96875 -1.226562 0.78125 -1.3125 C 0.601562 -1.40625 0.472656 -1.523438 0.390625 -1.671875 C 0.304688 -1.785156 0.238281 -1.90625 0.1875 -2.03125 C 0.144531 -2.15625 0.0976562 -2.28125 0.046875 -2.40625 C 0.015625 -2.5 -0.015625 -2.59375 -0.046875 -2.6875 C -0.078125 -2.789062 -0.109375 -2.882812 -0.140625 -2.96875 C -0.191406 -3.132812 -0.257812 -3.296875 -0.34375 -3.453125 C -0.425781 -3.617188 -0.523438 -3.773438 -0.640625 -3.921875 C -0.671875 -3.953125 -0.703125 -4.007812 -0.734375 -4.09375 C -0.804688 -4.289062 -0.757812 -4.53125 -0.59375 -4.8125 C -0.4375 -5.09375 -0.226562 -5.382812 0.03125 -5.6875 C 0.289062 -6 0.523438 -6.289062 0.734375 -6.5625 C 0.878906 -6.726562 1.035156 -6.890625 1.203125 -7.046875 C 1.367188 -7.203125 1.5625 -7.320312 1.78125 -7.40625 C 1.882812 -7.445312 1.988281 -7.472656 2.09375 -7.484375 C 2.207031 -7.503906 2.320312 -7.53125 2.4375 -7.5625 C 2.625 -7.632812 2.804688 -7.722656 2.984375 -7.828125 C 3.171875 -7.929688 3.351562 -8.039062 3.53125 -8.15625 Z M 3.53125 -8.15625 "/></g></g></g><g fill="#db5b2a" fill-opacity="1"><g transform="translate(35.188648, 42.218971)"><g><path d="M 2.359375 -3.328125 C 2.160156 -2.660156 1.890625 -2.21875 1.546875 -2 C 1.441406 -1.9375 1.285156 -1.890625 1.078125 -1.859375 C 0.867188 -1.835938 0.644531 -1.832031 0.40625 -1.84375 C 0.164062 -1.851562 -0.0546875 -1.894531 -0.265625 -1.96875 C -0.472656 -2.039062 -0.628906 -2.160156 -0.734375 -2.328125 C -0.796875 -2.453125 -0.816406 -2.597656 -0.796875 -2.765625 C -0.742188 -2.960938 -0.738281 -3.140625 -0.78125 -3.296875 C -0.832031 -3.453125 -0.894531 -3.59375 -0.96875 -3.71875 C -1.101562 -3.9375 -1.28125 -4.160156 -1.5 -4.390625 C -1.71875 -4.628906 -1.945312 -4.867188 -2.1875 -5.109375 C -2.4375 -5.347656 -2.679688 -5.554688 -2.921875 -5.734375 C -3.066406 -5.847656 -3.1875 -5.976562 -3.28125 -6.125 C -3.414062 -6.351562 -3.460938 -6.585938 -3.421875 -6.828125 C -3.378906 -7.078125 -3.242188 -7.269531 -3.015625 -7.40625 C -2.835938 -7.507812 -2.632812 -7.5625 -2.40625 -7.5625 C -2.175781 -7.570312 -1.941406 -7.53125 -1.703125 -7.4375 C -1.554688 -7.351562 -1.429688 -7.253906 -1.328125 -7.140625 C -1.222656 -7.023438 -1.109375 -6.921875 -0.984375 -6.828125 C -0.867188 -6.703125 -0.734375 -6.554688 -0.578125 -6.390625 C -0.421875 -6.222656 -0.257812 -6.066406 -0.09375 -5.921875 C 0.0625 -5.773438 0.21875 -5.664062 0.375 -5.59375 C 0.53125 -5.53125 0.671875 -5.535156 0.796875 -5.609375 C 0.910156 -5.679688 1.039062 -5.800781 1.1875 -5.96875 C 1.332031 -6.132812 1.476562 -6.300781 1.625 -6.46875 C 1.78125 -6.644531 1.921875 -6.773438 2.046875 -6.859375 C 2.191406 -6.953125 2.367188 -7.015625 2.578125 -7.046875 C 2.785156 -7.078125 2.992188 -7.066406 3.203125 -7.015625 C 3.410156 -6.972656 3.570312 -6.859375 3.6875 -6.671875 C 3.738281 -6.585938 3.738281 -6.492188 3.6875 -6.390625 C 3.644531 -6.285156 3.582031 -6.171875 3.5 -6.046875 C 3.414062 -5.921875 3.347656 -5.796875 3.296875 -5.671875 C 3.253906 -5.554688 3.269531 -5.4375 3.34375 -5.3125 C 3.488281 -5.082031 3.695312 -4.921875 3.96875 -4.828125 C 4.238281 -4.734375 4.507812 -4.742188 4.78125 -4.859375 C 4.90625 -4.929688 5.015625 -4.984375 5.109375 -5.015625 C 5.210938 -5.046875 5.328125 -5.050781 5.453125 -5.03125 C 5.617188 -4.957031 5.773438 -4.882812 5.921875 -4.8125 C 6.066406 -4.75 6.179688 -4.65625 6.265625 -4.53125 C 6.410156 -4.289062 6.429688 -4.054688 6.328125 -3.828125 C 6.234375 -3.597656 6.09375 -3.425781 5.90625 -3.3125 C 5.53125 -3.082031 5.144531 -2.957031 4.75 -2.9375 C 4.351562 -2.925781 3.953125 -2.960938 3.546875 -3.046875 C 3.140625 -3.140625 2.742188 -3.234375 2.359375 -3.328125 Z M 2.359375 -3.328125 "/></g></g></g><g fill="#db5b2a" fill-opacity="1"><g transform="translate(42.164298, 37.690216)"><g><path d="M 2.03125 -0.09375 C 1.789062 0.0625 1.554688 0.140625 1.328125 0.140625 C 1.109375 0.148438 0.929688 0.078125 0.796875 -0.078125 C 0.722656 -0.148438 0.664062 -0.253906 0.625 -0.390625 C 0.59375 -0.535156 0.550781 -0.671875 0.5 -0.796875 C 0.457031 -0.929688 0.40625 -1.035156 0.34375 -1.109375 C 0.257812 -1.203125 0.125 -1.289062 -0.0625 -1.375 C -0.46875 -1.53125 -0.820312 -1.773438 -1.125 -2.109375 C -1.507812 -2.546875 -1.753906 -3.050781 -1.859375 -3.625 C -1.960938 -4.207031 -1.90625 -4.765625 -1.6875 -5.296875 C -1.632812 -5.390625 -1.582031 -5.476562 -1.53125 -5.5625 C -1.476562 -5.644531 -1.421875 -5.71875 -1.359375 -5.78125 C -1.160156 -5.957031 -0.941406 -6.035156 -0.703125 -6.015625 C -0.460938 -5.992188 -0.273438 -5.90625 -0.140625 -5.75 C -0.0351562 -5.644531 0.015625 -5.523438 0.015625 -5.390625 C 0.0234375 -5.253906 0.0195312 -5.09375 0 -4.90625 C -0.0625 -4.53125 -0.09375 -4.234375 -0.09375 -4.015625 C -0.09375 -3.796875 -0.0390625 -3.628906 0.0625 -3.515625 C 0.15625 -3.410156 0.304688 -3.320312 0.515625 -3.25 C 0.722656 -3.1875 1.015625 -3.109375 1.390625 -3.015625 C 1.578125 -2.992188 1.75 -2.945312 1.90625 -2.875 C 2.070312 -2.800781 2.210938 -2.703125 2.328125 -2.578125 C 2.566406 -2.304688 2.6875 -2.003906 2.6875 -1.671875 C 2.6875 -1.347656 2.617188 -1.039062 2.484375 -0.75 C 2.347656 -0.46875 2.195312 -0.25 2.03125 -0.09375 Z M 2.03125 -0.09375 "/></g></g></g><g fill="#db5b2a" fill-opacity="1"><g transform="translate(45.893585, 34.504488)"><g><path d="M -0.8125 -6.109375 C -0.769531 -6.140625 -0.734375 -6.171875 -0.703125 -6.203125 C -0.679688 -6.242188 -0.65625 -6.285156 -0.625 -6.328125 C -0.4375 -6.566406 -0.222656 -6.726562 0.015625 -6.8125 C 0.265625 -6.894531 0.523438 -6.921875 0.796875 -6.890625 C 1.066406 -6.867188 1.347656 -6.828125 1.640625 -6.765625 C 1.929688 -6.710938 2.222656 -6.675781 2.515625 -6.65625 C 2.804688 -6.632812 3.09375 -6.65625 3.375 -6.71875 C 3.644531 -6.757812 3.875 -6.703125 4.0625 -6.546875 C 4.300781 -6.359375 4.421875 -6.109375 4.421875 -5.796875 C 4.421875 -5.484375 4.332031 -5.222656 4.15625 -5.015625 C 3.988281 -4.785156 3.773438 -4.632812 3.515625 -4.5625 C 3.265625 -4.488281 3.003906 -4.457031 2.734375 -4.46875 C 2.460938 -4.488281 2.195312 -4.515625 1.9375 -4.546875 C 1.675781 -4.585938 1.457031 -4.617188 1.28125 -4.640625 C 1.113281 -4.671875 1.003906 -4.660156 0.953125 -4.609375 C 0.898438 -4.535156 0.882812 -4.40625 0.90625 -4.21875 C 0.925781 -4.03125 0.957031 -3.8125 1 -3.5625 C 1.039062 -3.320312 1.070312 -3.070312 1.09375 -2.8125 C 1.125 -2.550781 1.128906 -2.304688 1.109375 -2.078125 C 1.097656 -1.859375 1.039062 -1.675781 0.9375 -1.53125 C 0.78125 -1.332031 0.601562 -1.207031 0.40625 -1.15625 C 0.207031 -1.113281 0.0195312 -1.113281 -0.15625 -1.15625 C -0.34375 -1.207031 -0.492188 -1.28125 -0.609375 -1.375 C -0.671875 -1.425781 -0.726562 -1.484375 -0.78125 -1.546875 C -0.832031 -1.609375 -0.882812 -1.664062 -0.9375 -1.71875 C -1.300781 -2.15625 -1.660156 -2.59375 -2.015625 -3.03125 C -2.367188 -3.46875 -2.726562 -3.914062 -3.09375 -4.375 C -3.476562 -4.863281 -3.851562 -5.347656 -4.21875 -5.828125 C -4.59375 -6.316406 -5.007812 -6.785156 -5.46875 -7.234375 C -5.800781 -7.535156 -6 -7.820312 -6.0625 -8.09375 C -6.125 -8.375 -6.070312 -8.617188 -5.90625 -8.828125 C -5.78125 -8.984375 -5.585938 -9.082031 -5.328125 -9.125 C -5.078125 -9.175781 -4.816406 -9.171875 -4.546875 -9.109375 C -4.273438 -9.054688 -4.054688 -8.960938 -3.890625 -8.828125 C -3.640625 -8.628906 -3.390625 -8.378906 -3.140625 -8.078125 C -2.898438 -7.785156 -2.664062 -7.472656 -2.4375 -7.140625 C -2.207031 -6.816406 -1.984375 -6.507812 -1.765625 -6.21875 C -1.597656 -5.96875 -1.46875 -5.804688 -1.375 -5.734375 C -1.28125 -5.660156 -1.195312 -5.65625 -1.125 -5.71875 C -1.0625 -5.789062 -0.957031 -5.921875 -0.8125 -6.109375 Z M -0.8125 -6.109375 "/></g></g></g><g fill="#db5b2a" fill-opacity="1"><g transform="translate(50.916168, 27.894827)"><g><path d="M -2.0625 -4.265625 C -1.925781 -4.523438 -1.726562 -4.71875 -1.46875 -4.84375 C -1.21875 -4.976562 -0.941406 -5.046875 -0.640625 -5.046875 C -0.347656 -5.046875 -0.078125 -4.976562 0.171875 -4.84375 C 0.460938 -4.675781 0.6875 -4.445312 0.84375 -4.15625 C 1.007812 -3.863281 1.09375 -3.546875 1.09375 -3.203125 C 1.101562 -2.867188 1.03125 -2.550781 0.875 -2.25 C 0.632812 -1.789062 0.316406 -1.492188 -0.078125 -1.359375 C -0.484375 -1.222656 -0.867188 -1.253906 -1.234375 -1.453125 C -1.898438 -1.796875 -2.285156 -2.191406 -2.390625 -2.640625 C -2.503906 -3.097656 -2.394531 -3.640625 -2.0625 -4.265625 Z M -2.0625 -4.265625 "/></g></g></g><g fill="#db5b2a" fill-opacity="1"><g transform="translate(53.578779, 22.890002)"><g><path d="M 3.328125 0.578125 C 2.816406 0.378906 2.316406 0.15625 1.828125 -0.09375 C 1.335938 -0.34375 0.84375 -0.597656 0.34375 -0.859375 C -0.144531 -1.117188 -0.644531 -1.332031 -1.15625 -1.5 C -1.414062 -1.582031 -1.691406 -1.632812 -1.984375 -1.65625 C -2.285156 -1.675781 -2.554688 -1.722656 -2.796875 -1.796875 C -3.316406 -1.972656 -3.675781 -2.332031 -3.875 -2.875 C -4.070312 -3.414062 -4.050781 -4.0625 -3.8125 -4.8125 C -3.65625 -5.269531 -3.429688 -5.675781 -3.140625 -6.03125 C -2.859375 -6.382812 -2.515625 -6.632812 -2.109375 -6.78125 C -1.710938 -6.9375 -1.25 -6.925781 -0.71875 -6.75 C -0.34375 -6.632812 -0.03125 -6.429688 0.21875 -6.140625 C 0.46875 -5.847656 0.628906 -5.507812 0.703125 -5.125 C 0.773438 -4.738281 0.738281 -4.328125 0.59375 -3.890625 C 0.550781 -3.742188 0.503906 -3.617188 0.453125 -3.515625 C 0.410156 -3.410156 0.378906 -3.320312 0.359375 -3.25 C 0.273438 -2.988281 0.28125 -2.8125 0.375 -2.71875 C 0.476562 -2.625 0.707031 -2.492188 1.0625 -2.328125 C 1.84375 -1.972656 2.632812 -1.625 3.4375 -1.28125 C 4.238281 -0.945312 5.019531 -0.585938 5.78125 -0.203125 C 6.550781 0.179688 6.867188 0.578125 6.734375 0.984375 C 6.660156 1.203125 6.472656 1.332031 6.171875 1.375 C 5.878906 1.414062 5.5625 1.378906 5.21875 1.265625 C 4.894531 1.148438 4.582031 1.035156 4.28125 0.921875 C 3.976562 0.804688 3.660156 0.691406 3.328125 0.578125 Z M 3.328125 0.578125 "/></g></g></g><g fill="#db5b2a" fill-opacity="1"><g transform="translate(55.681725, 16.024769)"><g/></g></g></g></g><g transform="matrix(1, 0, 0, 1, 241, 151)"><g clip-path="url(#a452bcefca)"><g fill="#db5b2a" fill-opacity="1"><g transform="translate(0.373368, 55.698275)"><g><path d="M 2.125 -15.03125 C 3.164062 -17.0625 4.304688 -18.671875 5.546875 -19.859375 C 6.046875 -20.328125 6.367188 -20.625 6.515625 -20.75 C 8.492188 -22.488281 10.738281 -23.679688 13.25 -24.328125 C 15.382812 -24.898438 17.460938 -24.910156 19.484375 -24.359375 C 20.429688 -24.085938 21.375 -23.585938 22.3125 -22.859375 C 23.257812 -22.117188 23.976562 -21.3125 24.46875 -20.4375 C 24.976562 -19.4375 25.304688 -18.175781 25.453125 -16.65625 C 25.640625 -14.414062 25.429688 -12.40625 24.828125 -10.625 C 24.460938 -9.53125 23.925781 -8.476562 23.21875 -7.46875 C 22.519531 -6.4375 21.789062 -5.515625 21.03125 -4.703125 C 19.894531 -3.492188 18.601562 -2.46875 17.15625 -1.625 C 15.707031 -0.78125 14.148438 -0.28125 12.484375 -0.125 C 10.742188 -0.0078125 9.101562 -0.207031 7.5625 -0.71875 C 6.34375 -1.132812 5.222656 -1.710938 4.203125 -2.453125 C 3.171875 -3.179688 2.378906 -4.117188 1.828125 -5.265625 C 1.265625 -6.390625 0.957031 -7.691406 0.90625 -9.171875 C 0.820312 -11.285156 1.226562 -13.238281 2.125 -15.03125 Z M 8.828125 -11.4375 C 8.828125 -10.351562 9.445312 -9.226562 10.6875 -8.0625 C 11.9375 -6.882812 13.195312 -6.609375 14.46875 -7.234375 C 15.28125 -7.628906 15.78125 -8.1875 15.96875 -8.90625 C 16.132812 -9.613281 16.097656 -10.359375 15.859375 -11.140625 C 15.304688 -12.890625 14 -13.945312 11.9375 -14.3125 C 9.863281 -14.675781 8.828125 -13.71875 8.828125 -11.4375 Z M 8.828125 -11.4375 "/></g></g></g></g></g></svg>